STARTFONT 2.1
COMMENT
COMMENT Converted from OpenType font "KH-Dot-Kabutochou-16.ttf" by "otf2bdf 3.0".
COMMENT
FONT -FreeType-KH Dot Kabutochou 16-Medium-R-Normal--17-120-100-100-P-155-ISO10646-1
SIZE 12 100 100
FONTBOUNDINGBOX 16 17 0 -2
STARTPROPERTIES 19
FOUNDRY "FreeType"
FAMILY_NAME "KH Dot Kabutochou 16"
WEIGHT_NAME "Medium"
SLANT "R"
SETWIDTH_NAME "Normal"
ADD_STYLE_NAME ""
PIXEL_SIZE 17
POINT_SIZE 120
RESOLUTION_X 100
RESOLUTION_Y 100
SPACING "P"
AVERAGE_WIDTH 155
CHARSET_REGISTRY "ISO10646"
CHARSET_ENCODING "1"
FONT_ASCENT 14
FONT_DESCENT 2
COPYRIGHT "Copyright (c) Keitarou Hiraki, Font Silo. 1990-2015"
_OTF_FONTFILE "KH-Dot-Kabutochou-16.ttf"
_OTF_PSNAME "KH-Dot-Kabutochou-16"
ENDPROPERTIES
CHARS 7264
STARTCHAR 0020
ENCODING 32
SWIDTH 540 0
DWIDTH 9 0
BBX 0 0 0 0
BITMAP
ENDCHAR
STARTCHAR 0021
ENCODING 33
SWIDTH 540 0
DWIDTH 9 0
BBX 1 12 3 0
BITMAP
80
80
80
80
80
80
80
00
00
80
80
80
ENDCHAR
STARTCHAR 0022
ENCODING 34
SWIDTH 540 0
DWIDTH 9 0
BBX 6 6 0 8
BITMAP
6C
6C
6C
6C
FC
D8
ENDCHAR
STARTCHAR 0023
ENCODING 35
SWIDTH 540 0
DWIDTH 9 0
BBX 7 13 0 1
BITMAP
44
44
44
44
FE
FE
44
44
FE
FE
44
44
44
ENDCHAR
STARTCHAR 0024
ENCODING 36
SWIDTH 540 0
DWIDTH 9 0
BBX 7 16 0 -1
BITMAP
10
7C
7C
FE
92
92
90
F8
7C
12
92
92
FE
7C
10
10
ENDCHAR
STARTCHAR 0025
ENCODING 37
SWIDTH 540 0
DWIDTH 9 0
BBX 7 13 0 1
BITMAP
60
60
F0
96
F6
6C
18
30
6C
DE
D2
1E
0C
ENDCHAR
STARTCHAR 0026
ENCODING 38
SWIDTH 540 0
DWIDTH 9 0
BBX 7 13 0 1
BITMAP
70
70
F8
88
D8
50
6E
6E
D4
9C
8A
FE
76
ENDCHAR
STARTCHAR 0027
ENCODING 39
SWIDTH 540 0
DWIDTH 9 0
BBX 3 6 1 8
BITMAP
60
60
60
60
E0
C0
ENDCHAR
STARTCHAR 0028
ENCODING 40
SWIDTH 540 0
DWIDTH 9 0
BBX 4 16 3 -1
BITMAP
30
70
70
40
C0
80
80
80
80
80
80
80
C0
40
70
30
ENDCHAR
STARTCHAR 0029
ENCODING 41
SWIDTH 540 0
DWIDTH 9 0
BBX 4 16 1 -1
BITMAP
C0
E0
E0
20
30
10
10
10
10
10
10
10
30
20
E0
C0
ENDCHAR
STARTCHAR 002A
ENCODING 42
SWIDTH 540 0
DWIDTH 9 0
BBX 7 10 0 1
BITMAP
10
92
D6
7C
38
38
7C
D6
92
10
ENDCHAR
STARTCHAR 002B
ENCODING 43
SWIDTH 540 0
DWIDTH 9 0
BBX 7 8 0 2
BITMAP
10
10
10
FE
FE
10
10
10
ENDCHAR
STARTCHAR 002C
ENCODING 44
SWIDTH 540 0
DWIDTH 9 0
BBX 3 5 2 -1
BITMAP
60
60
60
E0
C0
ENDCHAR
STARTCHAR 002D
ENCODING 45
SWIDTH 540 0
DWIDTH 9 0
BBX 7 2 0 5
BITMAP
FE
FE
ENDCHAR
STARTCHAR 002E
ENCODING 46
SWIDTH 540 0
DWIDTH 9 0
BBX 2 3 3 1
BITMAP
C0
C0
C0
ENDCHAR
STARTCHAR 002F
ENCODING 47
SWIDTH 540 0
DWIDTH 9 0
BBX 7 17 0 -2
BITMAP
06
06
06
0C
0C
0C
18
18
18
30
30
30
60
60
60
C0
C0
ENDCHAR
STARTCHAR 0030
ENCODING 48
SWIDTH 540 0
DWIDTH 9 0
BBX 6 13 1 1
BITMAP
30
30
78
CC
84
84
84
84
84
84
CC
78
30
ENDCHAR
STARTCHAR 0031
ENCODING 49
SWIDTH 540 0
DWIDTH 9 0
BBX 4 13 2 1
BITMAP
20
20
E0
E0
20
20
20
20
20
20
20
F0
F0
ENDCHAR
STARTCHAR 0032
ENCODING 50
SWIDTH 540 0
DWIDTH 9 0
BBX 6 13 1 1
BITMAP
78
78
FC
84
84
0C
38
70
C0
84
84
FC
FC
ENDCHAR
STARTCHAR 0033
ENCODING 51
SWIDTH 540 0
DWIDTH 9 0
BBX 6 13 1 1
BITMAP
78
78
FC
84
84
0C
78
78
0C
84
84
FC
78
ENDCHAR
STARTCHAR 0034
ENCODING 52
SWIDTH 540 0
DWIDTH 9 0
BBX 6 13 1 1
BITMAP
08
08
18
18
38
28
68
48
FC
FC
08
08
08
ENDCHAR
STARTCHAR 0035
ENCODING 53
SWIDTH 540 0
DWIDTH 9 0
BBX 6 13 1 1
BITMAP
F8
F8
F8
80
80
B0
F8
CC
04
04
8C
F8
70
ENDCHAR
STARTCHAR 0036
ENCODING 54
SWIDTH 540 0
DWIDTH 9 0
BBX 6 13 1 1
BITMAP
38
38
7C
C4
80
B0
F8
CC
84
84
CC
78
30
ENDCHAR
STARTCHAR 0037
ENCODING 55
SWIDTH 540 0
DWIDTH 9 0
BBX 6 13 1 1
BITMAP
FC
FC
FC
8C
88
18
10
10
30
20
20
70
70
ENDCHAR
STARTCHAR 0038
ENCODING 56
SWIDTH 540 0
DWIDTH 9 0
BBX 6 13 1 1
BITMAP
78
78
FC
84
84
CC
78
78
CC
84
84
FC
78
ENDCHAR
STARTCHAR 0039
ENCODING 57
SWIDTH 540 0
DWIDTH 9 0
BBX 6 13 1 1
BITMAP
30
30
78
CC
84
84
CC
7C
34
04
8C
F8
70
ENDCHAR
STARTCHAR 003A
ENCODING 58
SWIDTH 540 0
DWIDTH 9 0
BBX 2 9 3 1
BITMAP
C0
C0
C0
00
00
00
C0
C0
C0
ENDCHAR
STARTCHAR 003B
ENCODING 59
SWIDTH 540 0
DWIDTH 9 0
BBX 3 11 2 -1
BITMAP
60
60
60
00
00
00
60
60
60
E0
C0
ENDCHAR
STARTCHAR 003C
ENCODING 60
SWIDTH 540 0
DWIDTH 9 0
BBX 7 15 0 -1
BITMAP
02
02
06
0C
18
30
60
C0
C0
60
30
18
0C
06
02
ENDCHAR
STARTCHAR 003D
ENCODING 61
SWIDTH 540 0
DWIDTH 9 0
BBX 7 6 0 3
BITMAP
FE
FE
00
00
FE
FE
ENDCHAR
STARTCHAR 003E
ENCODING 62
SWIDTH 540 0
DWIDTH 9 0
BBX 7 15 0 -1
BITMAP
80
80
C0
60
30
18
0C
06
06
0C
18
30
60
C0
80
ENDCHAR
STARTCHAR 003F
ENCODING 63
SWIDTH 540 0
DWIDTH 9 0
BBX 7 13 0 1
BITMAP
38
38
7C
C6
82
06
1C
18
10
00
10
10
10
ENDCHAR
STARTCHAR 0040
ENCODING 64
SWIDTH 540 0
DWIDTH 9 0
BBX 7 12 0 0
BITMAP
38
7C
C6
9A
BA
AA
AA
BE
9C
C2
7E
3C
ENDCHAR
STARTCHAR 0041
ENCODING 65
SWIDTH 540 0
DWIDTH 9 0
BBX 7 13 0 1
BITMAP
38
38
38
10
38
28
28
44
7C
7C
44
EE
EE
ENDCHAR
STARTCHAR 0042
ENCODING 66
SWIDTH 540 0
DWIDTH 9 0
BBX 7 13 0 1
BITMAP
F8
F8
FC
46
42
46
7C
7C
46
42
46
FC
F8
ENDCHAR
STARTCHAR 0043
ENCODING 67
SWIDTH 540 0
DWIDTH 9 0
BBX 7 13 0 1
BITMAP
3A
3A
7E
46
82
82
80
80
82
82
46
7C
38
ENDCHAR
STARTCHAR 0044
ENCODING 68
SWIDTH 540 0
DWIDTH 9 0
BBX 7 13 0 1
BITMAP
F8
F8
FC
44
42
42
42
42
42
42
44
FC
F8
ENDCHAR
STARTCHAR 0045
ENCODING 69
SWIDTH 540 0
DWIDTH 9 0
BBX 7 13 0 1
BITMAP
FE
FE
FE
42
42
48
78
78
48
42
42
FE
FE
ENDCHAR
STARTCHAR 0046
ENCODING 70
SWIDTH 540 0
DWIDTH 9 0
BBX 7 13 0 1
BITMAP
FE
FE
FE
42
42
48
78
78
48
40
40
F0
F0
ENDCHAR
STARTCHAR 0047
ENCODING 71
SWIDTH 540 0
DWIDTH 9 0
BBX 7 13 0 1
BITMAP
3A
3A
7E
46
82
80
9E
9E
82
82
46
7E
3A
ENDCHAR
STARTCHAR 0048
ENCODING 72
SWIDTH 540 0
DWIDTH 9 0
BBX 9 13 0 1
BITMAP
E780
E780
E780
4200
4200
4200
7E00
7E00
4200
4200
4200
E780
E780
ENDCHAR
STARTCHAR 0049
ENCODING 73
SWIDTH 540 0
DWIDTH 9 0
BBX 3 13 2 1
BITMAP
E0
E0
E0
40
40
40
40
40
40
40
40
E0
E0
ENDCHAR
STARTCHAR 004A
ENCODING 74
SWIDTH 540 0
DWIDTH 9 0
BBX 6 15 1 -1
BITMAP
3C
3C
3C
08
08
08
08
08
08
08
08
88
88
F8
70
ENDCHAR
STARTCHAR 004B
ENCODING 75
SWIDTH 540 0
DWIDTH 9 0
BBX 7 13 0 1
BITMAP
EE
EE
EE
44
4C
48
70
70
48
4C
44
EE
EE
ENDCHAR
STARTCHAR 004C
ENCODING 76
SWIDTH 540 0
DWIDTH 9 0
BBX 7 13 0 1
BITMAP
F0
F0
F0
40
40
40
40
40
40
42
42
FE
FE
ENDCHAR
STARTCHAR 004D
ENCODING 77
SWIDTH 540 0
DWIDTH 9 0
BBX 9 13 0 1
BITMAP
C780
C780
C780
6600
6E00
6A00
5A00
5200
5200
4200
4200
E780
E780
ENDCHAR
STARTCHAR 004E
ENCODING 78
SWIDTH 540 0
DWIDTH 9 0
BBX 7 13 0 1
BITMAP
CE
CE
CE
64
64
54
54
54
54
4C
4C
C6
C6
ENDCHAR
STARTCHAR 004F
ENCODING 79
SWIDTH 540 0
DWIDTH 9 0
BBX 7 13 0 1
BITMAP
38
38
7C
44
82
82
82
82
82
82
44
7C
38
ENDCHAR
STARTCHAR 0050
ENCODING 80
SWIDTH 540 0
DWIDTH 9 0
BBX 7 13 0 1
BITMAP
F8
F8
FC
42
42
42
7C
78
40
40
40
F0
F0
ENDCHAR
STARTCHAR 0051
ENCODING 81
SWIDTH 540 0
DWIDTH 9 0
BBX 7 14 0 0
BITMAP
38
38
7C
44
82
82
82
B2
BA
8E
44
7E
3A
02
ENDCHAR
STARTCHAR 0052
ENCODING 82
SWIDTH 540 0
DWIDTH 9 0
BBX 7 13 0 1
BITMAP
FC
FC
FE
42
42
42
7E
7C
44
44
44
EE
EE
ENDCHAR
STARTCHAR 0053
ENCODING 83
SWIDTH 540 0
DWIDTH 9 0
BBX 7 13 0 1
BITMAP
3A
3A
7E
C6
82
E0
78
1C
86
82
C6
FC
B8
ENDCHAR
STARTCHAR 0054
ENCODING 84
SWIDTH 540 0
DWIDTH 9 0
BBX 7 13 0 1
BITMAP
FE
FE
FE
10
10
10
10
10
10
10
10
38
38
ENDCHAR
STARTCHAR 0055
ENCODING 85
SWIDTH 540 0
DWIDTH 9 0
BBX 7 13 0 1
BITMAP
EE
EE
EE
44
44
44
44
44
44
44
44
7C
38
ENDCHAR
STARTCHAR 0056
ENCODING 86
SWIDTH 540 0
DWIDTH 9 0
BBX 7 13 0 1
BITMAP
EE
EE
EE
44
44
44
6C
28
28
38
10
38
38
ENDCHAR
STARTCHAR 0057
ENCODING 87
SWIDTH 540 0
DWIDTH 9 0
BBX 7 13 0 1
BITMAP
D6
D6
D6
92
92
92
92
92
92
92
92
FE
6C
ENDCHAR
STARTCHAR 0058
ENCODING 88
SWIDTH 540 0
DWIDTH 9 0
BBX 7 13 0 1
BITMAP
EE
EE
EE
44
44
44
38
38
44
44
44
EE
EE
ENDCHAR
STARTCHAR 0059
ENCODING 89
SWIDTH 540 0
DWIDTH 9 0
BBX 7 13 0 1
BITMAP
EE
EE
EE
44
44
28
28
38
10
10
10
38
38
ENDCHAR
STARTCHAR 005A
ENCODING 90
SWIDTH 540 0
DWIDTH 9 0
BBX 7 13 0 1
BITMAP
FE
FE
FE
84
8C
08
18
30
20
62
42
FE
FE
ENDCHAR
STARTCHAR 005B
ENCODING 91
SWIDTH 540 0
DWIDTH 9 0
BBX 5 15 2 0
BITMAP
F8
F8
F8
80
80
80
80
80
80
80
80
80
80
F8
F8
ENDCHAR
STARTCHAR 005C
ENCODING 92
SWIDTH 540 0
DWIDTH 9 0
BBX 7 17 0 -2
BITMAP
C0
C0
C0
60
60
60
30
30
30
18
18
18
0C
0C
0C
06
06
ENDCHAR
STARTCHAR 005D
ENCODING 93
SWIDTH 540 0
DWIDTH 9 0
BBX 5 15 1 0
BITMAP
F8
F8
F8
08
08
08
08
08
08
08
08
08
08
F8
F8
ENDCHAR
STARTCHAR 005E
ENCODING 94
SWIDTH 540 0
DWIDTH 9 0
BBX 7 6 0 8
BITMAP
10
10
38
6C
C6
82
ENDCHAR
STARTCHAR 005F
ENCODING 95
SWIDTH 540 0
DWIDTH 9 0
BBX 7 2 0 0
BITMAP
FE
FE
ENDCHAR
STARTCHAR 0060
ENCODING 96
SWIDTH 540 0
DWIDTH 9 0
BBX 3 6 3 8
BITMAP
60
60
E0
C0
C0
C0
ENDCHAR
STARTCHAR 0061
ENCODING 97
SWIDTH 540 0
DWIDTH 9 0
BBX 7 9 0 1
BITMAP
34
7C
CC
84
84
84
CC
7E
36
ENDCHAR
STARTCHAR 0062
ENCODING 98
SWIDTH 540 0
DWIDTH 9 0
BBX 7 14 0 1
BITMAP
C0
C0
C0
40
40
58
7C
66
42
42
42
66
7C
58
ENDCHAR
STARTCHAR 0063
ENCODING 99
SWIDTH 540 0
DWIDTH 9 0
BBX 6 9 1 1
BITMAP
38
7C
C4
80
80
80
C4
7C
38
ENDCHAR
STARTCHAR 0064
ENCODING 100
SWIDTH 540 0
DWIDTH 9 0
BBX 7 14 0 1
BITMAP
06
06
06
02
02
3A
7E
C6
82
82
82
C6
7E
3A
ENDCHAR
STARTCHAR 0065
ENCODING 101
SWIDTH 540 0
DWIDTH 9 0
BBX 7 9 0 1
BITMAP
38
7C
C6
FE
FE
80
C0
7E
3C
ENDCHAR
STARTCHAR 0066
ENCODING 102
SWIDTH 540 0
DWIDTH 9 0
BBX 6 14 1 1
BITMAP
1C
3C
3C
20
20
FC
FC
20
20
20
20
20
70
70
ENDCHAR
STARTCHAR 0067
ENCODING 103
SWIDTH 540 0
DWIDTH 9 0
BBX 7 11 0 -1
BITMAP
3A
7E
C6
82
82
C6
7E
3A
06
7C
78
ENDCHAR
STARTCHAR 0068
ENCODING 104
SWIDTH 540 0
DWIDTH 9 0
BBX 7 14 0 1
BITMAP
C0
C0
C0
40
40
58
7C
64
44
44
44
44
EE
EE
ENDCHAR
STARTCHAR 0069
ENCODING 105
SWIDTH 540 0
DWIDTH 9 0
BBX 3 14 3 1
BITMAP
C0
C0
C0
00
00
C0
C0
40
40
40
40
40
E0
E0
ENDCHAR
STARTCHAR 006A
ENCODING 106
SWIDTH 540 0
DWIDTH 9 0
BBX 5 16 1 -1
BITMAP
18
18
18
00
00
18
18
08
08
08
08
08
88
88
F8
70
ENDCHAR
STARTCHAR 006B
ENCODING 107
SWIDTH 540 0
DWIDTH 9 0
BBX 7 14 0 1
BITMAP
C0
C0
C0
40
40
44
4C
58
70
70
58
4C
E6
E6
ENDCHAR
STARTCHAR 006C
ENCODING 108
SWIDTH 540 0
DWIDTH 9 0
BBX 3 14 2 1
BITMAP
C0
C0
C0
40
40
40
40
40
40
40
40
40
E0
E0
ENDCHAR
STARTCHAR 006D
ENCODING 109
SWIDTH 540 0
DWIDTH 9 0
BBX 7 9 0 1
BITMAP
EC
FE
92
92
92
92
92
DA
DA
ENDCHAR
STARTCHAR 006E
ENCODING 110
SWIDTH 540 0
DWIDTH 9 0
BBX 7 9 0 1
BITMAP
D8
FC
64
44
44
44
44
EE
EE
ENDCHAR
STARTCHAR 006F
ENCODING 111
SWIDTH 540 0
DWIDTH 9 0
BBX 7 9 0 1
BITMAP
38
7C
C6
82
82
82
C6
7C
38
ENDCHAR
STARTCHAR 0070
ENCODING 112
SWIDTH 540 0
DWIDTH 9 0
BBX 7 11 0 -1
BITMAP
D8
FC
66
42
42
42
66
7C
58
E0
E0
ENDCHAR
STARTCHAR 0071
ENCODING 113
SWIDTH 540 0
DWIDTH 9 0
BBX 7 11 0 -1
BITMAP
3A
7E
C6
82
82
82
C6
7E
3A
06
06
ENDCHAR
STARTCHAR 0072
ENCODING 114
SWIDTH 540 0
DWIDTH 9 0
BBX 6 9 1 1
BITMAP
DC
FC
60
40
40
40
40
E0
E0
ENDCHAR
STARTCHAR 0073
ENCODING 115
SWIDTH 540 0
DWIDTH 9 0
BBX 7 9 0 1
BITMAP
7C
FE
82
F8
7C
06
82
FE
7C
ENDCHAR
STARTCHAR 0074
ENCODING 116
SWIDTH 540 0
DWIDTH 9 0
BBX 5 13 1 1
BITMAP
20
20
20
20
F8
F8
20
20
20
20
20
38
18
ENDCHAR
STARTCHAR 0075
ENCODING 117
SWIDTH 540 0
DWIDTH 9 0
BBX 7 9 0 1
BITMAP
C6
C6
42
42
42
42
66
3E
1A
ENDCHAR
STARTCHAR 0076
ENCODING 118
SWIDTH 540 0
DWIDTH 9 0
BBX 7 9 0 1
BITMAP
EE
EE
44
44
28
28
10
38
38
ENDCHAR
STARTCHAR 0077
ENCODING 119
SWIDTH 540 0
DWIDTH 9 0
BBX 7 9 0 1
BITMAP
D6
D6
92
92
92
92
92
FE
6C
ENDCHAR
STARTCHAR 0078
ENCODING 120
SWIDTH 540 0
DWIDTH 9 0
BBX 7 9 0 1
BITMAP
EE
EE
44
38
38
44
44
EE
EE
ENDCHAR
STARTCHAR 0079
ENCODING 121
SWIDTH 540 0
DWIDTH 9 0
BBX 7 11 0 -1
BITMAP
EE
EE
44
44
28
28
10
10
30
E0
C0
ENDCHAR
STARTCHAR 007A
ENCODING 122
SWIDTH 540 0
DWIDTH 9 0
BBX 7 9 0 1
BITMAP
FE
FE
8C
18
30
62
C2
FE
FE
ENDCHAR
STARTCHAR 007B
ENCODING 123
SWIDTH 540 0
DWIDTH 9 0
BBX 6 16 1 -1
BITMAP
0C
1C
1C
30
20
20
20
C0
C0
20
20
20
20
30
1C
0C
ENDCHAR
STARTCHAR 007C
ENCODING 124
SWIDTH 540 0
DWIDTH 9 0
BBX 1 17 3 -2
BITMAP
80
80
80
80
80
80
80
80
80
80
80
80
80
80
80
80
80
ENDCHAR
STARTCHAR 007D
ENCODING 125
SWIDTH 540 0
DWIDTH 9 0
BBX 6 16 1 -1
BITMAP
C0
E0
E0
30
10
10
10
0C
0C
10
10
10
10
30
E0
C0
ENDCHAR
STARTCHAR 00A0
ENCODING 160
SWIDTH 540 0
DWIDTH 9 0
BBX 0 0 0 0
BITMAP
ENDCHAR
STARTCHAR 00A2
ENCODING 162
SWIDTH 1020 0
DWIDTH 17 0
BBX 8 13 4 -1
BITMAP
02
02
02
0C
3E
7F
CD
8C
98
D8
7F
3E
20
ENDCHAR
STARTCHAR 00A3
ENCODING 163
SWIDTH 1020 0
DWIDTH 17 0
BBX 12 13 2 -1
BITMAP
0F80
1FC0
3040
2000
1000
FFC0
FFC0
0800
6810
F810
9F10
F7F0
60E0
ENDCHAR
STARTCHAR 00A5
ENCODING 165
SWIDTH 540 0
DWIDTH 9 0
BBX 7 17 0 -2
BITMAP
C0
C0
C0
60
60
60
30
30
30
18
18
18
0C
0C
0C
06
06
ENDCHAR
STARTCHAR 00A7
ENCODING 167
SWIDTH 1020 0
DWIDTH 17 0
BBX 8 16 4 -1
BITMAP
3C
7E
7E
C3
81
F8
7E
CF
81
E3
7E
1F
81
C3
7E
3C
ENDCHAR
STARTCHAR 00A8
ENCODING 168
SWIDTH 1020 0
DWIDTH 17 0
BBX 7 3 4 12
BITMAP
CE
CE
CE
ENDCHAR
STARTCHAR 00AC
ENCODING 172
SWIDTH 1020 0
DWIDTH 17 0
BBX 12 6 2 2
BITMAP
FFF0
FFF0
0010
0010
0010
0010
ENDCHAR
STARTCHAR 00B0
ENCODING 176
SWIDTH 1020 0
DWIDTH 17 0
BBX 5 6 0 9
BITMAP
70
F8
F8
88
F8
70
ENDCHAR
STARTCHAR 00B1
ENCODING 177
SWIDTH 1020 0
DWIDTH 17 0
BBX 12 13 2 1
BITMAP
0600
0600
0600
0600
FFF0
FFF0
0600
0600
0600
0000
0000
FFF0
FFF0
ENDCHAR
STARTCHAR 00B4
ENCODING 180
SWIDTH 1020 0
DWIDTH 17 0
BBX 4 5 6 10
BITMAP
70
70
70
E0
80
ENDCHAR
STARTCHAR 00B6
ENCODING 182
SWIDTH 1020 0
DWIDTH 17 0
BBX 10 15 2 -1
BITMAP
3FC0
3FC0
7FC0
F840
F840
7840
3840
0840
0840
0840
0840
0840
0840
0840
0840
ENDCHAR
STARTCHAR 00D7
ENCODING 215
SWIDTH 1020 0
DWIDTH 17 0
BBX 10 11 3 1
BITMAP
8040
C0C0
6180
3700
1E00
0C00
1E00
3700
6180
C0C0
8040
ENDCHAR
STARTCHAR 00F7
ENCODING 247
SWIDTH 1020 0
DWIDTH 17 0
BBX 12 10 2 1
BITMAP
0F00
0F00
0000
0000
FFF0
FFF0
0000
0000
0F00
0F00
ENDCHAR
STARTCHAR 0391
ENCODING 913
SWIDTH 1020 0
DWIDTH 17 0
BBX 14 14 1 0
BITMAP
0300
0300
0300
0780
0580
0DC0
0840
1860
1020
1FE0
3FF0
2010
F03C
F03C
ENDCHAR
STARTCHAR 0392
ENCODING 914
SWIDTH 1020 0
DWIDTH 17 0
BBX 11 14 2 0
BITMAP
FF80
FF80
FFC0
2060
2020
2060
3FC0
3FC0
2060
2020
2020
2060
FFC0
FF80
ENDCHAR
STARTCHAR 0393
ENCODING 915
SWIDTH 1020 0
DWIDTH 17 0
BBX 11 14 3 0
BITMAP
FFE0
FFE0
FFE0
2020
2020
2000
2000
2000
2000
2000
2000
2000
FE00
FE00
ENDCHAR
STARTCHAR 0394
ENCODING 916
SWIDTH 1020 0
DWIDTH 17 0
BBX 14 14 1 0
BITMAP
0300
0300
0300
0780
0580
0DC0
0840
1860
1020
3030
2010
6018
FFFC
FFFC
ENDCHAR
STARTCHAR 0395
ENCODING 917
SWIDTH 1020 0
DWIDTH 17 0
BBX 12 14 2 0
BITMAP
FFF0
FFF0
FFF0
2010
2010
2080
3F80
3F80
2080
2000
2010
2010
FFF0
FFF0
ENDCHAR
STARTCHAR 0396
ENCODING 918
SWIDTH 1020 0
DWIDTH 17 0
BBX 11 14 2 0
BITMAP
7FE0
7FE0
7FE0
40C0
4080
0380
0700
0600
0E00
1800
3020
6020
FFE0
FFE0
ENDCHAR
STARTCHAR 0397
ENCODING 919
SWIDTH 1020 0
DWIDTH 17 0
BBX 13 14 2 0
BITMAP
F8F8
F8F8
F8F8
2020
2020
2020
3FE0
3FE0
2020
2020
2020
2020
F8F8
F8F8
ENDCHAR
STARTCHAR 0398
ENCODING 920
SWIDTH 1020 0
DWIDTH 17 0
BBX 12 14 2 0
BITMAP
1F80
1F80
3FC0
6060
4020
D0B0
9F90
9F90
9090
C030
4020
6060
3FC0
1F80
ENDCHAR
STARTCHAR 0399
ENCODING 921
SWIDTH 1020 0
DWIDTH 17 0
BBX 6 14 5 0
BITMAP
FC
FC
FC
30
30
30
30
30
30
30
30
30
FC
FC
ENDCHAR
STARTCHAR 039A
ENCODING 922
SWIDTH 1020 0
DWIDTH 17 0
BBX 14 14 1 0
BITMAP
F9F8
F9F8
F9F8
2060
21C0
2380
2700
2F00
3B80
31C0
2060
2030
F87C
F87C
ENDCHAR
STARTCHAR 039B
ENCODING 923
SWIDTH 1020 0
DWIDTH 17 0
BBX 14 14 1 0
BITMAP
0300
0300
0300
0780
0580
0DC0
0840
0840
1860
1020
3030
2010
F03C
F03C
ENDCHAR
STARTCHAR 039C
ENCODING 924
SWIDTH 1020 0
DWIDTH 17 0
BBX 16 14 0 0
BITMAP
F00F
F00F
F81F
2814
2814
2C34
2424
2424
26E4
22C4
22C4
23C4
F99F
F99F
ENDCHAR
STARTCHAR 039D
ENCODING 925
SWIDTH 1020 0
DWIDTH 17 0
BBX 14 14 1 0
BITMAP
F07C
F07C
F87C
2810
2C10
2410
2710
2310
2390
2190
21D0
2050
F870
F830
ENDCHAR
STARTCHAR 039E
ENCODING 926
SWIDTH 1020 0
DWIDTH 17 0
BBX 12 14 2 0
BITMAP
FFF0
FFF0
FFF0
0000
0000
0000
7FE0
7FE0
0000
0000
0000
0000
FFF0
FFF0
ENDCHAR
STARTCHAR 039F
ENCODING 927
SWIDTH 1020 0
DWIDTH 17 0
BBX 12 14 2 0
BITMAP
1F80
1F80
3FC0
6060
4020
C030
8010
8010
8010
C030
4020
6060
3FC0
1F80
ENDCHAR
STARTCHAR 03A0
ENCODING 928
SWIDTH 1020 0
DWIDTH 17 0
BBX 12 14 2 0
BITMAP
FFF0
FFF0
FFF0
2040
2040
2040
2040
2040
2040
2040
2040
2040
F0F0
F0F0
ENDCHAR
STARTCHAR 03A1
ENCODING 929
SWIDTH 1020 0
DWIDTH 17 0
BBX 11 14 2 0
BITMAP
FF80
FF80
FFC0
2060
2020
2020
2060
3FC0
3F80
2000
2000
2000
FE00
FE00
ENDCHAR
STARTCHAR 03A3
ENCODING 931
SWIDTH 1020 0
DWIDTH 17 0
BBX 12 14 2 0
BITMAP
FFF0
FFF0
FFF0
6010
3010
1800
0E00
0700
0E00
1800
3010
6010
FFF0
FFF0
ENDCHAR
STARTCHAR 03A4
ENCODING 932
SWIDTH 1020 0
DWIDTH 17 0
BBX 12 14 2 0
BITMAP
FFF0
FFF0
FFF0
8610
8610
0600
0600
0600
0600
0600
0600
0600
3FC0
3FC0
ENDCHAR
STARTCHAR 03A5
ENCODING 933
SWIDTH 1020 0
DWIDTH 17 0
BBX 12 12 2 0
BITMAP
70E0
FBF0
8F10
8610
0600
0600
0600
0600
0600
0600
1F80
1F80
ENDCHAR
STARTCHAR 03A6
ENCODING 934
SWIDTH 1020 0
DWIDTH 17 0
BBX 12 14 2 0
BITMAP
0600
0600
0600
1F80
3FC0
6660
C630
8610
C630
6660
3FC0
1F80
0600
0600
ENDCHAR
STARTCHAR 03A7
ENCODING 935
SWIDTH 1020 0
DWIDTH 17 0
BBX 12 14 2 0
BITMAP
F0F0
F0F0
F0F0
6060
30C0
1B80
0F00
0600
0F00
1B80
30C0
6060
F0F0
F0F0
ENDCHAR
STARTCHAR 03A8
ENCODING 936
SWIDTH 1020 0
DWIDTH 17 0
BBX 14 14 1 0
BITMAP
0FC0
0FC0
0FC0
C30C
E31C
2310
2310
3330
1FE0
0FC0
0300
0300
0FC0
0FC0
ENDCHAR
STARTCHAR 03A9
ENCODING 937
SWIDTH 1020 0
DWIDTH 17 0
BBX 12 14 2 0
BITMAP
1F80
1F80
3FC0
6060
C030
8010
8010
8010
C030
6060
30C0
9090
F0F0
F0F0
ENDCHAR
STARTCHAR 03B1
ENCODING 945
SWIDTH 1020 0
DWIDTH 17 0
BBX 12 9 2 0
BITMAP
1F10
3F90
60B0
40E0
C0C0
8380
8F80
FEE0
7060
ENDCHAR
STARTCHAR 03B2
ENCODING 946
SWIDTH 1020 0
DWIDTH 17 0
BBX 10 15 3 -1
BITMAP
0F80
0F80
1FC0
3040
2040
60C0
4F80
4F00
4180
C080
A080
BF80
9F00
8000
8000
ENDCHAR
STARTCHAR 03B3
ENCODING 947
SWIDTH 1020 0
DWIDTH 17 0
BBX 10 10 4 -1
BITMAP
C1C0
E3C0
2E00
1C00
1800
1800
3800
2000
2000
2000
ENDCHAR
STARTCHAR 03B4
ENCODING 948
SWIDTH 1020 0
DWIDTH 17 0
BBX 10 14 4 0
BITMAP
1F00
1F00
3F80
20C0
2040
1E40
3F00
6100
4100
C300
8200
8E00
FC00
7800
ENDCHAR
STARTCHAR 03B5
ENCODING 949
SWIDTH 1020 0
DWIDTH 17 0
BBX 8 9 4 0
BITMAP
3F
7F
40
3E
7E
C0
81
FF
7E
ENDCHAR
STARTCHAR 03B6
ENCODING 950
SWIDTH 1020 0
DWIDTH 17 0
BBX 10 15 3 -1
BITMAP
1000
1000
3000
20C0
3FC0
1F00
1C00
3000
6000
C000
FE00
7F00
0100
0F00
0E00
ENDCHAR
STARTCHAR 03B7
ENCODING 951
SWIDTH 1020 0
DWIDTH 17 0
BBX 9 10 4 -1
BITMAP
CF00
FF80
3880
6080
4180
C100
8300
8200
0E00
0C00
ENDCHAR
STARTCHAR 03B8
ENCODING 952
SWIDTH 1020 0
DWIDTH 17 0
BBX 9 14 3 0
BITMAP
0F00
0F00
1F80
3080
2080
6080
7F80
7F00
C100
8700
8600
8E00
FC00
7000
ENDCHAR
STARTCHAR 03B9
ENCODING 953
SWIDTH 1020 0
DWIDTH 17 0
BBX 6 9 5 0
BITMAP
30
30
70
40
C0
80
84
FC
78
ENDCHAR
STARTCHAR 03BA
ENCODING 954
SWIDTH 1020 0
DWIDTH 17 0
BBX 9 9 3 0
BITMAP
2180
2780
2E00
3C00
7000
4C00
CC80
8F80
8700
ENDCHAR
STARTCHAR 03BB
ENCODING 955
SWIDTH 1020 0
DWIDTH 17 0
BBX 10 14 3 0
BITMAP
1C00
1C00
1E00
0600
0700
0100
0100
0700
0F00
1D00
3100
6100
C1C0
80C0
ENDCHAR
STARTCHAR 03BC
ENCODING 956
SWIDTH 1020 0
DWIDTH 17 0
BBX 11 10 2 -1
BITMAP
1000
1040
3040
20C0
2080
6380
7FE0
5E60
C000
8000
ENDCHAR
STARTCHAR 03BD
ENCODING 957
SWIDTH 1020 0
DWIDTH 17 0
BBX 9 9 4 0
BITMAP
8000
C080
4080
4100
C300
8E00
BC00
F800
C000
ENDCHAR
STARTCHAR 03BE
ENCODING 958
SWIDTH 1020 0
DWIDTH 17 0
BBX 10 15 3 -1
BITMAP
0F00
0F00
1F00
1000
1FC0
3FC0
2000
3F80
7F80
C000
FE00
7F00
0100
1F00
1E00
ENDCHAR
STARTCHAR 03BF
ENCODING 959
SWIDTH 1020 0
DWIDTH 17 0
BBX 8 9 4 0
BITMAP
1E
3F
61
41
C3
82
8E
FC
78
ENDCHAR
STARTCHAR 03C0
ENCODING 960
SWIDTH 1020 0
DWIDTH 17 0
BBX 10 9 3 0
BITMAP
FFC0
FFC0
3100
2700
6600
4E00
CC80
8F80
8700
ENDCHAR
STARTCHAR 03C1
ENCODING 961
SWIDTH 1020 0
DWIDTH 17 0
BBX 9 10 3 -1
BITMAP
0F00
1F80
3080
2080
6180
6100
7F00
DE00
8000
8000
ENDCHAR
STARTCHAR 03C3
ENCODING 963
SWIDTH 1020 0
DWIDTH 17 0
BBX 10 9 3 0
BITMAP
1FC0
3FC0
6700
4100
C700
8600
8E00
FC00
7000
ENDCHAR
STARTCHAR 03C4
ENCODING 964
SWIDTH 1020 0
DWIDTH 17 0
BBX 10 9 3 0
BITMAP
FFC0
FFC0
1C00
1000
3000
2000
2100
3F00
1E00
ENDCHAR
STARTCHAR 03C5
ENCODING 965
SWIDTH 1020 0
DWIDTH 17 0
BBX 9 9 3 0
BITMAP
4080
4080
4080
4080
C180
8100
8700
FE00
7C00
ENDCHAR
STARTCHAR 03C6
ENCODING 966
SWIDTH 1020 0
DWIDTH 17 0
BBX 10 13 3 -1
BITMAP
0100
0100
0600
3F00
7F80
CCC0
8C40
9C40
D0C0
7F80
3F00
2000
2000
ENDCHAR
STARTCHAR 03C7
ENCODING 967
SWIDTH 1020 0
DWIDTH 17 0
BBX 10 10 3 -1
BITMAP
6040
70C0
1D80
0F00
0E00
1C00
3C00
6600
C780
8180
ENDCHAR
STARTCHAR 03C8
ENCODING 968
SWIDTH 1020 0
DWIDTH 17 0
BBX 10 13 3 -1
BITMAP
0100
0100
0700
4680
4EC0
4C40
CC40
9CC0
9180
FF00
7E00
2000
2000
ENDCHAR
STARTCHAR 03C9
ENCODING 969
SWIDTH 1020 0
DWIDTH 17 0
BBX 12 9 2 0
BITMAP
1000
3020
6030
4610
C630
8E20
9860
FFC0
6780
ENDCHAR
STARTCHAR 0401
ENCODING 1025
SWIDTH 1020 0
DWIDTH 17 0
BBX 12 15 2 0
BITMAP
18C0
18C0
18C0
FFF0
FFF0
2010
2010
2080
3F80
3F80
2080
2010
2010
FFF0
FFF0
ENDCHAR
STARTCHAR 0410
ENCODING 1040
SWIDTH 1020 0
DWIDTH 17 0
BBX 14 14 1 0
BITMAP
0300
0300
0300
0780
0580
0DC0
0840
1860
1020
1FE0
3FF0
2010
F03C
F03C
ENDCHAR
STARTCHAR 0411
ENCODING 1041
SWIDTH 1020 0
DWIDTH 17 0
BBX 11 14 2 0
BITMAP
FFE0
FFE0
FFE0
2020
2020
2000
3F80
3FC0
2060
2020
2020
2060
FFC0
FF80
ENDCHAR
STARTCHAR 0412
ENCODING 1042
SWIDTH 1020 0
DWIDTH 17 0
BBX 11 14 2 0
BITMAP
FF80
FF80
FFC0
2060
2020
2060
3FC0
3FC0
2060
2020
2020
2060
FFC0
FF80
ENDCHAR
STARTCHAR 0413
ENCODING 1043
SWIDTH 1020 0
DWIDTH 17 0
BBX 11 14 3 0
BITMAP
FFE0
FFE0
FFE0
2020
2020
2000
2000
2000
2000
2000
2000
2000
FE00
FE00
ENDCHAR
STARTCHAR 0414
ENCODING 1044
SWIDTH 1020 0
DWIDTH 17 0
BBX 12 15 2 -1
BITMAP
1FC0
1FC0
1FC0
1040
1040
1040
1040
1040
1040
1040
3040
2040
FFF0
FFF0
8010
ENDCHAR
STARTCHAR 0415
ENCODING 1045
SWIDTH 1020 0
DWIDTH 17 0
BBX 12 14 2 0
BITMAP
FFF0
FFF0
FFF0
2010
2010
2080
3F80
3F80
2080
2000
2010
2010
FFF0
FFF0
ENDCHAR
STARTCHAR 0416
ENCODING 1046
SWIDTH 1020 0
DWIDTH 17 0
BBX 16 14 0 0
BITMAP
67E6
67E6
77EE
1188
1188
1998
0FF0
0FF0
1998
318C
2184
2184
F7EF
F7EF
ENDCHAR
STARTCHAR 0417
ENCODING 1047
SWIDTH 1020 0
DWIDTH 17 0
BBX 10 14 3 0
BITMAP
BF00
BF00
FF80
C0C0
8040
80C0
1F80
1F80
00C0
0040
8040
80C0
FF80
7F00
ENDCHAR
STARTCHAR 0418
ENCODING 1048
SWIDTH 1020 0
DWIDTH 17 0
BBX 14 14 1 0
BITMAP
F83C
F83C
F87C
2050
21D0
2190
2390
2310
2710
2410
2C10
2810
F87C
F07C
ENDCHAR
STARTCHAR 0419
ENCODING 1049
SWIDTH 1020 0
DWIDTH 17 0
BBX 14 15 1 0
BITMAP
0DC0
0DC0
0DC0
F7BC
F07C
2050
21D0
2190
2390
2310
2710
2410
2C10
F87C
F07C
ENDCHAR
STARTCHAR 041A
ENCODING 1050
SWIDTH 1020 0
DWIDTH 17 0
BBX 14 14 1 0
BITMAP
F9F8
F9F8
F9F8
2060
21C0
2380
2700
2F00
3B80
31C0
2060
2030
F87C
F87C
ENDCHAR
STARTCHAR 041B
ENCODING 1051
SWIDTH 1020 0
DWIDTH 17 0
BBX 12 14 1 0
BITMAP
07E0
07E0
07E0
0420
0420
0420
0420
0420
0420
0C20
8820
9820
F1F0
61F0
ENDCHAR
STARTCHAR 041C
ENCODING 1052
SWIDTH 1020 0
DWIDTH 17 0
BBX 16 14 0 0
BITMAP
F00F
F00F
F81F
2814
2814
2C34
2424
2424
26E4
22C4
22C4
23C4
F99F
F99F
ENDCHAR
STARTCHAR 041D
ENCODING 1053
SWIDTH 1020 0
DWIDTH 17 0
BBX 13 14 2 0
BITMAP
F8F8
F8F8
F8F8
2020
2020
2020
3FE0
3FE0
2020
2020
2020
2020
F8F8
F8F8
ENDCHAR
STARTCHAR 041E
ENCODING 1054
SWIDTH 1020 0
DWIDTH 17 0
BBX 12 14 2 0
BITMAP
1F80
1F80
3FC0
6060
4020
C030
8010
8010
8010
C030
4020
6060
3FC0
1F80
ENDCHAR
STARTCHAR 041F
ENCODING 1055
SWIDTH 1020 0
DWIDTH 17 0
BBX 12 14 2 0
BITMAP
FFF0
FFF0
FFF0
2040
2040
2040
2040
2040
2040
2040
2040
2040
F0F0
F0F0
ENDCHAR
STARTCHAR 0420
ENCODING 1056
SWIDTH 1020 0
DWIDTH 17 0
BBX 11 14 2 0
BITMAP
FF80
FF80
FFC0
2060
2020
2020
2060
3FC0
3F80
2000
2000
2000
FE00
FE00
ENDCHAR
STARTCHAR 0421
ENCODING 1057
SWIDTH 1020 0
DWIDTH 17 0
BBX 11 14 3 0
BITMAP
1F40
1F40
3FC0
60C0
4040
C040
8000
8000
8000
C020
4020
6060
3FC0
1F80
ENDCHAR
STARTCHAR 0422
ENCODING 1058
SWIDTH 1020 0
DWIDTH 17 0
BBX 12 14 2 0
BITMAP
FFF0
FFF0
FFF0
8610
8610
0600
0600
0600
0600
0600
0600
0600
3FC0
3FC0
ENDCHAR
STARTCHAR 0423
ENCODING 1059
SWIDTH 1020 0
DWIDTH 17 0
BBX 14 14 1 0
BITMAP
F87C
F87C
F87C
2010
3030
1020
1860
0840
0DC0
0580
2780
2300
3F00
1C00
ENDCHAR
STARTCHAR 0424
ENCODING 1060
SWIDTH 1020 0
DWIDTH 17 0
BBX 12 14 2 0
BITMAP
0600
0600
0600
1F80
3FC0
6660
C630
8610
C630
6660
3FC0
1F80
0600
0600
ENDCHAR
STARTCHAR 0425
ENCODING 1061
SWIDTH 1020 0
DWIDTH 17 0
BBX 12 14 2 0
BITMAP
F0F0
F0F0
F0F0
6060
30C0
1B80
0F00
0600
0F00
1B80
30C0
6060
F0F0
F0F0
ENDCHAR
STARTCHAR 0426
ENCODING 1062
SWIDTH 1020 0
DWIDTH 17 0
BBX 13 15 1 -1
BITMAP
F9F8
F9F8
F9F8
2020
2020
2020
2020
2020
2020
2020
2020
2020
3FF8
3FF8
0008
ENDCHAR
STARTCHAR 0427
ENCODING 1063
SWIDTH 1020 0
DWIDTH 17 0
BBX 13 14 1 0
BITMAP
F9F8
F9F8
F9F8
2020
2020
2020
2020
3060
1FE0
0FA0
0020
0020
03F8
03F8
ENDCHAR
STARTCHAR 0428
ENCODING 1064
SWIDTH 1020 0
DWIDTH 17 0
BBX 16 14 0 0
BITMAP
F7DF
F7DF
F7DF
2184
2184
2184
2184
2184
2184
2184
2184
2184
3FFC
3FFC
ENDCHAR
STARTCHAR 0429
ENCODING 1065
SWIDTH 1020 0
DWIDTH 17 0
BBX 16 15 0 -1
BITMAP
F7DF
F7DF
F7DF
2184
2184
2184
2184
2184
2184
2184
2184
2184
3FFF
3FFF
0001
ENDCHAR
STARTCHAR 042A
ENCODING 1066
SWIDTH 1020 0
DWIDTH 17 0
BBX 12 14 2 0
BITMAP
F800
F800
F800
8800
8800
0800
0FC0
0FE0
0830
0810
0810
0830
3FE0
3FC0
ENDCHAR
STARTCHAR 042B
ENCODING 1067
SWIDTH 1020 0
DWIDTH 17 0
BBX 16 12 0 0
BITMAP
F81F
F81F
2004
2004
3E04
3F84
21C4
20C4
20C4
21C4
FF9F
FE1F
ENDCHAR
STARTCHAR 042C
ENCODING 1068
SWIDTH 1020 0
DWIDTH 17 0
BBX 11 12 2 0
BITMAP
F800
F800
2000
2000
3F80
3FC0
2060
2020
2020
2060
FFC0
FF80
ENDCHAR
STARTCHAR 042D
ENCODING 1069
SWIDTH 1020 0
DWIDTH 17 0
BBX 11 14 3 0
BITMAP
3F00
3F00
7F80
C0C0
8040
3060
7CE0
4FA0
0720
0060
8040
C0C0
7F80
3F00
ENDCHAR
STARTCHAR 042E
ENCODING 1070
SWIDTH 1020 0
DWIDTH 17 0
BBX 14 14 1 0
BITMAP
F9F0
F9F0
FBF8
2308
270C
2404
3C04
3C04
2404
2404
270C
2308
FBF8
F9F0
ENDCHAR
STARTCHAR 042F
ENCODING 1071
SWIDTH 1020 0
DWIDTH 17 0
BBX 13 14 1 0
BITMAP
0FF8
0FF8
1FF8
3020
2020
3020
1FE0
0FE0
1820
1020
3020
2020
F9F8
F9F8
ENDCHAR
STARTCHAR 0430
ENCODING 1072
SWIDTH 1020 0
DWIDTH 17 0
BBX 8 9 3 0
BITMAP
3E
7F
41
3F
7F
C1
87
FF
7D
ENDCHAR
STARTCHAR 0431
ENCODING 1073
SWIDTH 1020 0
DWIDTH 17 0
BBX 9 14 3 0
BITMAP
3F00
3F00
7F00
C000
8000
BE00
FF00
C180
8080
8080
8080
C180
7F00
3E00
ENDCHAR
STARTCHAR 0432
ENCODING 1074
SWIDTH 1020 0
DWIDTH 17 0
BBX 9 9 3 0
BITMAP
FE00
FF00
4100
7F00
7F80
4080
4080
FF80
FF00
ENDCHAR
STARTCHAR 0433
ENCODING 1075
SWIDTH 1020 0
DWIDTH 17 0
BBX 9 9 3 0
BITMAP
FF80
FF80
4080
4080
4000
4000
4000
F000
F000
ENDCHAR
STARTCHAR 0434
ENCODING 1076
SWIDTH 1020 0
DWIDTH 17 0
BBX 10 10 3 -1
BITMAP
1F80
1F80
1080
1080
1080
3080
2080
FFC0
FFC0
8040
ENDCHAR
STARTCHAR 0435
ENCODING 1077
SWIDTH 1020 0
DWIDTH 17 0
BBX 9 9 3 0
BITMAP
3E00
7F00
C180
FF80
FF80
8000
C080
7F80
3F00
ENDCHAR
STARTCHAR 0436
ENCODING 1078
SWIDTH 1020 0
DWIDTH 17 0
BBX 12 9 2 0
BITMAP
CF30
EF70
2640
3FC0
1F80
36C0
2640
EF70
EF70
ENDCHAR
STARTCHAR 0437
ENCODING 1079
SWIDTH 1020 0
DWIDTH 17 0
BBX 9 9 3 0
BITMAP
3F00
7F80
4080
1F80
1F00
8180
C080
7F80
3F00
ENDCHAR
STARTCHAR 0438
ENCODING 1080
SWIDTH 1020 0
DWIDTH 17 0
BBX 10 9 3 0
BITMAP
E1C0
E1C0
4780
4E80
4C80
5C80
7080
E1C0
E1C0
ENDCHAR
STARTCHAR 0439
ENCODING 1081
SWIDTH 1020 0
DWIDTH 17 0
BBX 10 12 3 0
BITMAP
3700
3700
1E00
E1C0
E1C0
4780
4E80
4C80
5C80
7080
E1C0
E1C0
ENDCHAR
STARTCHAR 043A
ENCODING 1082
SWIDTH 1020 0
DWIDTH 17 0
BBX 9 9 3 0
BITMAP
E780
E780
4100
7700
7E00
4E00
4700
E780
E780
ENDCHAR
STARTCHAR 043B
ENCODING 1083
SWIDTH 1020 0
DWIDTH 17 0
BBX 11 9 2 0
BITMAP
0FC0
0FC0
0840
0840
0840
0840
9840
F0E0
60E0
ENDCHAR
STARTCHAR 043C
ENCODING 1084
SWIDTH 1020 0
DWIDTH 17 0
BBX 12 9 2 0
BITMAP
E070
E070
70E0
50A0
5BA0
4B20
4F20
E670
E070
ENDCHAR
STARTCHAR 043D
ENCODING 1085
SWIDTH 1020 0
DWIDTH 17 0
BBX 10 9 3 0
BITMAP
E1C0
E1C0
4080
7F80
7F80
4080
4080
E1C0
E1C0
ENDCHAR
STARTCHAR 043E
ENCODING 1086
SWIDTH 1020 0
DWIDTH 17 0
BBX 9 9 3 0
BITMAP
3E00
7F00
C180
8080
8080
8080
C180
7F00
3E00
ENDCHAR
STARTCHAR 043F
ENCODING 1087
SWIDTH 1020 0
DWIDTH 17 0
BBX 10 9 3 0
BITMAP
FFC0
FFC0
4080
4080
4080
4080
4080
E1C0
E1C0
ENDCHAR
STARTCHAR 0440
ENCODING 1088
SWIDTH 1020 0
DWIDTH 17 0
BBX 9 10 3 -1
BITMAP
DE00
FF00
6180
4080
4080
6180
7F00
5E00
E000
E000
ENDCHAR
STARTCHAR 0441
ENCODING 1089
SWIDTH 1020 0
DWIDTH 17 0
BBX 9 9 3 0
BITMAP
3E00
7F00
C180
8080
8000
8080
C180
7F00
3E00
ENDCHAR
STARTCHAR 0442
ENCODING 1090
SWIDTH 1020 0
DWIDTH 17 0
BBX 10 9 3 0
BITMAP
FFC0
FFC0
8C40
8C40
0C00
0C00
0C00
3F00
3F00
ENDCHAR
STARTCHAR 0443
ENCODING 1091
SWIDTH 1020 0
DWIDTH 17 0
BBX 10 10 3 -1
BITMAP
E1C0
E1C0
4080
6180
2100
3700
1600
9E00
FC00
7000
ENDCHAR
STARTCHAR 0444
ENCODING 1092
SWIDTH 1020 0
DWIDTH 17 0
BBX 12 15 2 -1
BITMAP
0F00
0F00
0F00
0600
0600
36C0
7FE0
CF30
8610
8610
CF30
7FE0
36C0
0F00
0F00
ENDCHAR
STARTCHAR 0445
ENCODING 1093
SWIDTH 1020 0
DWIDTH 17 0
BBX 10 9 3 0
BITMAP
E1C0
E1C0
3700
1E00
1E00
3700
6180
E1C0
E1C0
ENDCHAR
STARTCHAR 0446
ENCODING 1094
SWIDTH 1020 0
DWIDTH 17 0
BBX 11 10 3 -1
BITMAP
E1C0
E1C0
4080
4080
4080
4080
4080
FFE0
FFE0
0020
ENDCHAR
STARTCHAR 0447
ENCODING 1095
SWIDTH 1020 0
DWIDTH 17 0
BBX 10 9 3 0
BITMAP
E1C0
E1C0
4080
4080
4180
7F80
3E80
01C0
01C0
ENDCHAR
STARTCHAR 0448
ENCODING 1096
SWIDTH 1020 0
DWIDTH 17 0
BBX 12 9 2 0
BITMAP
EF70
EF70
4620
4620
4620
4620
4620
7FE0
7FE0
ENDCHAR
STARTCHAR 0449
ENCODING 1097
SWIDTH 1020 0
DWIDTH 17 0
BBX 12 10 2 -1
BITMAP
EF70
EF70
4620
4620
4620
4620
4620
7FF0
7FF0
0010
ENDCHAR
STARTCHAR 044A
ENCODING 1098
SWIDTH 1020 0
DWIDTH 17 0
BBX 11 9 2 0
BITMAP
F800
F800
8800
8FC0
0FE0
0820
0820
1FE0
1FC0
ENDCHAR
STARTCHAR 044B
ENCODING 1099
SWIDTH 1020 0
DWIDTH 17 0
BBX 12 9 2 0
BITMAP
E070
E070
4020
7E20
7F20
4320
4320
FF70
FE70
ENDCHAR
STARTCHAR 044C
ENCODING 1100
SWIDTH 1020 0
DWIDTH 17 0
BBX 8 9 4 0
BITMAP
E0
E0
40
7E
7F
41
41
FF
FE
ENDCHAR
STARTCHAR 044D
ENCODING 1101
SWIDTH 1020 0
DWIDTH 17 0
BBX 9 9 3 0
BITMAP
7E00
FF00
8180
3180
7F80
4E80
8180
FF00
7E00
ENDCHAR
STARTCHAR 044E
ENCODING 1102
SWIDTH 1020 0
DWIDTH 17 0
BBX 11 9 2 0
BITMAP
E7C0
EFE0
4820
7820
7820
4820
4820
EFE0
E7C0
ENDCHAR
STARTCHAR 044F
ENCODING 1103
SWIDTH 1020 0
DWIDTH 17 0
BBX 10 9 3 0
BITMAP
3FC0
7FC0
4080
7F80
3F80
1080
2080
F1C0
F1C0
ENDCHAR
STARTCHAR 0451
ENCODING 1105
SWIDTH 1020 0
DWIDTH 17 0
BBX 9 12 3 0
BITMAP
6700
6700
0000
3E00
7F00
C180
FF80
FF80
8000
C080
7F80
3F00
ENDCHAR
STARTCHAR 2000
ENCODING 8192
SWIDTH 1020 0
DWIDTH 17 0
BBX 0 0 0 0
BITMAP
ENDCHAR
STARTCHAR 2001
ENCODING 8193
SWIDTH 1020 0
DWIDTH 17 0
BBX 0 0 0 0
BITMAP
ENDCHAR
STARTCHAR 2002
ENCODING 8194
SWIDTH 1020 0
DWIDTH 17 0
BBX 0 0 0 0
BITMAP
ENDCHAR
STARTCHAR 2003
ENCODING 8195
SWIDTH 1020 0
DWIDTH 17 0
BBX 0 0 0 0
BITMAP
ENDCHAR
STARTCHAR 2004
ENCODING 8196
SWIDTH 1020 0
DWIDTH 17 0
BBX 0 0 0 0
BITMAP
ENDCHAR
STARTCHAR 2005
ENCODING 8197
SWIDTH 1020 0
DWIDTH 17 0
BBX 0 0 0 0
BITMAP
ENDCHAR
STARTCHAR 2006
ENCODING 8198
SWIDTH 1020 0
DWIDTH 17 0
BBX 0 0 0 0
BITMAP
ENDCHAR
STARTCHAR 2007
ENCODING 8199
SWIDTH 1020 0
DWIDTH 17 0
BBX 0 0 0 0
BITMAP
ENDCHAR
STARTCHAR 2008
ENCODING 8200
SWIDTH 1020 0
DWIDTH 17 0
BBX 0 0 0 0
BITMAP
ENDCHAR
STARTCHAR 2009
ENCODING 8201
SWIDTH 1020 0
DWIDTH 17 0
BBX 0 0 0 0
BITMAP
ENDCHAR
STARTCHAR 200A
ENCODING 8202
SWIDTH 1020 0
DWIDTH 17 0
BBX 0 0 0 0
BITMAP
ENDCHAR
STARTCHAR 200B
ENCODING 8203
SWIDTH 540 0
DWIDTH 9 0
BBX 0 0 0 0
BITMAP
ENDCHAR
STARTCHAR 200C
ENCODING 8204
SWIDTH 540 0
DWIDTH 9 0
BBX 0 0 0 0
BITMAP
ENDCHAR
STARTCHAR 200D
ENCODING 8205
SWIDTH 540 0
DWIDTH 9 0
BBX 0 0 0 0
BITMAP
ENDCHAR
STARTCHAR 200E
ENCODING 8206
SWIDTH 540 0
DWIDTH 9 0
BBX 0 0 0 0
BITMAP
ENDCHAR
STARTCHAR 200F
ENCODING 8207
SWIDTH 540 0
DWIDTH 9 0
BBX 0 0 0 0
BITMAP
ENDCHAR
STARTCHAR 2010
ENCODING 8208
SWIDTH 1020 0
DWIDTH 17 0
BBX 6 2 5 6
BITMAP
FC
FC
ENDCHAR
STARTCHAR 2015
ENCODING 8213
SWIDTH 1020 0
DWIDTH 17 0
BBX 16 2 0 6
BITMAP
FFFF
FFFF
ENDCHAR
STARTCHAR 2016
ENCODING 8214
SWIDTH 1020 0
DWIDTH 17 0
BBX 6 17 5 -2
BITMAP
84
84
84
84
84
84
84
84
84
84
84
84
84
84
84
84
84
ENDCHAR
STARTCHAR 2018
ENCODING 8216
SWIDTH 1020 0
DWIDTH 17 0
BBX 2 6 13 9
BITMAP
40
C0
C0
80
C0
C0
ENDCHAR
STARTCHAR 2019
ENCODING 8217
SWIDTH 1020 0
DWIDTH 17 0
BBX 2 6 1 9
BITMAP
C0
C0
C0
40
C0
80
ENDCHAR
STARTCHAR 201C
ENCODING 8220
SWIDTH 1020 0
DWIDTH 17 0
BBX 5 6 10 9
BITMAP
48
D8
D8
90
D8
D8
ENDCHAR
STARTCHAR 201D
ENCODING 8221
SWIDTH 1020 0
DWIDTH 17 0
BBX 5 6 1 9
BITMAP
D8
D8
D8
48
D8
90
ENDCHAR
STARTCHAR 2020
ENCODING 8224
SWIDTH 1020 0
DWIDTH 17 0
BBX 10 16 3 -1
BITMAP
0C00
1E00
1E00
1E00
4C80
FFC0
FFC0
4C80
1E00
3F00
1E00
0C00
0C00
0C00
0C00
0C00
ENDCHAR
STARTCHAR 2021
ENCODING 8225
SWIDTH 1020 0
DWIDTH 17 0
BBX 10 16 3 -1
BITMAP
0C00
5E80
5E80
FFC0
FFC0
4C80
1E00
1E00
0C00
1E00
1E00
4C80
FFC0
FFC0
5E80
0C00
ENDCHAR
STARTCHAR 2025
ENCODING 8229
SWIDTH 1020 0
DWIDTH 17 0
BBX 14 2 1 5
BITMAP
E01C
E01C
ENDCHAR
STARTCHAR 2026
ENCODING 8230
SWIDTH 1020 0
DWIDTH 17 0
BBX 16 2 0 5
BITMAP
E3C7
E3C7
ENDCHAR
STARTCHAR 2030
ENCODING 8240
SWIDTH 1020 0
DWIDTH 17 0
BBX 16 16 0 -1
BITMAP
6008
F018
F018
9030
90E0
91C0
F380
6600
0C00
1B86
37CF
64C9
C4C9
84C9
07CF
0386
ENDCHAR
STARTCHAR 2032
ENCODING 8242
SWIDTH 1020 0
DWIDTH 17 0
BBX 3 6 0 9
BITMAP
20
60
60
40
C0
80
ENDCHAR
STARTCHAR 2033
ENCODING 8243
SWIDTH 1020 0
DWIDTH 17 0
BBX 6 6 0 9
BITMAP
24
6C
6C
48
D8
90
ENDCHAR
STARTCHAR 203B
ENCODING 8251
SWIDTH 1020 0
DWIDTH 17 0
BBX 14 15 1 -1
BITMAP
8784
8784
C78C
6798
3030
1860
EDDC
E79C
E79C
0DC0
1860
3030
6798
C78C
8784
ENDCHAR
STARTCHAR 203E
ENCODING 8254
SWIDTH 540 0
DWIDTH 9 0
BBX 7 3 0 11
BITMAP
FE
FE
FE
ENDCHAR
STARTCHAR 2103
ENCODING 8451
SWIDTH 1020 0
DWIDTH 17 0
BBX 13 14 1 0
BITMAP
6000
6000
F3E8
97F8
FC18
6808
1008
1000
1000
1008
0808
0C18
07F0
03E0
ENDCHAR
STARTCHAR 2116
ENCODING 8470
SWIDTH 1020 0
DWIDTH 17 0
BBX 15 13 1 -1
BITMAP
8400
8400
C400
C400
A438
A47C
9444
9444
8C44
8C44
847C
843A
0002
ENDCHAR
STARTCHAR 2121
ENCODING 8481
SWIDTH 1020 0
DWIDTH 17 0
BBX 16 12 0 0
BITMAP
FE00
FE00
1000
1000
13E8
13E8
1208
13C8
13C8
1208
13EF
13EF
ENDCHAR
STARTCHAR 212B
ENCODING 8491
SWIDTH 1020 0
DWIDTH 17 0
BBX 14 15 1 0
BITMAP
0780
0FC0
0FC0
0840
0FC0
0780
0580
0840
0840
1FE0
1FE0
2010
2010
F87C
F87C
ENDCHAR
STARTCHAR 2160
ENCODING 8544
SWIDTH 1020 0
DWIDTH 17 0
BBX 6 14 5 0
BITMAP
FC
FC
FC
30
30
30
30
30
30
30
30
30
FC
FC
ENDCHAR
STARTCHAR 2161
ENCODING 8545
SWIDTH 1020 0
DWIDTH 17 0
BBX 10 14 3 0
BITMAP
FFC0
FFC0
FFC0
2100
2100
2100
2100
2100
2100
2100
2100
2100
FFC0
FFC0
ENDCHAR
STARTCHAR 2162
ENCODING 8546
SWIDTH 1020 0
DWIDTH 17 0
BBX 14 14 1 0
BITMAP
FFFC
FFFC
FFFC
2310
2310
2310
2310
2310
2310
2310
2310
2310
FFFC
FFFC
ENDCHAR
STARTCHAR 2163
ENCODING 8547
SWIDTH 1020 0
DWIDTH 17 0
BBX 15 14 1 0
BITMAP
FFBE
FFBE
FFBE
2408
2408
2310
2310
2310
21A0
21A0
2040
2040
F9E0
F9E0
ENDCHAR
STARTCHAR 2164
ENCODING 8548
SWIDTH 1020 0
DWIDTH 17 0
BBX 12 14 2 0
BITMAP
FBF0
FBF0
FBF0
2040
2040
1080
1080
1080
0B00
0B00
0600
0600
0F00
0F00
ENDCHAR
STARTCHAR 2165
ENCODING 8549
SWIDTH 1020 0
DWIDTH 17 0
BBX 15 14 0 0
BITMAP
FBFE
FBFE
FBFE
20C8
20C8
1188
1188
1188
0A08
0A08
0408
0408
0E3E
0E3E
ENDCHAR
STARTCHAR 2166
ENCODING 8550
SWIDTH 1020 0
DWIDTH 17 0
BBX 16 14 0 0
BITMAP
F7FF
F7FF
F7FF
2224
2224
2224
1424
1424
1424
1424
0824
0824
1DFF
1DFF
ENDCHAR
STARTCHAR 2167
ENCODING 8551
SWIDTH 1020 0
DWIDTH 17 0
BBX 16 14 0 0
BITMAP
EFFF
EFFF
EFFF
4592
4592
4592
2992
2992
2992
2992
1192
1192
3BFF
3BFF
ENDCHAR
STARTCHAR 2168
ENCODING 8552
SWIDTH 1020 0
DWIDTH 17 0
BBX 15 14 1 0
BITMAP
FF9E
FF9E
FF9E
2408
2718
23B0
21E0
2040
21E0
23B0
2718
2408
FFBE
FFBE
ENDCHAR
STARTCHAR 2169
ENCODING 8553
SWIDTH 1020 0
DWIDTH 17 0
BBX 12 14 2 0
BITMAP
FBF0
FBF0
FBF0
2040
30C0
1B80
0F00
0600
0F00
1B80
30C0
2040
FBF0
FBF0
ENDCHAR
STARTCHAR 2190
ENCODING 8592
SWIDTH 1020 0
DWIDTH 17 0
BBX 16 8 0 2
BITMAP
1000
3000
6000
FFFF
FFFF
6000
3000
1000
ENDCHAR
STARTCHAR 2191
ENCODING 8593
SWIDTH 1020 0
DWIDTH 17 0
BBX 8 16 4 -1
BITMAP
18
3C
3C
7E
DB
99
18
18
18
18
18
18
18
18
18
18
ENDCHAR
STARTCHAR 2192
ENCODING 8594
SWIDTH 1020 0
DWIDTH 17 0
BBX 16 8 0 2
BITMAP
0008
000C
0006
FFFF
FFFF
0006
000C
0008
ENDCHAR
STARTCHAR 2193
ENCODING 8595
SWIDTH 1020 0
DWIDTH 17 0
BBX 8 16 4 -1
BITMAP
18
18
18
18
18
18
18
18
18
18
18
99
DB
7E
3C
18
ENDCHAR
STARTCHAR 21D2
ENCODING 8658
SWIDTH 1020 0
DWIDTH 17 0
BBX 15 10 0 1
BITMAP
0020
0030
FFF8
FFFC
0006
0006
FFFC
FFF8
0030
0020
ENDCHAR
STARTCHAR 21D4
ENCODING 8660
SWIDTH 1020 0
DWIDTH 17 0
BBX 15 10 0 1
BITMAP
0820
1830
3FF8
7FFC
C006
C006
7FFC
3FF8
1830
0820
ENDCHAR
STARTCHAR 2200
ENCODING 8704
SWIDTH 1020 0
DWIDTH 17 0
BBX 12 15 2 -1
BITMAP
8010
8010
8010
4020
4020
7FE0
3FC0
2040
1080
1080
1080
0B00
0B00
0600
0600
ENDCHAR
STARTCHAR 2202
ENCODING 8706
SWIDTH 1020 0
DWIDTH 17 0
BBX 10 13 2 -1
BITMAP
0F00
1F80
10C0
0040
1E40
3F40
63C0
4080
8080
8300
C700
7E00
3800
ENDCHAR
STARTCHAR 2203
ENCODING 8707
SWIDTH 1020 0
DWIDTH 17 0
BBX 12 12 2 0
BITMAP
FFF0
FFF0
0010
0010
0010
FFF0
FFF0
0010
0010
0010
FFF0
FFF0
ENDCHAR
STARTCHAR 2207
ENCODING 8711
SWIDTH 1020 0
DWIDTH 17 0
BBX 12 10 2 1
BITMAP
FFF0
7FE0
6020
2040
3040
1080
1880
0B00
0F00
0600
ENDCHAR
STARTCHAR 2208
ENCODING 8712
SWIDTH 1020 0
DWIDTH 17 0
BBX 12 10 2 1
BITMAP
3FF0
7FF0
4000
8000
FFF0
FFF0
8000
4000
7FF0
3FF0
ENDCHAR
STARTCHAR 220B
ENCODING 8715
SWIDTH 1020 0
DWIDTH 17 0
BBX 12 10 2 1
BITMAP
FFC0
FFE0
0020
0010
FFF0
FFF0
0010
0020
FFE0
FFC0
ENDCHAR
STARTCHAR 2211
ENCODING 8721
SWIDTH 1020 0
DWIDTH 17 0
BBX 11 12 3 0
BITMAP
FFE0
FFE0
6000
3000
1C00
0E00
0E00
1C00
3000
6000
FFE0
FFE0
ENDCHAR
STARTCHAR 2212
ENCODING 8722
SWIDTH 1020 0
DWIDTH 17 0
BBX 12 2 2 5
BITMAP
FFF0
FFF0
ENDCHAR
STARTCHAR 221A
ENCODING 8730
SWIDTH 1020 0
DWIDTH 17 0
BBX 14 16 0 -1
BITMAP
00FC
00FC
00FC
00C0
00C0
0180
0180
0180
4200
4200
E200
A400
3400
1400
1800
0800
ENDCHAR
STARTCHAR 221D
ENCODING 8733
SWIDTH 1020 0
DWIDTH 17 0
BBX 13 8 1 2
BITMAP
3030
7878
CDC8
8780
8780
CDC8
7878
3030
ENDCHAR
STARTCHAR 221E
ENCODING 8734
SWIDTH 1020 0
DWIDTH 17 0
BBX 14 8 1 2
BITMAP
3030
7878
CDCC
8784
8784
CDCC
7878
3030
ENDCHAR
STARTCHAR 221F
ENCODING 8735
SWIDTH 1020 0
DWIDTH 17 0
BBX 13 13 2 1
BITMAP
8000
8000
8000
8000
8000
8000
8000
8000
8000
8000
8000
FFF8
FFF8
ENDCHAR
STARTCHAR 2220
ENCODING 8736
SWIDTH 1020 0
DWIDTH 17 0
BBX 11 11 3 1
BITMAP
0020
0060
00C0
0180
0700
0E00
1C00
3000
6000
FFE0
FFE0
ENDCHAR
STARTCHAR 2227
ENCODING 8743
SWIDTH 1020 0
DWIDTH 17 0
BBX 14 15 1 -1
BITMAP
0300
0300
0300
0580
0580
0840
0840
1020
1020
2010
2010
4008
4008
8004
8004
ENDCHAR
STARTCHAR 2228
ENCODING 8744
SWIDTH 1020 0
DWIDTH 17 0
BBX 14 15 1 -1
BITMAP
8004
8004
8004
4008
4008
2010
2010
1020
1020
0840
0840
0580
0580
0300
0300
ENDCHAR
STARTCHAR 2229
ENCODING 8745
SWIDTH 1020 0
DWIDTH 17 0
BBX 10 15 3 -1
BITMAP
1E00
1E00
3F00
6180
4080
8040
8040
8040
8040
8040
8040
8040
8040
8040
8040
ENDCHAR
STARTCHAR 222A
ENCODING 8746
SWIDTH 1020 0
DWIDTH 17 0
BBX 10 15 3 -1
BITMAP
8040
8040
8040
8040
8040
8040
8040
8040
8040
8040
8040
4080
6180
3F00
1E00
ENDCHAR
STARTCHAR 222B
ENCODING 8747
SWIDTH 1020 0
DWIDTH 17 0
BBX 5 17 6 -2
BITMAP
70
F8
F8
88
80
80
60
60
60
30
30
30
08
08
88
F8
70
ENDCHAR
STARTCHAR 222C
ENCODING 8748
SWIDTH 1020 0
DWIDTH 17 0
BBX 10 16 3 -1
BITMAP
6180
F7C0
F7C0
9640
9640
8600
4100
4100
2080
2080
2080
1040
9640
9640
F7C0
6180
ENDCHAR
STARTCHAR 222E
ENCODING 8750
SWIDTH 1020 0
DWIDTH 17 0
BBX 7 17 5 -2
BITMAP
38
7C
7C
44
40
40
7C
FE
B2
9A
FE
7C
04
04
44
7C
38
ENDCHAR
STARTCHAR 2234
ENCODING 8756
SWIDTH 1020 0
DWIDTH 17 0
BBX 12 9 2 2
BITMAP
0F00
0F00
0000
0000
0000
0000
0000
E070
E070
ENDCHAR
STARTCHAR 2235
ENCODING 8757
SWIDTH 1020 0
DWIDTH 17 0
BBX 11 10 3 1
BITMAP
C060
C060
0000
0000
0000
0000
0000
0000
0E00
0E00
ENDCHAR
STARTCHAR 223D
ENCODING 8765
SWIDTH 1020 0
DWIDTH 17 0
BBX 14 8 1 2
BITMAP
3030
7878
C9CC
8384
8704
CC4C
7878
3030
ENDCHAR
STARTCHAR 2252
ENCODING 8786
SWIDTH 1020 0
DWIDTH 17 0
BBX 12 15 2 -1
BITMAP
6000
6000
6000
0000
0000
FFF0
FFF0
0000
0000
FFF0
FFF0
0000
0000
0060
0060
ENDCHAR
STARTCHAR 2260
ENCODING 8800
SWIDTH 1020 0
DWIDTH 17 0
BBX 12 12 2 0
BITMAP
0040
00C0
0080
FFF0
FFF0
0600
0600
FFF0
FFF0
1000
3000
2000
ENDCHAR
STARTCHAR 2261
ENCODING 8801
SWIDTH 1020 0
DWIDTH 17 0
BBX 12 10 2 1
BITMAP
FFF0
FFF0
0000
0000
FFF0
FFF0
0000
0000
FFF0
FFF0
ENDCHAR
STARTCHAR 2266
ENCODING 8806
SWIDTH 1020 0
DWIDTH 17 0
BBX 12 14 2 0
BITMAP
0030
0030
03F0
1FC0
FE00
F000
3F00
0FC0
00F0
FFF0
FFF0
0000
FFF0
FFF0
ENDCHAR
STARTCHAR 2267
ENCODING 8807
SWIDTH 1020 0
DWIDTH 17 0
BBX 12 14 2 0
BITMAP
C000
C000
F800
3F80
07F0
00F0
0FC0
3F00
F000
FFF0
FFF0
0000
FFF0
FFF0
ENDCHAR
STARTCHAR 226A
ENCODING 8810
SWIDTH 1020 0
DWIDTH 17 0
BBX 13 14 2 0
BITMAP
0060
0060
00E0
0798
0F38
38E0
73C0
C700
73C0
38E0
0F38
0798
00E0
0060
ENDCHAR
STARTCHAR 226B
ENCODING 8811
SWIDTH 1020 0
DWIDTH 17 0
BBX 13 14 2 0
BITMAP
3000
3000
3800
CF00
E780
38E0
1E70
0718
1E70
38E0
E780
CF00
3800
3000
ENDCHAR
STARTCHAR 2282
ENCODING 8834
SWIDTH 1020 0
DWIDTH 17 0
BBX 12 10 2 1
BITMAP
3FF0
7FF0
C000
8000
8000
8000
8000
C000
7FF0
3FF0
ENDCHAR
STARTCHAR 2283
ENCODING 8835
SWIDTH 1020 0
DWIDTH 17 0
BBX 12 10 2 1
BITMAP
FFC0
FFE0
0030
0010
0010
0010
0010
0030
FFE0
FFC0
ENDCHAR
STARTCHAR 2286
ENCODING 8838
SWIDTH 1020 0
DWIDTH 17 0
BBX 12 12 2 0
BITMAP
3FF0
7FF0
C000
8000
8000
C000
7FF0
3FF0
0000
0000
FFF0
FFF0
ENDCHAR
STARTCHAR 2287
ENCODING 8839
SWIDTH 1020 0
DWIDTH 17 0
BBX 12 12 2 0
BITMAP
FFC0
FFE0
0030
0010
0010
0030
FFE0
FFC0
0000
0000
FFF0
FFF0
ENDCHAR
STARTCHAR 22A5
ENCODING 8869
SWIDTH 1020 0
DWIDTH 17 0
BBX 14 13 1 1
BITMAP
0300
0300
0300
0300
0300
0300
0300
0300
0300
0300
0300
FFFC
FFFC
ENDCHAR
STARTCHAR 22BF
ENCODING 8895
SWIDTH 1020 0
DWIDTH 17 0
BBX 12 13 2 1
BITMAP
0010
0010
0030
0070
00D0
0390
0710
0E10
1810
3010
6010
FFF0
FFF0
ENDCHAR
STARTCHAR 2312
ENCODING 8978
SWIDTH 1020 0
DWIDTH 17 0
BBX 14 5 1 7
BITMAP
0FC0
3FF0
7038
C00C
8004
ENDCHAR
STARTCHAR 2460
ENCODING 9312
SWIDTH 1020 0
DWIDTH 17 0
BBX 16 17 0 -2
BITMAP
07E0
1FF8
1FF8
381C
6186
4382
8381
8181
8181
8181
8181
8181
43C2
63C6
381C
1FF8
07E0
ENDCHAR
STARTCHAR 2461
ENCODING 9313
SWIDTH 1020 0
DWIDTH 17 0
BBX 16 17 0 -2
BITMAP
07E0
1FF8
1FF8
381C
67C6
4FE2
8821
88E1
81C1
8381
8601
8401
4FE2
6FE6
381C
1FF8
07E0
ENDCHAR
STARTCHAR 2462
ENCODING 9314
SWIDTH 1020 0
DWIDTH 17 0
BBX 16 17 0 -2
BITMAP
07E0
1FF8
1FF8
381C
67C6
4FE2
8821
8821
83C1
83E1
8821
8821
4FE2
67C6
381C
1FF8
07E0
ENDCHAR
STARTCHAR 2463
ENCODING 9315
SWIDTH 1020 0
DWIDTH 17 0
BBX 16 17 0 -2
BITMAP
07E0
1FF8
1FF8
381C
61C6
41C2
82C1
82C1
84C1
8FF1
8FF1
80C1
41E2
61E6
381C
1FF8
07E0
ENDCHAR
STARTCHAR 2464
ENCODING 9316
SWIDTH 1020 0
DWIDTH 17 0
BBX 16 17 0 -2
BITMAP
07E0
1FF8
1FF8
381C
6FE6
4FE2
8801
8801
8FC1
8FE1
8021
8821
4FE2
67C6
381C
1FF8
07E0
ENDCHAR
STARTCHAR 2465
ENCODING 9317
SWIDTH 1020 0
DWIDTH 17 0
BBX 16 17 0 -2
BITMAP
07E0
1FF8
1FF8
381C
67C6
4FE2
8821
8801
8FC1
8FE1
8821
8821
4FE2
67C6
381C
1FF8
07E0
ENDCHAR
STARTCHAR 2466
ENCODING 9318
SWIDTH 1020 0
DWIDTH 17 0
BBX 16 17 0 -2
BITMAP
07E0
1FF8
1FF8
381C
6FE6
4FE2
8821
8821
80C1
80C1
8181
8181
4382
6386
381C
1FF8
07E0
ENDCHAR
STARTCHAR 2467
ENCODING 9319
SWIDTH 1020 0
DWIDTH 17 0
BBX 16 17 0 -2
BITMAP
07E0
1FF8
1FF8
381C
67C6
4FE2
8821
8821
87C1
8FE1
8821
8821
4FE2
67C6
381C
1FF8
07E0
ENDCHAR
STARTCHAR 2468
ENCODING 9320
SWIDTH 1020 0
DWIDTH 17 0
BBX 16 17 0 -2
BITMAP
07E0
1FF8
1FF8
381C
67C6
4FE2
8821
8821
8FE1
87E1
8021
8821
4FE2
67C6
381C
1FF8
07E0
ENDCHAR
STARTCHAR 2469
ENCODING 9321
SWIDTH 1020 0
DWIDTH 17 0
BBX 16 17 0 -2
BITMAP
07E0
1FF8
1FF8
381C
68F6
59FA
9989
8989
8989
8989
8989
8989
5DFA
7CF6
381C
1FF8
07E0
ENDCHAR
STARTCHAR 246A
ENCODING 9322
SWIDTH 1020 0
DWIDTH 17 0
BBX 16 17 0 -2
BITMAP
07E0
1FF8
1FF8
381C
6426
4CE2
8CE1
8421
8421
8421
8421
8421
4EF2
6EF6
381C
1FF8
07E0
ENDCHAR
STARTCHAR 246B
ENCODING 9323
SWIDTH 1020 0
DWIDTH 17 0
BBX 16 17 0 -2
BITMAP
07E0
1FF8
1FF8
381C
68F6
59FA
9989
8999
8831
88E1
89C1
8981
5DFA
7DFE
381C
1FF8
07E0
ENDCHAR
STARTCHAR 246C
ENCODING 9324
SWIDTH 1020 0
DWIDTH 17 0
BBX 16 17 0 -2
BITMAP
07E0
1FF8
1FF8
381C
68F6
59FA
9989
8809
88F1
88F9
8809
8989
5DFA
7CF6
381C
1FF8
07E0
ENDCHAR
STARTCHAR 246D
ENCODING 9325
SWIDTH 1020 0
DWIDTH 17 0
BBX 16 17 0 -2
BITMAP
07E0
1FF8
1FF8
381C
6836
5832
98D1
88D1
8991
8BF9
8BF9
8811
5C3A
7C3E
381C
1FF8
07E0
ENDCHAR
STARTCHAR 246E
ENCODING 9326
SWIDTH 1020 0
DWIDTH 17 0
BBX 16 17 0 -2
BITMAP
07E0
1FF8
1FF8
381C
69F6
59F2
9981
8981
89F1
89F9
8809
8989
5DFA
7CF6
381C
1FF8
07E0
ENDCHAR
STARTCHAR 246F
ENCODING 9327
SWIDTH 1020 0
DWIDTH 17 0
BBX 16 17 0 -2
BITMAP
07E0
1FF8
1FF8
381C
68F6
59FA
9989
8981
89F1
89F9
8989
8989
5DFA
7CF6
381C
1FF8
07E0
ENDCHAR
STARTCHAR 2470
ENCODING 9328
SWIDTH 1020 0
DWIDTH 17 0
BBX 16 17 0 -2
BITMAP
07E0
1FF8
1FF8
381C
69FE
59FA
9809
8811
8811
8811
8821
8821
5CE2
7CE6
381C
1FF8
07E0
ENDCHAR
STARTCHAR 2471
ENCODING 9329
SWIDTH 1020 0
DWIDTH 17 0
BBX 16 17 0 -2
BITMAP
07E0
1FF8
1FF8
381C
68F6
59FA
9989
8989
88F1
89F9
8989
8989
5DFA
7CF6
381C
1FF8
07E0
ENDCHAR
STARTCHAR 2472
ENCODING 9330
SWIDTH 1020 0
DWIDTH 17 0
BBX 16 17 0 -2
BITMAP
07E0
1FF8
1FF8
381C
68F6
59FA
9989
8989
89F9
88F9
8809
8989
5DFA
7CF6
381C
1FF8
07E0
ENDCHAR
STARTCHAR 2473
ENCODING 9331
SWIDTH 1020 0
DWIDTH 17 0
BBX 16 17 0 -2
BITMAP
07E0
1FF8
1FF8
381C
6C36
5EFA
92C9
82C9
86C9
8CC9
98C9
90C9
5EFA
7E36
381C
1FF8
07E0
ENDCHAR
STARTCHAR 2581
ENCODING 9601
SWIDTH 1020 0
DWIDTH 17 0
BBX 7 17 0 -2
BITMAP
C0
C0
C0
60
60
60
30
30
30
18
18
18
0C
0C
0C
06
06
ENDCHAR
STARTCHAR 2582
ENCODING 9602
SWIDTH 1020 0
DWIDTH 17 0
BBX 7 4 0 10
BITMAP
72
72
FE
8C
ENDCHAR
STARTCHAR 2583
ENCODING 9603
SWIDTH 1020 0
DWIDTH 17 0
BBX 1 11 3 1
BITMAP
80
80
80
80
00
00
00
80
80
80
80
ENDCHAR
STARTCHAR 2587
ENCODING 9607
SWIDTH 1020 0
DWIDTH 17 0
BBX 7 16 0 -1
BITMAP
30
14
14
1C
70
20
20
58
6A
CE
88
18
20
20
24
1C
ENDCHAR
STARTCHAR 2588
ENCODING 9608
SWIDTH 1020 0
DWIDTH 17 0
BBX 7 10 0 -2
BITMAP
20
28
F8
24
3E
64
BA
92
AA
4C
ENDCHAR
STARTCHAR 2589
ENCODING 9609
SWIDTH 1020 0
DWIDTH 17 0
BBX 7 10 0 -2
BITMAP
30
10
16
18
10
10
70
98
96
62
ENDCHAR
STARTCHAR 258A
ENCODING 9610
SWIDTH 1020 0
DWIDTH 17 0
BBX 7 10 0 -2
BITMAP
10
C8
5C
AA
CA
AA
DC
10
10
20
ENDCHAR
STARTCHAR 258B
ENCODING 9611
SWIDTH 1020 0
DWIDTH 17 0
BBX 7 10 0 -2
BITMAP
0C
68
4C
32
EA
2C
20
10
10
10
ENDCHAR
STARTCHAR 258C
ENCODING 9612
SWIDTH 1020 0
DWIDTH 17 0
BBX 7 9 0 -1
BITMAP
24
22
FA
20
20
3C
62
A2
6C
ENDCHAR
STARTCHAR 258D
ENCODING 9613
SWIDTH 1020 0
DWIDTH 17 0
BBX 7 11 0 -2
BITMAP
20
18
04
5C
64
08
10
30
28
C8
8E
ENDCHAR
STARTCHAR 258E
ENCODING 9614
SWIDTH 1020 0
DWIDTH 17 0
BBX 6 11 0 -2
BITMAP
20
18
00
B8
C4
04
04
08
08
10
20
ENDCHAR
STARTCHAR 258F
ENCODING 9615
SWIDTH 1020 0
DWIDTH 17 0
BBX 7 8 0 -1
BITMAP
80
84
82
82
86
50
60
20
ENDCHAR
STARTCHAR 25A0
ENCODING 9632
SWIDTH 1020 0
DWIDTH 17 0
BBX 16 16 0 -1
BITMAP
FFFF
FFFF
FFFF
FFFF
FFFF
FFFF
FFFF
FFFF
FFFF
FFFF
FFFF
FFFF
FFFF
FFFF
FFFF
FFFF
ENDCHAR
STARTCHAR 25A1
ENCODING 9633
SWIDTH 1020 0
DWIDTH 17 0
BBX 16 16 0 -1
BITMAP
FFFF
FFFF
FFFF
8001
8001
8001
8001
8001
8001
8001
8001
8001
8001
8001
FFFF
FFFF
ENDCHAR
STARTCHAR 25B2
ENCODING 9650
SWIDTH 1020 0
DWIDTH 17 0
BBX 16 16 0 -1
BITMAP
0180
0180
0180
03C0
03C0
07E0
07E0
0FF0
0FF0
1FF8
1FF8
3FFC
3FFC
7FFE
7FFE
FFFF
ENDCHAR
STARTCHAR 25B3
ENCODING 9651
SWIDTH 1020 0
DWIDTH 17 0
BBX 16 16 0 -1
BITMAP
0180
0180
0180
02C0
02C0
0420
0420
0810
0810
1008
1008
2004
2004
4002
4002
FFFF
ENDCHAR
STARTCHAR 25BC
ENCODING 9660
SWIDTH 1020 0
DWIDTH 17 0
BBX 16 16 0 -2
BITMAP
FFFF
FFFF
7FFE
7FFE
3FFC
3FFC
1FF8
1FF8
0FF0
0FF0
07E0
07E0
03C0
03C0
0180
0180
ENDCHAR
STARTCHAR 25BD
ENCODING 9661
SWIDTH 1020 0
DWIDTH 17 0
BBX 16 16 0 -2
BITMAP
FFFF
FFFF
4002
4002
2004
2004
1008
1008
0810
0810
0420
0420
02C0
02C0
0180
0180
ENDCHAR
STARTCHAR 25C6
ENCODING 9670
SWIDTH 1020 0
DWIDTH 17 0
BBX 16 16 0 -1
BITMAP
0180
03C0
03C0
07E0
0FF0
1FF8
3FFC
7FFE
FFFF
7FFE
3FFC
1FF8
0FF0
07E0
03C0
0180
ENDCHAR
STARTCHAR 25C7
ENCODING 9671
SWIDTH 1020 0
DWIDTH 17 0
BBX 16 16 0 -1
BITMAP
0180
03C0
03C0
06E0
0C30
1818
300C
6006
C003
6006
300C
1818
0C30
06E0
03C0
0180
ENDCHAR
STARTCHAR 25CB
ENCODING 9675
SWIDTH 1020 0
DWIDTH 17 0
BBX 16 16 0 -1
BITMAP
07E0
1FF8
1FF8
381C
6006
4002
8001
8001
8001
8001
8001
4002
6006
381C
1FF8
07E0
ENDCHAR
STARTCHAR 25CE
ENCODING 9678
SWIDTH 1020 0
DWIDTH 17 0
BBX 16 16 0 -1
BITMAP
07E0
1FF8
1FF8
381C
6006
47E2
8FF1
9819
9009
9819
8FF1
47E2
6006
381C
1FF8
07E0
ENDCHAR
STARTCHAR 25CF
ENCODING 9679
SWIDTH 1020 0
DWIDTH 17 0
BBX 16 16 0 -1
BITMAP
07E0
1FF8
1FF8
3FFC
7FFE
7FFE
FFFF
FFFF
FFFF
FFFF
FFFF
7FFE
7FFE
3FFC
1FF8
07E0
ENDCHAR
STARTCHAR 25EF
ENCODING 9711
SWIDTH 1020 0
DWIDTH 17 0
BBX 16 16 0 -1
BITMAP
07E0
1FF8
1FF8
381C
6006
4002
C001
8001
8001
8001
8001
4002
6006
381C
1FF8
07E0
ENDCHAR
STARTCHAR 2605
ENCODING 9733
SWIDTH 1020 0
DWIDTH 17 0
BBX 16 16 0 -1
BITMAP
0180
0180
0180
03C0
03C0
07E0
FFFF
FFFF
3FFC
07E0
0FF0
0FF0
1EF8
1C38
381C
2004
ENDCHAR
STARTCHAR 2606
ENCODING 9734
SWIDTH 1020 0
DWIDTH 17 0
BBX 16 16 0 -1
BITMAP
0180
0180
0180
02C0
02C0
FEFF
FC3F
6006
300C
1C38
0C30
0990
1BD8
16E8
3C3C
381C
ENDCHAR
STARTCHAR 2640
ENCODING 9792
SWIDTH 1020 0
DWIDTH 17 0
BBX 12 16 2 -1
BITMAP
0F00
1F80
1F80
30C0
2040
30C0
1F80
0F00
0600
FFF0
FFF0
0600
0600
0600
0600
0600
ENDCHAR
STARTCHAR 2642
ENCODING 9794
SWIDTH 1020 0
DWIDTH 17 0
BBX 15 15 0 -1
BITMAP
00FE
00FE
00FE
000E
001A
0032
00E2
01C0
3B80
7E00
C600
8200
C600
7C00
3800
ENDCHAR
STARTCHAR 266A
ENCODING 9834
SWIDTH 1020 0
DWIDTH 17 0
BBX 11 15 2 -1
BITMAP
0600
0600
0700
0780
06C0
0660
0620
0620
06E0
06C0
1E00
7E00
F800
F800
6000
ENDCHAR
STARTCHAR 266D
ENCODING 9837
SWIDTH 1020 0
DWIDTH 17 0
BBX 7 15 4 -1
BITMAP
80
80
80
80
80
B8
FC
CE
8E
8C
9C
B8
E0
C0
80
ENDCHAR
STARTCHAR 266F
ENCODING 9839
SWIDTH 1020 0
DWIDTH 17 0
BBX 10 15 3 -1
BITMAP
0100
0100
2100
21C0
3FC0
FF00
E100
2100
2100
21C0
3FC0
FF00
E100
2100
2000
ENDCHAR
STARTCHAR 3000
ENCODING 12288
SWIDTH 1020 0
DWIDTH 17 0
BBX 0 0 0 0
BITMAP
ENDCHAR
STARTCHAR 3001
ENCODING 12289
SWIDTH 1020 0
DWIDTH 17 0
BBX 4 5 0 -1
BITMAP
80
C0
60
30
30
ENDCHAR
STARTCHAR 3002
ENCODING 12290
SWIDTH 1020 0
DWIDTH 17 0
BBX 5 5 0 -1
BITMAP
70
F8
88
F8
70
ENDCHAR
STARTCHAR 3003
ENCODING 12291
SWIDTH 1020 0
DWIDTH 17 0
BBX 8 6 3 4
BITMAP
21
21
21
46
CE
8C
ENDCHAR
STARTCHAR 3005
ENCODING 12293
SWIDTH 1020 0
DWIDTH 17 0
BBX 13 14 0 0
BITMAP
0200
0200
0200
0200
07F8
07F8
0C10
1830
3020
E6C0
C7C0
01C0
00E0
0020
ENDCHAR
STARTCHAR 3006
ENCODING 12294
SWIDTH 1020 0
DWIDTH 17 0
BBX 13 16 1 -1
BITMAP
0008
0008
0008
0018
0030
0860
1DC0
3780
2700
4D80
5980
B180
A000
C000
C000
8000
ENDCHAR
STARTCHAR 3007
ENCODING 12295
SWIDTH 1020 0
DWIDTH 17 0
BBX 16 14 0 0
BITMAP
07E0
07E0
1FF8
381C
6006
4002
8001
8001
8001
4002
6006
381C
1FF8
07E0
ENDCHAR
STARTCHAR 3008
ENCODING 12296
SWIDTH 1020 0
DWIDTH 17 0
BBX 5 16 10 -1
BITMAP
08
18
18
10
30
60
40
C0
80
C0
40
60
30
10
18
08
ENDCHAR
STARTCHAR 3009
ENCODING 12297
SWIDTH 1020 0
DWIDTH 17 0
BBX 5 16 2 -1
BITMAP
80
C0
C0
40
60
30
10
18
08
18
10
30
60
40
C0
80
ENDCHAR
STARTCHAR 300A
ENCODING 12298
SWIDTH 1020 0
DWIDTH 17 0
BBX 9 16 6 -1
BITMAP
0480
0D80
0D80
0900
3B00
3600
7400
EC00
8800
EC00
7400
3600
3B00
0900
0D80
0480
ENDCHAR
STARTCHAR 300B
ENCODING 12299
SWIDTH 1020 0
DWIDTH 17 0
BBX 9 16 2 -1
BITMAP
9000
D800
D800
4800
6E00
3600
1700
1B80
0880
1B80
1700
3600
6E00
4800
D800
9000
ENDCHAR
STARTCHAR 300C
ENCODING 12300
SWIDTH 1020 0
DWIDTH 17 0
BBX 5 14 10 1
BITMAP
F8
F8
F8
80
80
80
80
80
80
80
80
80
80
80
ENDCHAR
STARTCHAR 300D
ENCODING 12301
SWIDTH 1020 0
DWIDTH 17 0
BBX 5 12 1 -1
BITMAP
08
08
08
08
08
08
08
08
08
08
F8
F8
ENDCHAR
STARTCHAR 300E
ENCODING 12302
SWIDTH 1020 0
DWIDTH 17 0
BBX 7 14 8 1
BITMAP
FE
FE
FE
C2
C2
DE
DE
D0
D0
D0
D0
D0
F0
F0
ENDCHAR
STARTCHAR 300F
ENCODING 12303
SWIDTH 1020 0
DWIDTH 17 0
BBX 6 12 1 -1
BITMAP
1C
1C
14
14
14
14
F4
F4
84
84
FC
FC
ENDCHAR
STARTCHAR 3010
ENCODING 12304
SWIDTH 1020 0
DWIDTH 17 0
BBX 5 16 10 -1
BITMAP
F8
F8
F8
E0
E0
C0
C0
C0
C0
C0
C0
C0
E0
E0
F8
F8
ENDCHAR
STARTCHAR 3011
ENCODING 12305
SWIDTH 1020 0
DWIDTH 17 0
BBX 5 16 2 -1
BITMAP
F8
F8
F8
38
38
18
18
18
18
18
18
18
38
38
F8
F8
ENDCHAR
STARTCHAR 3012
ENCODING 12306
SWIDTH 1020 0
DWIDTH 17 0
BBX 15 15 0 -1
BITMAP
FFFE
FFFE
FFFE
0000
0000
FFFE
FFFE
0380
0380
0380
0380
0380
0380
0380
0380
ENDCHAR
STARTCHAR 3013
ENCODING 12307
SWIDTH 1020 0
DWIDTH 17 0
BBX 12 7 2 3
BITMAP
FFF0
FFF0
0000
0000
0000
FFF0
FFF0
ENDCHAR
STARTCHAR 3014
ENCODING 12308
SWIDTH 1020 0
DWIDTH 17 0
BBX 4 16 11 -1
BITMAP
30
F0
F0
C0
80
80
80
80
80
80
80
80
80
C0
F0
30
ENDCHAR
STARTCHAR 3015
ENCODING 12309
SWIDTH 1020 0
DWIDTH 17 0
BBX 4 16 2 -1
BITMAP
C0
F0
F0
30
10
10
10
10
10
10
10
10
10
30
F0
C0
ENDCHAR
STARTCHAR 301C
ENCODING 12316
SWIDTH 1020 0
DWIDTH 17 0
BBX 16 6 0 3
BITMAP
3C00
7E00
C381
81C3
00FE
003C
ENDCHAR
STARTCHAR 301D
ENCODING 12317
SWIDTH 1020 0
DWIDTH 17 0
BBX 5 4 10 10
BITMAP
48
48
D8
90
ENDCHAR
STARTCHAR 301F
ENCODING 12319
SWIDTH 1020 0
DWIDTH 17 0
BBX 5 3 1 -1
BITMAP
48
D8
90
ENDCHAR
STARTCHAR 3041
ENCODING 12353
SWIDTH 1020 0
DWIDTH 17 0
BBX 10 11 3 -1
BITMAP
1000
1F00
7F00
7000
1F00
7F80
F6C0
9C40
FCC0
E780
0700
ENDCHAR
STARTCHAR 3042
ENCODING 12354
SWIDTH 1020 0
DWIDTH 17 0
BBX 13 16 2 -1
BITMAP
0E00
0E00
0E00
07C0
7FC0
7E00
0880
0FE0
1FF0
3B98
6B08
CF08
9E18
F630
E3E0
03C0
ENDCHAR
STARTCHAR 3043
ENCODING 12355
SWIDTH 1020 0
DWIDTH 17 0
BBX 12 8 2 -1
BITMAP
8080
C0C0
4060
4030
4030
6000
3000
3000
ENDCHAR
STARTCHAR 3044
ENCODING 12356
SWIDTH 1020 0
DWIDTH 17 0
BBX 14 12 1 0
BITMAP
8000
C020
4030
4018
4018
400C
400C
600C
6000
3000
3000
1000
ENDCHAR
STARTCHAR 3045
ENCODING 12357
SWIDTH 1020 0
DWIDTH 17 0
BBX 7 11 5 -1
BITMAP
7C
7C
00
38
FC
C6
02
02
06
7C
78
ENDCHAR
STARTCHAR 3046
ENCODING 12358
SWIDTH 1020 0
DWIDTH 17 0
BBX 9 16 3 -1
BITMAP
2000
3E00
3E00
1E00
0000
0000
1E00
FF00
E180
0080
0080
0180
0100
0700
3E00
3C00
ENDCHAR
STARTCHAR 3047
ENCODING 12359
SWIDTH 1020 0
DWIDTH 17 0
BBX 10 10 3 -1
BITMAP
1E00
1E00
0000
7F00
7F00
0E00
1C00
7600
E7C0
C1C0
ENDCHAR
STARTCHAR 3048
ENCODING 12360
SWIDTH 1020 0
DWIDTH 17 0
BBX 13 16 2 -1
BITMAP
1000
1F80
1F80
0F80
0000
0F80
7F80
7700
0E00
0800
1E00
3700
2300
6300
C3F8
C0F8
ENDCHAR
STARTCHAR 3049
ENCODING 12361
SWIDTH 1020 0
DWIDTH 17 0
BBX 10 10 3 -1
BITMAP
3000
3EC0
FEC0
F000
2F80
7FC0
F0C0
ACC0
EF80
6700
ENDCHAR
STARTCHAR 304A
ENCODING 12362
SWIDTH 1020 0
DWIDTH 17 0
BBX 14 16 1 -1
BITMAP
3000
3000
3000
1010
1F18
FF0C
F00C
1000
11F0
17F8
1F0C
3804
F004
D18C
71F8
3070
ENDCHAR
STARTCHAR 304B
ENCODING 12363
SWIDTH 1020 0
DWIDTH 17 0
BBX 16 16 0 -1
BITMAP
0C00
0C00
0C00
0400
0400
1F88
FFCC
E8C6
08C6
18C3
10C3
31C3
2180
6B80
CE00
8C00
ENDCHAR
STARTCHAR 304C
ENCODING 12364
SWIDTH 1020 0
DWIDTH 17 0
BBX 16 16 0 -1
BITMAP
0C00
0C02
0C02
040B
040D
1F84
FFC8
E8CC
08C6
18C3
10C3
31C3
2180
6B80
CE00
8C00
ENDCHAR
STARTCHAR 304D
ENCODING 12365
SWIDTH 1020 0
DWIDTH 17 0
BBX 10 16 4 -1
BITMAP
3800
3800
3800
1980
FF80
FE00
0CC0
FFC0
FF00
0180
7EC0
FFC0
80C0
8000
FF00
7F00
ENDCHAR
STARTCHAR 304E
ENCODING 12366
SWIDTH 1020 0
DWIDTH 17 0
BBX 13 16 3 -1
BITMAP
3010
3058
3058
1768
FF20
FC00
0CC0
FFC0
FF00
0180
7EC0
FFC0
80C0
8000
FF00
7F00
ENDCHAR
STARTCHAR 304F
ENCODING 12367
SWIDTH 1020 0
DWIDTH 17 0
BBX 8 17 3 -2
BITMAP
0E
0E
0E
0E
1C
30
60
C0
80
C0
60
30
1C
0E
07
07
01
ENDCHAR
STARTCHAR 3050
ENCODING 12368
SWIDTH 1020 0
DWIDTH 17 0
BBX 12 17 3 -2
BITMAP
0E00
0E00
0E00
0E00
1C20
30B0
60D0
C040
8000
C000
6000
3000
1C00
0E00
0700
0700
0100
ENDCHAR
STARTCHAR 3051
ENCODING 12369
SWIDTH 1020 0
DWIDTH 17 0
BBX 15 16 1 -1
BITMAP
0060
C060
C060
C020
4020
4020
403E
C7FE
87E0
8020
8020
8020
C060
C040
63C0
6380
ENDCHAR
STARTCHAR 3052
ENCODING 12370
SWIDTH 1020 0
DWIDTH 17 0
BBX 15 16 1 -1
BITMAP
0064
C076
C076
C03A
4028
4020
403E
C7FE
87E0
8020
8020
8020
C060
C040
63C0
6380
ENDCHAR
STARTCHAR 3053
ENCODING 12371
SWIDTH 1020 0
DWIDTH 17 0
BBX 12 12 2 0
BITMAP
2000
3FC0
1FC0
0000
0000
4000
C000
8000
8000
C000
7FF0
3FF0
ENDCHAR
STARTCHAR 3054
ENCODING 12372
SWIDTH 1020 0
DWIDTH 17 0
BBX 13 15 2 0
BITMAP
0010
0058
0058
2068
3FA0
1F80
0000
0000
4000
C000
8000
8000
C000
7FF0
3FF0
ENDCHAR
STARTCHAR 3055
ENCODING 12373
SWIDTH 1020 0
DWIDTH 17 0
BBX 11 16 2 -1
BITMAP
1800
1800
1800
0800
0E20
86E0
FFC0
7F00
0380
00C0
3F60
7FE0
40E0
4000
7F80
3F80
ENDCHAR
STARTCHAR 3056
ENCODING 12374
SWIDTH 1020 0
DWIDTH 17 0
BBX 14 16 2 -1
BITMAP
1808
182C
182C
0834
0E10
86E0
FFE0
7F00
0380
00C0
3F60
7FE0
40E0
4000
7F80
3F80
ENDCHAR
STARTCHAR 3057
ENCODING 12375
SWIDTH 1020 0
DWIDTH 17 0
BBX 12 16 3 -1
BITMAP
C000
C000
C000
4000
4000
4000
4000
4000
4000
4000
4010
4030
4060
41C0
7F80
3E00
ENDCHAR
STARTCHAR 3058
ENCODING 12376
SWIDTH 1020 0
DWIDTH 17 0
BBX 12 16 3 -1
BITMAP
C000
C000
C000
4040
4160
41A0
4080
4000
4000
4000
4010
4030
4060
41C0
7F80
3E00
ENDCHAR
STARTCHAR 3059
ENCODING 12377
SWIDTH 1020 0
DWIDTH 17 0
BBX 16 16 0 -1
BITMAP
01C0
01C0
01C0
00C0
00C0
07FF
FFFF
F8C0
07C0
0FC0
08C0
0FC0
06C0
01C0
0F80
0E00
ENDCHAR
STARTCHAR 305A
ENCODING 12378
SWIDTH 1020 0
DWIDTH 17 0
BBX 16 16 0 -1
BITMAP
01C2
01CB
01CB
00CD
00C4
07FF
FFFF
F8C0
07C0
0FC0
08C0
0FC0
06C0
01C0
0F80
0E00
ENDCHAR
STARTCHAR 305B
ENCODING 12379
SWIDTH 1020 0
DWIDTH 17 0
BBX 16 15 0 -1
BITMAP
00E0
00E0
18E0
1820
0820
08FF
0FFF
FFA0
F820
08E0
08E0
0800
0C00
07F8
03F8
ENDCHAR
STARTCHAR 305C
ENCODING 12380
SWIDTH 1020 0
DWIDTH 17 0
BBX 16 16 0 -1
BITMAP
0002
00EB
00EB
18ED
1824
0820
08FF
0FFF
FFA0
F820
08E0
08E0
0800
0C00
07F8
03F8
ENDCHAR
STARTCHAR 305D
ENCODING 12381
SWIDTH 1020 0
DWIDTH 17 0
BBX 13 15 1 -1
BITMAP
07C0
07C0
3FC0
3B80
0700
0400
0FF8
FFF8
F380
0700
0400
0400
0700
07C0
03C0
ENDCHAR
STARTCHAR 305E
ENCODING 12382
SWIDTH 1020 0
DWIDTH 17 0
BBX 15 15 1 -1
BITMAP
07C4
07C4
3FD6
3B9A
0708
0400
0FF8
FFF8
F380
0700
0400
0400
0700
07C0
03C0
ENDCHAR
STARTCHAR 305F
ENCODING 12383
SWIDTH 1020 0
DWIDTH 17 0
BBX 13 15 1 -1
BITMAP
3000
3000
3000
1000
1C00
FC60
F078
2018
2000
2000
6300
4300
C380
C1F8
0078
ENDCHAR
STARTCHAR 3060
ENCODING 12384
SWIDTH 1020 0
DWIDTH 17 0
BBX 15 16 1 -1
BITMAP
0004
3016
3016
301A
1008
1C00
FC60
F078
2018
2000
2000
6300
4300
C380
C1F8
0078
ENDCHAR
STARTCHAR 3061
ENCODING 12385
SWIDTH 1020 0
DWIDTH 17 0
BBX 13 16 1 -1
BITMAP
1800
1800
1800
0800
0FC0
FFC0
F800
1000
33E0
2FF0
3C18
3008
0018
0070
07E0
0780
ENDCHAR
STARTCHAR 3062
ENCODING 12386
SWIDTH 1020 0
DWIDTH 17 0
BBX 14 16 1 -1
BITMAP
1800
1808
1808
082C
0FB4
FF90
F800
1000
33E0
2FF0
3C18
3008
0018
0070
07E0
0780
ENDCHAR
STARTCHAR 3063
ENCODING 12387
SWIDTH 1020 0
DWIDTH 17 0
BBX 11 8 2 -1
BITMAP
0FC0
3FE0
F020
C020
0060
00C0
0F80
0F00
ENDCHAR
STARTCHAR 3064
ENCODING 12388
SWIDTH 1020 0
DWIDTH 17 0
BBX 14 10 1 0
BITMAP
07F0
3FF8
F80C
C004
0004
0004
000C
0038
07F0
07C0
ENDCHAR
STARTCHAR 3065
ENCODING 12389
SWIDTH 1020 0
DWIDTH 17 0
BBX 15 15 1 0
BITMAP
0004
0016
0016
001A
0008
07F0
3FF8
F80C
C004
0004
0004
000C
0038
07F0
07C0
ENDCHAR
STARTCHAR 3066
ENCODING 12390
SWIDTH 1020 0
DWIDTH 17 0
BBX 15 14 0 0
BITMAP
01FE
01FE
0FFE
FEE0
F1C0
0380
0200
0600
0400
0400
0400
0600
03F8
01F8
ENDCHAR
STARTCHAR 3067
ENCODING 12391
SWIDTH 1020 0
DWIDTH 17 0
BBX 16 14 0 0
BITMAP
01FC
01FC
0FFC
FEE2
F1CB
038D
0204
0600
0400
0400
0400
0600
03F8
01F8
ENDCHAR
STARTCHAR 3068
ENCODING 12392
SWIDTH 1020 0
DWIDTH 17 0
BBX 9 16 4 -1
BITMAP
6000
6000
6000
2000
2000
2000
2380
1F80
3C00
6000
C000
8000
8000
C000
7F80
3F80
ENDCHAR
STARTCHAR 3069
ENCODING 12393
SWIDTH 1020 0
DWIDTH 17 0
BBX 12 16 3 -1
BITMAP
6020
60B0
60B0
20D0
2040
2000
2780
1F80
3C00
6000
C000
8000
8000
C000
7F80
3F80
ENDCHAR
STARTCHAR 306A
ENCODING 12394
SWIDTH 1020 0
DWIDTH 17 0
BBX 14 16 1 -1
BITMAP
1800
1800
1800
0830
0F38
FF0C
F03C
1070
3040
2040
6040
C7E0
CFF8
085C
0FC4
0780
ENDCHAR
STARTCHAR 306B
ENCODING 12395
SWIDTH 1020 0
DWIDTH 17 0
BBX 13 15 2 -1
BITMAP
C000
C000
C000
47E0
47F0
4010
C000
8000
8000
8000
8600
8700
C3F8
C0F8
4000
ENDCHAR
STARTCHAR 306C
ENCODING 12396
SWIDTH 1020 0
DWIDTH 17 0
BBX 15 15 1 -1
BITMAP
0700
0700
0700
2300
27F0
2FF8
3B0C
3704
7404
5404
CDEC
9BF8
F31C
63F6
01E2
ENDCHAR
STARTCHAR 306D
ENCODING 12397
SWIDTH 1020 0
DWIDTH 17 0
BBX 15 16 1 -1
BITMAP
3000
3000
3000
1000
1000
1DF0
FFF8
F70C
1C04
1804
3004
71EC
D3F8
D31C
33F6
31E2
ENDCHAR
STARTCHAR 306E
ENCODING 12398
SWIDTH 1020 0
DWIDTH 17 0
BBX 14 12 1 0
BITMAP
07E0
1FF0
3B18
630C
470C
C404
8C04
880C
980C
D018
71F0
61E0
ENDCHAR
STARTCHAR 306F
ENCODING 12399
SWIDTH 1020 0
DWIDTH 17 0
BBX 15 15 1 -1
BITMAP
C060
C060
C060
4020
403C
4FFC
CFE0
8020
8020
8020
87E0
8FF8
C83C
CFE6
47C2
ENDCHAR
STARTCHAR 3070
ENCODING 12400
SWIDTH 1020 0
DWIDTH 17 0
BBX 15 16 1 -1
BITMAP
0004
C1D6
C1D6
C1DA
4048
4040
4FF8
CFF8
8040
8040
8040
87C0
8FF0
C878
CFCC
4784
ENDCHAR
STARTCHAR 3071
ENCODING 12401
SWIDTH 1020 0
DWIDTH 17 0
BBX 15 16 1 -1
BITMAP
000C
C1DE
C1DE
C1D2
405E
404C
4FF8
CFF8
8040
8040
8040
87C0
8FF0
C878
CFCC
4784
ENDCHAR
STARTCHAR 3072
ENCODING 12402
SWIDTH 1020 0
DWIDTH 17 0
BBX 15 13 1 -1
BITMAP
0420
1C20
F830
F030
3038
202C
602E
4066
4040
41C0
6380
3F00
1C00
ENDCHAR
STARTCHAR 3073
ENCODING 12403
SWIDTH 1020 0
DWIDTH 17 0
BBX 16 15 0 -1
BITMAP
0002
0002
042B
1C2D
F834
F030
3038
202C
602E
40E6
40C0
41C0
6380
3E00
1C00
ENDCHAR
STARTCHAR 3074
ENCODING 12404
SWIDTH 1020 0
DWIDTH 17 0
BBX 16 15 0 -1
BITMAP
0006
0006
042F
1C29
F83F
F036
3038
202C
602E
40E6
40C0
41C0
6380
3E00
1C00
ENDCHAR
STARTCHAR 3075
ENCODING 12405
SWIDTH 1020 0
DWIDTH 17 0
BBX 16 16 0 -1
BITMAP
0200
0380
0380
01E0
01E0
0380
0600
0400
0780
03F8
0EFE
18C7
30C3
E4C1
C7C0
0380
ENDCHAR
STARTCHAR 3076
ENCODING 12406
SWIDTH 1020 0
DWIDTH 17 0
BBX 16 16 0 -1
BITMAP
0200
0380
0380
01E2
01EB
038D
0604
0400
0780
03F8
0EFE
18C7
30C3
E4C1
C7C0
0380
ENDCHAR
STARTCHAR 3077
ENCODING 12407
SWIDTH 1020 0
DWIDTH 17 0
BBX 16 16 0 -1
BITMAP
0200
0380
0380
01E6
01EF
0389
060F
0406
0780
03F8
0EFE
18C7
30C3
E4C1
C7C0
0380
ENDCHAR
STARTCHAR 3078
ENCODING 12408
SWIDTH 1020 0
DWIDTH 17 0
BBX 16 10 0 1
BITMAP
0C00
0E00
1B80
11C0
30E0
2030
E018
C00C
0007
0003
ENDCHAR
STARTCHAR 3079
ENCODING 12409
SWIDTH 1020 0
DWIDTH 17 0
BBX 16 13 0 1
BITMAP
0008
0008
002C
0C34
0E10
1B80
11C0
30E0
2030
E018
C00C
0007
0003
ENDCHAR
STARTCHAR 307A
ENCODING 12410
SWIDTH 1020 0
DWIDTH 17 0
BBX 16 13 0 1
BITMAP
0018
0018
003C
0C24
0E3C
1B98
11C0
30E0
2030
E018
C00C
0007
0003
ENDCHAR
STARTCHAR 307B
ENCODING 12411
SWIDTH 1020 0
DWIDTH 17 0
BBX 14 15 1 -1
BITMAP
C01C
C01C
C7FC
47E0
4020
403C
C7FC
87E0
8020
8020
83E0
87F8
C43C
67E4
63C0
ENDCHAR
STARTCHAR 307C
ENCODING 12412
SWIDTH 1020 0
DWIDTH 17 0
BBX 15 16 1 -1
BITMAP
0004
C016
C016
C7FA
47EC
4024
4020
C7FC
87FC
8020
8020
83E0
87F8
C43C
67E4
63C0
ENDCHAR
STARTCHAR 307D
ENCODING 12413
SWIDTH 1020 0
DWIDTH 17 0
BBX 15 16 1 -1
BITMAP
000C
C01E
C01E
C7F2
47FE
402C
4020
C7FC
87FC
8020
8020
83E0
87F8
C43C
67E4
63C0
ENDCHAR
STARTCHAR 307E
ENCODING 12414
SWIDTH 1020 0
DWIDTH 17 0
BBX 12 16 2 -1
BITMAP
0E00
0E00
0E00
06E0
FFE0
FF00
06E0
7FE0
7F00
0600
0600
7F00
FFC0
86F0
FE30
7800
ENDCHAR
STARTCHAR 307F
ENCODING 12415
SWIDTH 1020 0
DWIDTH 17 0
BBX 15 13 1 -1
BITMAP
0700
3F80
3B80
0730
0430
0C10
3F90
7FF0
C87C
982E
F062
E3C0
0380
ENDCHAR
STARTCHAR 3080
ENCODING 12416
SWIDTH 1020 0
DWIDTH 17 0
BBX 14 16 1 -1
BITMAP
1800
1800
1800
0F10
FF18
F80C
100C
7000
F000
9010
9018
F008
6008
2018
3FF0
1FE0
ENDCHAR
STARTCHAR 3081
ENCODING 12417
SWIDTH 1020 0
DWIDTH 17 0
BBX 14 14 1 0
BITMAP
0700
0700
0700
2300
27F0
2FF8
3B0C
3704
6404
5C04
D80C
9C18
F5F0
61E0
ENDCHAR
STARTCHAR 3082
ENCODING 12418
SWIDTH 1020 0
DWIDTH 17 0
BBX 11 16 2 -1
BITMAP
0E00
0E00
0E00
0600
8E00
C800
7B00
3B80
90C0
B040
FE60
7E20
2020
3060
1FC0
0F80
ENDCHAR
STARTCHAR 3083
ENCODING 12419
SWIDTH 1020 0
DWIDTH 17 0
BBX 13 11 1 -1
BITMAP
0700
0780
1180
3BF0
2FF8
3C08
F198
C9F0
0C60
0700
0700
ENDCHAR
STARTCHAR 3084
ENCODING 12420
SWIDTH 1020 0
DWIDTH 17 0
BBX 16 16 0 -1
BITMAP
0180
01E0
01E0
00F0
1C10
3EFC
23FE
3783
1C01
38E3
ECFE
C61C
0380
0380
01C0
01C0
ENDCHAR
STARTCHAR 3085
ENCODING 12421
SWIDTH 1020 0
DWIDTH 17 0
BBX 11 11 3 -1
BITMAP
CC00
DE00
5F80
DFC0
B660
F660
D660
DFC0
4F80
3C00
3000
ENDCHAR
STARTCHAR 3086
ENCODING 12422
SWIDTH 1020 0
DWIDTH 17 0
BBX 14 15 1 -1
BITMAP
0380
0380
C7C0
CC70
4BF8
4FCC
CC44
9844
BC44
A44C
E7F8
C3F0
4180
0F80
0F00
ENDCHAR
STARTCHAR 3087
ENCODING 12423
SWIDTH 1020 0
DWIDTH 17 0
BBX 10 11 3 -1
BITMAP
1C00
1C00
0D80
0F80
0E00
0C00
7E00
FF80
8DC0
FC40
7000
ENDCHAR
STARTCHAR 3088
ENCODING 12424
SWIDTH 1020 0
DWIDTH 17 0
BBX 12 16 2 -1
BITMAP
0E00
0E00
0E00
0600
0600
0660
07E0
0780
0600
0600
0600
7F00
FFC0
86F0
FE30
7800
ENDCHAR
STARTCHAR 3089
ENCODING 12425
SWIDTH 1020 0
DWIDTH 17 0
BBX 11 16 3 -1
BITMAP
0C00
0E00
0E00
0700
1700
3000
6000
4000
4F80
7FC0
F060
C020
0060
01C0
1F80
1E00
ENDCHAR
STARTCHAR 308A
ENCODING 12426
SWIDTH 1020 0
DWIDTH 17 0
BBX 10 15 3 -1
BITMAP
C000
C000
C700
4F80
DCC0
D040
B040
A040
A040
C040
C0C0
0080
0180
1F00
1E00
ENDCHAR
STARTCHAR 308B
ENCODING 12427
SWIDTH 1020 0
DWIDTH 17 0
BBX 12 15 2 -1
BITMAP
4F00
4F00
7F80
3380
0700
0E00
1800
37C0
7FE0
E030
CE10
1F10
1330
1FE0
0FC0
ENDCHAR
STARTCHAR 308C
ENCODING 12428
SWIDTH 1020 0
DWIDTH 17 0
BBX 15 16 1 -1
BITMAP
3000
3000
3000
1000
1060
19F0
3BB0
F710
DC10
1830
3020
7022
D026
D03C
3018
3000
ENDCHAR
STARTCHAR 308D
ENCODING 12429
SWIDTH 1020 0
DWIDTH 17 0
BBX 12 15 2 -1
BITMAP
4700
4700
7F80
3B80
0700
0E00
1800
3FC0
7FE0
E030
8010
0030
00E0
1FC0
1F00
ENDCHAR
STARTCHAR 308E
ENCODING 12430
SWIDTH 1020 0
DWIDTH 17 0
BBX 11 10 2 -1
BITMAP
3000
3000
1B80
FFC0
FE60
3020
7020
D660
F7C0
3380
ENDCHAR
STARTCHAR 308F
ENCODING 12431
SWIDTH 1020 0
DWIDTH 17 0
BBX 14 16 1 -1
BITMAP
3000
3000
3000
1000
1000
1C00
FDF0
F7F8
1F0C
1804
3004
700C
D018
D1F0
31E0
3000
ENDCHAR
STARTCHAR 3090
ENCODING 12432
SWIDTH 1020 0
DWIDTH 17 0
BBX 14 15 1 -1
BITMAP
07C0
07C0
3FC0
3B80
0700
0C00
1FF0
3FF8
680C
5804
D384
B7CC
E478
C7F0
03C0
ENDCHAR
STARTCHAR 3091
ENCODING 12433
SWIDTH 1020 0
DWIDTH 17 0
BBX 16 16 0 -1
BITMAP
01E0
0FE0
0FE0
0EE0
01C0
03F0
07F8
0E08
0818
07F0
0FE0
181C
3C3E
7EE3
C3C1
C381
ENDCHAR
STARTCHAR 3092
ENCODING 12434
SWIDTH 1020 0
DWIDTH 17 0
BBX 12 16 2 -1
BITMAP
1800
1800
1800
0F80
FF80
F800
1000
3830
EEF0
C7C0
0F00
1E00
3600
2000
3FE0
1FE0
ENDCHAR
STARTCHAR 3093
ENCODING 12435
SWIDTH 1020 0
DWIDTH 17 0
BBX 14 15 1 -1
BITMAP
0700
0700
0700
0400
0C00
0C00
0800
1800
1000
3C04
3F04
630C
4318
C3F0
C1E0
ENDCHAR
STARTCHAR 309B
ENCODING 12443
SWIDTH 1020 0
DWIDTH 17 0
BBX 4 5 0 10
BITMAP
20
B0
B0
D0
40
ENDCHAR
STARTCHAR 309C
ENCODING 12444
SWIDTH 1020 0
DWIDTH 17 0
BBX 4 6 0 9
BITMAP
60
F0
F0
90
F0
60
ENDCHAR
STARTCHAR 309D
ENCODING 12445
SWIDTH 1020 0
DWIDTH 17 0
BBX 8 10 5 1
BITMAP
80
80
40
70
38
1C
06
1F
7D
71
ENDCHAR
STARTCHAR 309E
ENCODING 12446
SWIDTH 1020 0
DWIDTH 17 0
BBX 8 13 4 1
BITMAP
02
02
03
8D
8E
42
60
38
1C
0E
1F
7D
61
ENDCHAR
STARTCHAR 30A1
ENCODING 12449
SWIDTH 1020 0
DWIDTH 17 0
BBX 10 9 3 -1
BITMAP
0FC0
FFC0
F180
1700
1E00
0C00
0C00
3C00
3000
ENDCHAR
STARTCHAR 30A2
ENCODING 12450
SWIDTH 1020 0
DWIDTH 17 0
BBX 13 12 2 -1
BITMAP
07F8
FFF8
F830
0760
07C0
0380
0300
0300
0700
0600
1E00
1800
ENDCHAR
STARTCHAR 30A3
ENCODING 12451
SWIDTH 1020 0
DWIDTH 17 0
BBX 8 9 3 -1
BITMAP
07
07
0E
1C
3C
EC
CC
1C
1C
ENDCHAR
STARTCHAR 30A4
ENCODING 12452
SWIDTH 1020 0
DWIDTH 17 0
BBX 11 15 2 -1
BITMAP
0060
0060
0060
00C0
0380
0700
0E00
3E00
F600
C600
0600
0600
0600
0E00
0E00
ENDCHAR
STARTCHAR 30A5
ENCODING 12453
SWIDTH 1020 0
DWIDTH 17 0
BBX 10 10 3 -1
BITMAP
1C00
1C00
CFC0
FFC0
7040
40C0
4080
0180
1F00
1E00
ENDCHAR
STARTCHAR 30A6
ENCODING 12454
SWIDTH 1020 0
DWIDTH 17 0
BBX 12 15 2 -1
BITMAP
0E00
0E00
0E00
0600
C7F0
FFF0
7830
4020
4020
4060
4040
00C0
0380
0F00
0E00
ENDCHAR
STARTCHAR 30A7
ENCODING 12455
SWIDTH 1020 0
DWIDTH 17 0
BBX 10 8 3 0
BITMAP
0780
7F80
7C00
0C00
0C00
0FC0
FFC0
F000
ENDCHAR
STARTCHAR 30A8
ENCODING 12456
SWIDTH 1020 0
DWIDTH 17 0
BBX 14 10 1 1
BITMAP
01F0
3FF0
3F00
0300
0300
0300
0300
03FC
FFFC
FC00
ENDCHAR
STARTCHAR 30A9
ENCODING 12457
SWIDTH 1020 0
DWIDTH 17 0
BBX 11 11 2 -1
BITMAP
0700
0700
0300
07E0
7FE0
7F00
1B00
1300
3B00
EF00
C700
ENDCHAR
STARTCHAR 30AA
ENCODING 12458
SWIDTH 1020 0
DWIDTH 17 0
BBX 14 15 1 -1
BITMAP
01C0
01C0
01C0
0040
03FC
7FFC
7B40
0740
0440
0C40
1840
3340
E3C0
C1C0
01C0
ENDCHAR
STARTCHAR 30AB
ENCODING 12459
SWIDTH 1020 0
DWIDTH 17 0
BBX 13 15 1 -1
BITMAP
0700
0700
0700
0300
0300
07F8
7FF8
7C18
0C10
0810
1830
3020
6360
C3C0
8380
ENDCHAR
STARTCHAR 30AC
ENCODING 12460
SWIDTH 1020 0
DWIDTH 17 0
BBX 16 15 0 -1
BITMAP
0602
0602
060B
020D
0204
07F8
7FF8
7C18
0C10
0810
1830
3020
62E0
C3C0
8380
ENDCHAR
STARTCHAR 30AD
ENCODING 12461
SWIDTH 1020 0
DWIDTH 17 0
BBX 12 15 3 -1
BITMAP
1C00
1C00
1C00
0C00
0FC0
FFC0
FE00
0600
06F0
1FF0
FF00
E700
0100
0100
0100
ENDCHAR
STARTCHAR 30AE
ENCODING 12462
SWIDTH 1020 0
DWIDTH 17 0
BBX 14 16 2 -1
BITMAP
0008
182C
182C
1834
0810
0FC0
FFC0
FE00
0600
06F0
1FF0
FF00
E700
0300
0300
0300
ENDCHAR
STARTCHAR 30AF
ENCODING 12463
SWIDTH 1020 0
DWIDTH 17 0
BBX 10 13 3 -1
BITMAP
1C00
1C00
1FC0
3FC0
30C0
6080
C180
8100
0700
0E00
3C00
F000
C000
ENDCHAR
STARTCHAR 30B0
ENCODING 12464
SWIDTH 1020 0
DWIDTH 17 0
BBX 14 16 2 -1
BITMAP
0008
002C
002C
1834
1810
1FC0
3FC0
30C0
6080
C380
8300
0700
0E00
3800
F000
C000
ENDCHAR
STARTCHAR 30B1
ENCODING 12465
SWIDTH 1020 0
DWIDTH 17 0
BBX 12 13 2 -1
BITMAP
3000
3000
13F0
1FF0
3E80
2080
E080
C380
0300
0700
1E00
7800
6000
ENDCHAR
STARTCHAR 30B2
ENCODING 12466
SWIDTH 1020 0
DWIDTH 17 0
BBX 15 16 1 -1
BITMAP
0004
0016
0016
301A
3008
13F0
1FF0
3D80
2180
E180
C380
0300
0700
1C00
7800
6000
ENDCHAR
STARTCHAR 30B3
ENCODING 12467
SWIDTH 1020 0
DWIDTH 17 0
BBX 10 10 3 0
BITMAP
07C0
FFC0
FC40
0040
00C0
0080
0080
0F80
FF80
F080
ENDCHAR
STARTCHAR 30B4
ENCODING 12468
SWIDTH 1020 0
DWIDTH 17 0
BBX 14 14 2 0
BITMAP
0008
0008
002C
0034
07D0
FFC0
F840
0040
00C0
0080
0080
0F80
FF80
F080
ENDCHAR
STARTCHAR 30B5
ENCODING 12469
SWIDTH 1020 0
DWIDTH 17 0
BBX 14 15 1 -1
BITMAP
01C0
01C0
19C0
1840
0840
0FFC
FFFC
F840
0840
0840
01C0
0180
0380
0F00
0C00
ENDCHAR
STARTCHAR 30B6
ENCODING 12470
SWIDTH 1020 0
DWIDTH 17 0
BBX 15 16 1 -1
BITMAP
0004
01D6
01D6
19DA
1848
0840
0FFC
FFFC
F840
0840
0840
01C0
0180
0380
0F00
0C00
ENDCHAR
STARTCHAR 30B7
ENCODING 12471
SWIDTH 1020 0
DWIDTH 17 0
BBX 13 12 2 0
BITMAP
4000
7800
3800
0008
8018
F030
7060
00C0
0780
1F00
F800
E000
ENDCHAR
STARTCHAR 30B8
ENCODING 12472
SWIDTH 1020 0
DWIDTH 17 0
BBX 14 14 2 0
BITMAP
0008
0008
402C
7834
3810
0000
8010
F030
7060
00C0
0780
1F00
F800
E000
ENDCHAR
STARTCHAR 30B9
ENCODING 12473
SWIDTH 1020 0
DWIDTH 17 0
BBX 12 11 2 0
BITMAP
07C0
7FC0
78C0
0080
0380
0300
0780
0EC0
3860
F030
C030
ENDCHAR
STARTCHAR 30BA
ENCODING 12474
SWIDTH 1020 0
DWIDTH 17 0
BBX 14 15 2 0
BITMAP
0008
002C
002C
0034
07D0
7FC0
78C0
0080
0380
0300
0780
0EC0
3860
F030
C030
ENDCHAR
STARTCHAR 30BB
ENCODING 12475
SWIDTH 1020 0
DWIDTH 17 0
BBX 13 14 1 0
BITMAP
1800
1800
1800
1800
0800
0BF8
1FF8
FC30
E9E0
09C0
0800
0C00
07F8
03F8
ENDCHAR
STARTCHAR 30BC
ENCODING 12476
SWIDTH 1020 0
DWIDTH 17 0
BBX 15 15 1 0
BITMAP
0004
1816
1816
181A
1808
0800
0BF8
1FF8
FC30
E9E0
09C0
0800
0C00
07F8
03F8
ENDCHAR
STARTCHAR 30BD
ENCODING 12477
SWIDTH 1020 0
DWIDTH 17 0
BBX 11 13 2 -1
BITMAP
0060
8060
C020
6020
6060
0040
00C0
0080
0380
0700
1E00
7800
6000
ENDCHAR
STARTCHAR 30BE
ENCODING 12478
SWIDTH 1020 0
DWIDTH 17 0
BBX 14 16 2 -1
BITMAP
0008
002C
002C
0034
80D0
C0C0
6040
6040
0040
00C0
0080
0380
0700
1E00
7800
6000
ENDCHAR
STARTCHAR 30BF
ENCODING 12479
SWIDTH 1020 0
DWIDTH 17 0
BBX 10 13 3 -1
BITMAP
1C00
1C00
1FC0
3FC0
30C0
7080
DD80
8F00
0700
0E00
3C00
F000
C000
ENDCHAR
STARTCHAR 30C0
ENCODING 12480
SWIDTH 1020 0
DWIDTH 17 0
BBX 14 16 2 -1
BITMAP
0008
002C
002C
1834
1810
1FC0
3FC0
30C0
7080
DB80
8F00
0700
0E00
3800
F000
C000
ENDCHAR
STARTCHAR 30C1
ENCODING 12481
SWIDTH 1020 0
DWIDTH 17 0
BBX 13 15 2 -1
BITMAP
0060
0060
07E0
7F80
7E00
0700
03F8
FFF8
FF00
0300
0700
0600
0E00
3800
3000
ENDCHAR
STARTCHAR 30C2
ENCODING 12482
SWIDTH 1020 0
DWIDTH 17 0
BBX 14 15 2 -1
BITMAP
00C8
00C8
07EC
7F34
7E10
0700
03F8
FFF8
FF00
0300
0700
0600
0E00
3800
3000
ENDCHAR
STARTCHAR 30C3
ENCODING 12483
SWIDTH 1020 0
DWIDTH 17 0
BBX 9 9 3 -1
BITMAP
1180
9D80
CC80
4180
0100
0700
0E00
3C00
3000
ENDCHAR
STARTCHAR 30C4
ENCODING 12484
SWIDTH 1020 0
DWIDTH 17 0
BBX 12 13 1 -1
BITMAP
1030
1830
8C10
CC10
6030
6020
0060
0040
01C0
0380
0F00
3C00
3000
ENDCHAR
STARTCHAR 30C5
ENCODING 12485
SWIDTH 1020 0
DWIDTH 17 0
BBX 15 16 1 -1
BITMAP
0004
0016
0016
101A
1868
8C60
CC20
6020
6020
0060
0040
01C0
0380
0F00
3C00
3000
ENDCHAR
STARTCHAR 30C6
ENCODING 12486
SWIDTH 1020 0
DWIDTH 17 0
BBX 13 15 2 -1
BITMAP
07E0
07E0
7FE0
7800
0000
03F8
FFF8
FF00
0300
0300
0700
0600
0E00
3800
3000
ENDCHAR
STARTCHAR 30C7
ENCODING 12487
SWIDTH 1020 0
DWIDTH 17 0
BBX 15 15 1 -1
BITMAP
07C4
07C4
7FD6
781A
0008
03F0
FFF0
FF00
0300
0300
0700
0400
0C00
3800
3000
ENDCHAR
STARTCHAR 30C8
ENCODING 12488
SWIDTH 1020 0
DWIDTH 17 0
BBX 9 15 4 -1
BITMAP
C000
C000
C000
4000
4000
4000
7C00
7F00
4380
4080
4000
4000
4000
4000
4000
ENDCHAR
STARTCHAR 30C9
ENCODING 12489
SWIDTH 1020 0
DWIDTH 17 0
BBX 11 15 4 -1
BITMAP
C040
C040
C160
41A0
4080
4000
7C00
7F00
4380
4080
4000
4000
4000
4000
4000
ENDCHAR
STARTCHAR 30CA
ENCODING 12490
SWIDTH 1020 0
DWIDTH 17 0
BBX 14 15 1 -1
BITMAP
0380
0380
0380
0180
0180
07FC
FFFC
F980
0180
0180
0380
0300
0700
1C00
1800
ENDCHAR
STARTCHAR 30CB
ENCODING 12491
SWIDTH 1020 0
DWIDTH 17 0
BBX 14 10 1 1
BITMAP
03E0
3FE0
3C00
0000
0000
0000
0000
07FC
FFFC
F800
ENDCHAR
STARTCHAR 30CC
ENCODING 12492
SWIDTH 1020 0
DWIDTH 17 0
BBX 12 12 2 0
BITMAP
03E0
7FE0
7E60
0040
18C0
1E80
0780
0780
0EC0
3860
F030
C010
ENDCHAR
STARTCHAR 30CD
ENCODING 12493
SWIDTH 1020 0
DWIDTH 17 0
BBX 12 16 2 -1
BITMAP
0800
0F00
0F00
0700
0000
0FC0
7FC0
7080
0380
0740
0F60
3B30
F310
C300
0700
0700
ENDCHAR
STARTCHAR 30CE
ENCODING 12494
SWIDTH 1020 0
DWIDTH 17 0
BBX 10 12 2 0
BITMAP
00C0
00C0
0040
0040
00C0
0080
0380
0700
0E00
3800
F000
C000
ENDCHAR
STARTCHAR 30CF
ENCODING 12495
SWIDTH 1020 0
DWIDTH 17 0
BBX 14 11 1 0
BITMAP
1800
1840
0860
0830
1818
1018
300C
200C
600C
C000
8000
ENDCHAR
STARTCHAR 30D0
ENCODING 12496
SWIDTH 1020 0
DWIDTH 17 0
BBX 15 14 1 0
BITMAP
0004
0004
0016
181A
1848
0860
0830
1818
1018
300C
200C
600C
C000
8000
ENDCHAR
STARTCHAR 30D1
ENCODING 12497
SWIDTH 1020 0
DWIDTH 17 0
BBX 15 14 1 0
BITMAP
000C
000C
001E
1812
185E
086C
0830
1818
1018
300C
200C
600C
C000
8000
ENDCHAR
STARTCHAR 30D2
ENCODING 12498
SWIDTH 1020 0
DWIDTH 17 0
BBX 10 12 3 0
BITMAP
C000
C000
4000
41C0
7FC0
7E00
4000
4000
4000
6000
3FC0
1FC0
ENDCHAR
STARTCHAR 30D3
ENCODING 12499
SWIDTH 1020 0
DWIDTH 17 0
BBX 13 14 3 0
BITMAP
0010
0010
C058
C068
4020
4180
7F80
7E00
4000
4000
4000
6000
3FC0
1FC0
ENDCHAR
STARTCHAR 30D4
ENCODING 12500
SWIDTH 1020 0
DWIDTH 17 0
BBX 13 14 3 0
BITMAP
0030
0030
C078
C048
4078
41B0
7F80
7E00
4000
4000
4000
6000
3FC0
1FC0
ENDCHAR
STARTCHAR 30D5
ENCODING 12501
SWIDTH 1020 0
DWIDTH 17 0
BBX 10 11 3 0
BITMAP
07C0
FFC0
FC40
0040
00C0
0080
0180
0700
1E00
7C00
6000
ENDCHAR
STARTCHAR 30D6
ENCODING 12502
SWIDTH 1020 0
DWIDTH 17 0
BBX 14 14 2 0
BITMAP
0008
0008
002C
07B4
FFD0
F840
0040
00C0
0080
0380
0700
1E00
7800
6000
ENDCHAR
STARTCHAR 30D7
ENCODING 12503
SWIDTH 1020 0
DWIDTH 17 0
BBX 14 15 2 0
BITMAP
0018
003C
003C
0024
07BC
FFD8
F840
0040
00C0
0080
0380
0700
1E00
7800
6000
ENDCHAR
STARTCHAR 30D8
ENCODING 12504
SWIDTH 1020 0
DWIDTH 17 0
BBX 15 8 1 2
BITMAP
0C00
1F00
1380
31C0
6060
E038
C01E
0006
ENDCHAR
STARTCHAR 30D9
ENCODING 12505
SWIDTH 1020 0
DWIDTH 17 0
BBX 15 12 1 2
BITMAP
0010
0010
0058
0068
0C20
1F00
1380
31C0
6060
E038
C01E
0006
ENDCHAR
STARTCHAR 30DA
ENCODING 12506
SWIDTH 1020 0
DWIDTH 17 0
BBX 15 12 1 2
BITMAP
0030
0030
0078
0048
0C78
1F30
1380
31C0
6060
E038
C01E
0006
ENDCHAR
STARTCHAR 30DB
ENCODING 12507
SWIDTH 1020 0
DWIDTH 17 0
BBX 14 15 1 -1
BITMAP
0700
0700
0700
0300
03F8
7FF8
7F00
0300
0320
2330
2318
630C
CB0C
8F00
0700
ENDCHAR
STARTCHAR 30DC
ENCODING 12508
SWIDTH 1020 0
DWIDTH 17 0
BBX 15 16 1 -1
BITMAP
0004
0716
0716
071A
0308
03F0
7FF0
7F00
0300
0320
2330
2318
630C
CB0C
8F00
0700
ENDCHAR
STARTCHAR 30DD
ENCODING 12509
SWIDTH 1020 0
DWIDTH 17 0
BBX 15 16 1 -1
BITMAP
000C
071E
071E
0712
031E
03FC
7FF0
7F00
0300
0320
2330
2318
630C
CB0C
8F00
0700
ENDCHAR
STARTCHAR 30DE
ENCODING 12510
SWIDTH 1020 0
DWIDTH 17 0
BBX 12 10 2 0
BITMAP
07F0
FFF0
F860
00C0
0380
3300
3E00
0F00
0380
0080
ENDCHAR
STARTCHAR 30DF
ENCODING 12511
SWIDTH 1020 0
DWIDTH 17 0
BBX 10 13 3 -1
BITMAP
7C00
7F80
07C0
0040
7C00
7F00
0780
0080
F000
FE00
0F80
01C0
0040
ENDCHAR
STARTCHAR 30E0
ENCODING 12512
SWIDTH 1020 0
DWIDTH 17 0
BBX 13 14 2 0
BITMAP
0E00
0E00
0E00
0600
0600
0E00
0800
0880
18C0
1060
3030
23F0
FFF8
FE18
ENDCHAR
STARTCHAR 30E1
ENCODING 12513
SWIDTH 1020 0
DWIDTH 17 0
BBX 11 14 2 0
BITMAP
00C0
00C0
00C0
0040
0040
30C0
3E80
0F80
0380
07C0
0E60
3860
F000
C000
ENDCHAR
STARTCHAR 30E2
ENCODING 12514
SWIDTH 1020 0
DWIDTH 17 0
BBX 14 14 1 0
BITMAP
01E0
01E0
3FE0
3F00
0400
0400
07FC
FFFC
FC00
0400
0400
0700
03F0
01F0
ENDCHAR
STARTCHAR 30E3
ENCODING 12515
SWIDTH 1020 0
DWIDTH 17 0
BBX 11 9 2 -1
BITMAP
3000
33E0
1FE0
3EC0
FB80
CF00
0600
0700
0300
ENDCHAR
STARTCHAR 30E4
ENCODING 12516
SWIDTH 1020 0
DWIDTH 17 0
BBX 14 15 1 -1
BITMAP
1800
1800
1800
0800
0C3C
05FC
0FD8
3F30
F360
C340
0380
0180
01C0
0040
0040
ENDCHAR
STARTCHAR 30E5
ENCODING 12517
SWIDTH 1020 0
DWIDTH 17 0
BBX 11 8 2 0
BITMAP
0780
3F80
3880
0380
0300
07E0
FFE0
F800
ENDCHAR
STARTCHAR 30E6
ENCODING 12518
SWIDTH 1020 0
DWIDTH 17 0
BBX 14 10 1 1
BITMAP
03C0
3FC0
3C40
01C0
0180
0180
0180
07FC
FFFC
F800
ENDCHAR
STARTCHAR 30E7
ENCODING 12519
SWIDTH 1020 0
DWIDTH 17 0
BBX 8 9 4 -1
BITMAP
1F
FF
E1
1F
7E
62
1E
FE
E2
ENDCHAR
STARTCHAR 30E8
ENCODING 12520
SWIDTH 1020 0
DWIDTH 17 0
BBX 10 12 3 0
BITMAP
0FC0
FFC0
F040
0040
0FC0
7F80
7080
0080
0080
0F80
FF80
F000
ENDCHAR
STARTCHAR 30E9
ENCODING 12521
SWIDTH 1020 0
DWIDTH 17 0
BBX 11 15 3 -1
BITMAP
0780
0780
7F80
7C00
0000
07E0
FFE0
FC40
0040
00C0
0080
0180
0F00
3E00
3000
ENDCHAR
STARTCHAR 30EA
ENCODING 12522
SWIDTH 1020 0
DWIDTH 17 0
BBX 9 15 3 -1
BITMAP
0180
0180
C180
C080
4080
4080
4080
4080
4080
4080
0180
0100
0700
1E00
1C00
ENDCHAR
STARTCHAR 30EB
ENCODING 12523
SWIDTH 1020 0
DWIDTH 17 0
BBX 15 12 1 0
BITMAP
0700
3700
3300
1300
1300
1302
1306
330C
2318
6370
C3E0
C380
ENDCHAR
STARTCHAR 30EC
ENCODING 12524
SWIDTH 1020 0
DWIDTH 17 0
BBX 12 12 3 0
BITMAP
C000
C000
4000
4000
4000
4010
4030
4060
41C0
4F80
7E00
7000
ENDCHAR
STARTCHAR 30ED
ENCODING 12525
SWIDTH 1020 0
DWIDTH 17 0
BBX 10 11 3 0
BITMAP
CFC0
FFC0
7040
4040
40C0
4080
4080
4080
7F80
7F80
4000
ENDCHAR
STARTCHAR 30EE
ENCODING 12526
SWIDTH 1020 0
DWIDTH 17 0
BBX 9 8 3 -1
BITMAP
CF80
FF80
7080
4080
4180
0700
1E00
1C00
ENDCHAR
STARTCHAR 30EF
ENCODING 12527
SWIDTH 1020 0
DWIDTH 17 0
BBX 11 11 2 0
BITMAP
C7E0
FFE0
7820
4020
4020
4060
0040
00C0
0380
1F00
1E00
ENDCHAR
STARTCHAR 30F0
ENCODING 12528
SWIDTH 1020 0
DWIDTH 17 0
BBX 13 15 2 -1
BITMAP
0700
0700
0700
0300
03F0
7FF0
7F00
1300
1300
17F8
FFF8
FB00
0300
0300
0300
ENDCHAR
STARTCHAR 30F1
ENCODING 12529
SWIDTH 1020 0
DWIDTH 17 0
BBX 14 10 1 1
BITMAP
03F0
3FF0
3C60
01C0
0780
0700
0300
03FC
FFFC
FC00
ENDCHAR
STARTCHAR 30F2
ENCODING 12530
SWIDTH 1020 0
DWIDTH 17 0
BBX 12 13 2 -1
BITMAP
07F0
FFF0
F830
0020
07E0
7FE0
7860
0040
00C0
0380
0F00
3E00
3000
ENDCHAR
STARTCHAR 30F3
ENCODING 12531
SWIDTH 1020 0
DWIDTH 17 0
BBX 13 12 2 0
BITMAP
4000
6000
3800
1808
0018
0030
0060
00C0
0780
1F00
F800
E000
ENDCHAR
STARTCHAR 30F4
ENCODING 12532
SWIDTH 1020 0
DWIDTH 17 0
BBX 15 16 1 -1
BITMAP
0004
0C16
0C16
0C1A
0408
C7E0
FFE0
7820
4020
4020
4060
0040
01C0
0380
0F00
0C00
ENDCHAR
STARTCHAR 30F5
ENCODING 12533
SWIDTH 1020 0
DWIDTH 17 0
BBX 10 10 3 -1
BITMAP
1C00
1C00
0FC0
FFC0
FC40
1CC0
1080
3180
EF00
CE00
ENDCHAR
STARTCHAR 30F6
ENCODING 12534
SWIDTH 1020 0
DWIDTH 17 0
BBX 11 11 2 -1
BITMAP
3000
3000
1000
3FE0
3FE0
E300
C300
0700
0E00
3800
3000
ENDCHAR
STARTCHAR 30FB
ENCODING 12539
SWIDTH 1020 0
DWIDTH 17 0
BBX 4 3 6 5
BITMAP
F0
F0
F0
ENDCHAR
STARTCHAR 30FC
ENCODING 12540
SWIDTH 1020 0
DWIDTH 17 0
BBX 14 3 1 6
BITMAP
8000
FFFC
7FFC
ENDCHAR
STARTCHAR 30FD
ENCODING 12541
SWIDTH 1020 0
DWIDTH 17 0
BBX 6 7 5 2
BITMAP
80
C0
70
38
18
1C
04
ENDCHAR
STARTCHAR 30FE
ENCODING 12542
SWIDTH 1020 0
DWIDTH 17 0
BBX 8 10 4 2
BITMAP
02
03
0D
8E
C2
60
38
18
1C
0C
ENDCHAR
STARTCHAR 3231
ENCODING 12849
SWIDTH 1020 0
DWIDTH 17 0
BBX 16 16 0 -1
BITMAP
1008
39AC
39AC
69A6
7FFA
BFF9
8C21
9FFD
BBFD
EAF1
C9F9
8BAD
4A26
6826
300C
1008
ENDCHAR
STARTCHAR 3232
ENCODING 12850
SWIDTH 1020 0
DWIDTH 17 0
BBX 16 16 0 -1
BITMAP
1008
320C
320C
6206
7FFA
BFF9
8401
8FE1
BFE1
B421
87E1
87E1
4422
65E6
35CC
1008
ENDCHAR
STARTCHAR 3239
ENCODING 12857
SWIDTH 1020 0
DWIDTH 17 0
BBX 16 16 0 -1
BITMAP
1008
34CC
34CC
64D6
48DA
8FFD
9FFD
B8C1
A8C1
88C1
8821
8821
4832
681E
300C
1008
ENDCHAR
STARTCHAR 32A4
ENCODING 12964
SWIDTH 1020 0
DWIDTH 17 0
BBX 16 17 0 -2
BITMAP
07E0
1FF8
1FF8
399C
6186
4182
81F1
81F1
8181
8181
8181
9FF9
5FFA
6006
381C
1FF8
07E0
ENDCHAR
STARTCHAR 32A5
ENCODING 12965
SWIDTH 1020 0
DWIDTH 17 0
BBX 16 17 0 -2
BITMAP
07E0
1FF8
1FF8
399C
6186
4182
9FF9
9FF9
9189
9189
9FF9
9FF9
4182
6186
399C
1FF8
07E0
ENDCHAR
STARTCHAR 32A6
ENCODING 12966
SWIDTH 1020 0
DWIDTH 17 0
BBX 16 17 0 -2
BITMAP
07E0
1FF8
1FF8
381C
6006
5FFA
9FF9
8181
81E1
81F1
8191
8181
4182
6186
399C
1FF8
07E0
ENDCHAR
STARTCHAR 32A7
ENCODING 12967
SWIDTH 1020 0
DWIDTH 17 0
BBX 16 17 0 -2
BITMAP
07E0
1FF8
1FF8
3A1C
6206
5FFA
9FF9
8401
87F1
8FF1
98C1
90C1
6FF2
6FFE
381C
1FF8
07E0
ENDCHAR
STARTCHAR 32A8
ENCODING 12968
SWIDTH 1020 0
DWIDTH 17 0
BBX 16 17 0 -2
BITMAP
07E0
1FF8
1FF8
3A1C
6206
5FFA
9FF9
8401
8FF1
9FF1
B411
A411
47F2
67F6
3C1C
1FF8
07E0
ENDCHAR
STARTCHAR 3303
ENCODING 13059
SWIDTH 1020 0
DWIDTH 17 0
BBX 16 15 0 -1
BITMAP
1F80
1F80
FF80
E6C0
1CFF
183F
1000
2000
6180
4580
0588
0598
09B0
19E0
11C0
ENDCHAR
STARTCHAR 330D
ENCODING 13069
SWIDTH 1020 0
DWIDTH 17 0
BBX 16 17 0 -2
BITMAP
1000
1027
1027
1E3F
FE39
F221
2222
623E
DC3E
9822
0400
44C0
44FF
443F
0800
3800
3000
ENDCHAR
STARTCHAR 3314
ENCODING 13076
SWIDTH 1020 0
DWIDTH 17 0
BBX 16 16 0 -1
BITMAP
1000
1000
1000
1C00
FC00
F000
1000
1E00
FE27
F03F
0839
0821
0822
083E
003E
0022
ENDCHAR
STARTCHAR 3318
ENCODING 13080
SWIDTH 1020 0
DWIDTH 17 0
BBX 15 16 0 -1
BITMAP
219C
25FC
25FC
3EE0
7F9E
C5FE
89E4
180C
3038
E1B0
C180
0180
0220
0230
1FF8
1E18
ENDCHAR
STARTCHAR 3322
ENCODING 13090
SWIDTH 1020 0
DWIDTH 17 0
BBX 16 17 0 -2
BITMAP
20C0
20F0
20F0
3E31
FE03
E4CE
21FC
3FB0
1EE0
07E0
0780
01FC
3FFC
3F80
0180
0780
0600
ENDCHAR
STARTCHAR 3323
ENCODING 13091
SWIDTH 1020 0
DWIDTH 17 0
BBX 16 17 0 -2
BITMAP
20C0
20F0
20F0
3E31
FE03
E4C6
20FC
3E38
1E00
0200
0200
03C0
03E0
0230
0210
0200
0200
ENDCHAR
STARTCHAR 3326
ENCODING 13094
SWIDTH 1020 0
DWIDTH 17 0
BBX 14 16 2 -1
BITMAP
8600
9700
9700
9B00
8800
F000
F800
8800
8040
8340
8340
8344
034C
0658
1E70
1860
ENDCHAR
STARTCHAR 3327
ENCODING 13095
SWIDTH 1020 0
DWIDTH 17 0
BBX 13 15 3 0
BITMAP
8000
8000
8000
8000
8000
F000
FC00
8C00
8600
8780
8188
8018
0C70
0FE0
0780
ENDCHAR
STARTCHAR 332B
ENCODING 13099
SWIDTH 1020 0
DWIDTH 17 0
BBX 16 16 0 -1
BITMAP
03C0
0BC0
0BC0
2FE0
243F
461F
C200
8200
0000
4208
5BC8
F9CE
E82F
50E9
7BC8
3B88
ENDCHAR
STARTCHAR 3336
ENCODING 13110
SWIDTH 1020 0
DWIDTH 17 0
BBX 16 17 0 -2
BITMAP
0020
103C
103C
183C
2CE4
67C8
4398
0030
00E0
40C4
7814
7814
CBD5
BBD7
3036
6024
4000
ENDCHAR
STARTCHAR 333B
ENCODING 13115
SWIDTH 1020 0
DWIDTH 17 0
BBX 15 16 1 -1
BITMAP
0780
0780
0780
37C0
387E
4C3E
C400
8300
0B08
0F2C
1734
1C10
0C20
11E0
1FC0
0F00
ENDCHAR
STARTCHAR 3349
ENCODING 13129
SWIDTH 1020 0
DWIDTH 17 0
BBX 15 16 0 -2
BITMAP
7000
7000
7C00
0C00
0000
6002
7822
1822
0022
E022
F822
1C02
0402
0004
001C
0018
ENDCHAR
STARTCHAR 334A
ENCODING 13130
SWIDTH 1020 0
DWIDTH 17 0
BBX 16 17 0 -2
BITMAP
3804
3C24
3C24
0424
3824
3C24
0404
7808
7C38
0430
0A04
2F94
3594
53D5
4BD7
C836
8824
ENDCHAR
STARTCHAR 334D
ENCODING 13133
SWIDTH 1020 0
DWIDTH 17 0
BBX 16 17 0 -2
BITMAP
0400
0400
0400
6800
7980
19FF
2CFF
E400
C008
2028
2028
3829
3E2B
26CE
21CC
2188
2000
ENDCHAR
STARTCHAR 3351
ENCODING 13137
SWIDTH 1020 0
DWIDTH 17 0
BBX 15 17 1 -2
BITMAP
0800
8800
8800
8800
8844
8B64
8BA8
1198
7070
6060
2000
3810
3C52
2456
205C
21D8
2190
ENDCHAR
STARTCHAR 3357
ENCODING 13143
SWIDTH 1020 0
DWIDTH 17 0
BBX 14 16 1 -2
BITMAP
9F00
9F00
FF00
E324
85B4
8DD4
3848
3018
0470
0460
0400
07C0
07E0
0420
0400
0400
ENDCHAR
STARTCHAR 337B
ENCODING 13179
SWIDTH 1020 0
DWIDTH 17 0
BBX 16 12 0 0
BITMAP
0004
7E06
7EFF
54FF
54C4
FFF5
FFF7
10D6
10F4
11AE
139B
1211
ENDCHAR
STARTCHAR 337C
ENCODING 13180
SWIDTH 1020 0
DWIDTH 17 0
BBX 16 12 0 0
BITMAP
1E08
1EF8
EAF0
EA27
BFFF
F5FD
EE25
AEF5
EBFF
EFAF
0E25
0A20
ENDCHAR
STARTCHAR 337D
ENCODING 13181
SWIDTH 1020 0
DWIDTH 17 0
BBX 16 14 0 0
BITMAP
1000
1000
11FE
11FE
FE10
FE10
10DE
10DE
28D0
28D0
28D0
45FF
C7FF
8200
ENDCHAR
STARTCHAR 337E
ENCODING 13182
SWIDTH 1020 0
DWIDTH 17 0
BBX 16 15 0 -1
BITMAP
00C4
00C4
0EE4
EE24
EACA
AEEB
EE3F
EA1D
AE00
EE2F
EA2F
0A29
12CF
3ECF
2CC9
ENDCHAR
STARTCHAR 338E
ENCODING 13198
SWIDTH 1020 0
DWIDTH 17 0
BBX 13 10 2 -1
BITMAP
F068
F8F8
A898
A888
A898
A8F8
A868
A888
00F8
0070
ENDCHAR
STARTCHAR 338F
ENCODING 13199
SWIDTH 1020 0
DWIDTH 17 0
BBX 13 15 2 -1
BITMAP
8000
8000
8000
8000
8000
8868
98F8
B098
E088
E098
B0F8
9868
8888
00F8
0070
ENDCHAR
STARTCHAR 339C
ENCODING 13212
SWIDTH 1020 0
DWIDTH 17 0
BBX 13 8 2 1
BITMAP
F0F0
F8F8
A8A8
A8A8
A8A8
A8A8
A8A8
A8A8
ENDCHAR
STARTCHAR 339D
ENCODING 13213
SWIDTH 1020 0
DWIDTH 17 0
BBX 13 8 2 1
BITMAP
70F0
F8F8
88A8
80A8
80A8
88A8
F8A8
70A8
ENDCHAR
STARTCHAR 339E
ENCODING 13214
SWIDTH 1020 0
DWIDTH 17 0
BBX 13 13 2 1
BITMAP
8000
8000
8000
8000
8000
88F0
98F8
B0A8
E0A8
E0A8
B0A8
98A8
88A8
ENDCHAR
STARTCHAR 33A1
ENCODING 13217
SWIDTH 1020 0
DWIDTH 17 0
BBX 12 13 3 1
BITMAP
0060
0060
00F0
0090
0070
EEE0
FF80
91F0
91F0
9100
9100
9100
9100
ENDCHAR
STARTCHAR 33C4
ENCODING 13252
SWIDTH 1020 0
DWIDTH 17 0
BBX 13 8 2 1
BITMAP
7070
F8F8
8888
8080
8080
8888
F8F8
7070
ENDCHAR
STARTCHAR 33CD
ENCODING 13261
SWIDTH 1020 0
DWIDTH 17 0
BBX 15 13 1 -1
BITMAP
8988
9998
9190
B1B0
A1A0
E1E0
E1E0
A1A0
B1B0
9998
8988
8F8E
0706
ENDCHAR
STARTCHAR 4E00
ENCODING 19968
SWIDTH 1020 0
DWIDTH 17 0
BBX 16 2 0 6
BITMAP
FFFF
FFFF
ENDCHAR
STARTCHAR 4E01
ENCODING 19969
SWIDTH 1020 0
DWIDTH 17 0
BBX 16 15 0 -1
BITMAP
FFFF
FFFF
FFFF
0180
0180
0180
0180
0180
0180
0180
0180
0180
0180
0F80
0E00
ENDCHAR
STARTCHAR 4E03
ENCODING 19971
SWIDTH 1020 0
DWIDTH 17 0
BBX 16 16 0 -1
BITMAP
0800
0800
0800
0800
0800
0800
080F
0BFF
FFF0
FC00
0800
0800
0804
0804
0FFC
07F8
ENDCHAR
STARTCHAR 4E07
ENCODING 19975
SWIDTH 1020 0
DWIDTH 17 0
BBX 16 15 0 -1
BITMAP
FFFF
FFFF
FFFF
0400
0400
07F8
07F8
0408
0408
0808
0808
1008
3010
E1F0
C1E0
ENDCHAR
STARTCHAR 4E08
ENCODING 19976
SWIDTH 1020 0
DWIDTH 17 0
BBX 16 16 0 -1
BITMAP
0180
0180
0180
FFFF
FFFF
0180
0980
0980
0980
0580
0780
0200
07C0
1CF0
F83F
E00F
ENDCHAR
STARTCHAR 4E09
ENCODING 19977
SWIDTH 1020 0
DWIDTH 17 0
BBX 16 12 0 0
BITMAP
3FFC
3FFC
0000
0000
0000
1FF8
1FF8
0000
0000
0000
FFFF
FFFF
ENDCHAR
STARTCHAR 4E0A
ENCODING 19978
SWIDTH 1020 0
DWIDTH 17 0
BBX 16 16 0 -1
BITMAP
0180
0180
0180
0180
0180
0180
01FC
01FC
0180
0180
0180
0180
0180
0180
FFFF
FFFF
ENDCHAR
STARTCHAR 4E0B
ENCODING 19979
SWIDTH 1020 0
DWIDTH 17 0
BBX 16 15 0 -1
BITMAP
FFFF
FFFF
FFFF
0180
0180
01F0
01FC
018E
0182
0180
0180
0180
0180
0180
0180
ENDCHAR
STARTCHAR 4E0D
ENCODING 19981
SWIDTH 1020 0
DWIDTH 17 0
BBX 16 15 0 -1
BITMAP
FFFF
FFFF
FFFF
01C0
03C0
07B0
0DBC
398E
F183
C181
0180
0180
0180
0180
0180
ENDCHAR
STARTCHAR 4E0E
ENCODING 19982
SWIDTH 1020 0
DWIDTH 17 0
BBX 16 16 0 -1
BITMAP
0800
0800
0800
0FFC
0FFC
0800
1FF0
1FF0
0010
FFFF
FFFF
0010
0010
0020
03E0
03C0
ENDCHAR
STARTCHAR 4E10
ENCODING 19984
SWIDTH 1020 0
DWIDTH 17 0
BBX 16 15 0 -1
BITMAP
FFFF
FFFF
FFFF
0180
11FC
11FC
1180
1180
1FFE
1FFE
0002
0002
0004
00FC
00F8
ENDCHAR
STARTCHAR 4E11
ENCODING 19985
SWIDTH 1020 0
DWIDTH 17 0
BBX 16 15 0 -1
BITMAP
3FF0
3FF0
3FF0
0410
0410
0410
FFFF
FFFF
0410
0410
0410
0410
0410
FFFF
FFFF
ENDCHAR
STARTCHAR 4E14
ENCODING 19988
SWIDTH 1020 0
DWIDTH 17 0
BBX 16 15 0 -1
BITMAP
0FF0
0FF0
0FF0
0810
0810
0FF0
0FF0
0810
0810
0FF0
0FF0
0810
0810
FFFF
FFFF
ENDCHAR
STARTCHAR 4E15
ENCODING 19989
SWIDTH 1020 0
DWIDTH 17 0
BBX 16 15 0 -1
BITMAP
FFFF
FFFF
FFFF
0180
03E0
06F8
0D9C
3986
F183
C181
0180
0180
0000
FFFF
FFFF
ENDCHAR
STARTCHAR 4E16
ENCODING 19990
SWIDTH 1020 0
DWIDTH 17 0
BBX 16 16 0 -1
BITMAP
1188
1188
1188
1188
1188
1188
FFFF
FFFF
1188
1188
11F8
11F8
1000
1000
1FFF
1FFF
ENDCHAR
STARTCHAR 4E17
ENCODING 19991
SWIDTH 1020 0
DWIDTH 17 0
BBX 16 16 0 -1
BITMAP
1188
1188
1188
1188
1188
1188
FFFF
FFFF
1188
1188
1188
1188
1188
1188
1FF8
1FF8
ENDCHAR
STARTCHAR 4E18
ENCODING 19992
SWIDTH 1020 0
DWIDTH 17 0
BBX 16 16 0 -1
BITMAP
0018
00F8
00F8
0FE0
0F80
0800
0800
0FFC
0FFC
0820
0820
0820
0820
0820
FFFF
FFFF
ENDCHAR
STARTCHAR 4E19
ENCODING 19993
SWIDTH 1020 0
DWIDTH 17 0
BBX 16 15 0 -1
BITMAP
FFFF
FFFF
FFFF
0180
0180
3FFC
3FFC
22C4
22C4
2424
3C3C
381C
2004
203C
2038
ENDCHAR
STARTCHAR 4E1E
ENCODING 19998
SWIDTH 1020 0
DWIDTH 17 0
BBX 16 15 0 -1
BITMAP
3FF8
3FF8
3FF8
0020
01C2
FDC6
FDCC
09A8
19B0
319C
E78F
C603
0000
7FFE
7FFE
ENDCHAR
STARTCHAR 4E21
ENCODING 20001
SWIDTH 1020 0
DWIDTH 17 0
BBX 16 15 0 -1
BITMAP
FFFF
FFFF
FFFF
0180
0180
7FFE
7FFE
4182
4992
4992
4992
4FF2
4FF2
401E
401C
ENDCHAR
STARTCHAR 4E26
ENCODING 20006
SWIDTH 1020 0
DWIDTH 17 0
BBX 16 16 0 -1
BITMAP
0810
0C30
0C30
0420
7FFE
7FFE
0420
4424
6424
2424
342C
1428
1428
0420
FFFF
FFFF
ENDCHAR
STARTCHAR 4E2A
ENCODING 20010
SWIDTH 1020 0
DWIDTH 17 0
BBX 16 16 0 -1
BITMAP
0180
0180
0180
03C0
06E0
0C30
399C
F18F
C183
0180
0180
0180
0180
0180
0180
0180
ENDCHAR
STARTCHAR 4E2D
ENCODING 20013
SWIDTH 1020 0
DWIDTH 17 0
BBX 12 16 2 -1
BITMAP
0600
0600
0600
0600
FFF0
FFF0
8610
8610
8610
FFF0
FFF0
0600
0600
0600
0600
0600
ENDCHAR
STARTCHAR 4E31
ENCODING 20017
SWIDTH 1020 0
DWIDTH 17 0
BBX 15 16 0 -1
BITMAP
0420
0420
0420
4422
4422
4422
4422
4422
4422
7C3E
7C3E
0420
0820
1820
F020
E020
ENDCHAR
STARTCHAR 4E32
ENCODING 20018
SWIDTH 1020 0
DWIDTH 17 0
BBX 14 16 1 -1
BITMAP
0300
0300
0300
7FF8
7FF8
4308
7FF8
7FF8
0300
FFFC
FFFC
8304
FFFC
FFFC
0300
0300
ENDCHAR
STARTCHAR 4E36
ENCODING 20022
SWIDTH 1020 0
DWIDTH 17 0
BBX 7 7 4 3
BITMAP
C0
E0
38
1C
0C
02
02
ENDCHAR
STARTCHAR 4E38
ENCODING 20024
SWIDTH 1020 0
DWIDTH 17 0
BBX 16 16 0 -1
BITMAP
0400
0400
0400
0400
FFF0
FFF0
0410
0410
6410
7810
1C10
0E10
1391
3191
E01F
C00E
ENDCHAR
STARTCHAR 4E39
ENCODING 20025
SWIDTH 1020 0
DWIDTH 17 0
BBX 16 15 0 -1
BITMAP
0FF0
0FF0
0FF0
0A10
0B90
0990
0990
FFFF
FFFF
0810
0810
1010
3010
E1F0
C1E0
ENDCHAR
STARTCHAR 4E3B
ENCODING 20027
SWIDTH 1020 0
DWIDTH 17 0
BBX 16 16 0 -1
BITMAP
0780
07C0
07C0
00C0
7FFE
7FFE
0180
0180
0180
3FFC
3FFC
0180
0180
0180
FFFF
FFFF
ENDCHAR
STARTCHAR 4E3C
ENCODING 20028
SWIDTH 1020 0
DWIDTH 17 0
BBX 16 16 0 -1
BITMAP
0410
0410
0410
0410
7FFE
7FFE
0590
05D0
04D0
0410
FFFF
FFFF
0410
0C10
7810
7010
ENDCHAR
STARTCHAR 4E3F
ENCODING 20031
SWIDTH 1020 0
DWIDTH 17 0
BBX 7 16 2 -1
BITMAP
06
06
06
06
06
06
06
06
06
06
06
06
08
18
F0
E0
ENDCHAR
STARTCHAR 4E42
ENCODING 20034
SWIDTH 1020 0
DWIDTH 17 0
BBX 16 16 0 -1
BITMAP
1008
1008
1008
1008
0810
0810
0810
0420
06E0
03C0
0180
03C0
06E0
1C38
F81F
E007
ENDCHAR
STARTCHAR 4E43
ENCODING 20035
SWIDTH 1020 0
DWIDTH 17 0
BBX 15 15 0 -1
BITMAP
7FF0
7FF0
7FF0
0410
0410
0420
043E
043E
0802
0802
0802
1002
3004
E03C
C038
ENDCHAR
STARTCHAR 4E45
ENCODING 20037
SWIDTH 1020 0
DWIDTH 17 0
BBX 16 16 0 -1
BITMAP
0400
0400
0400
07E0
0FE0
0820
10C0
70C0
6180
01C0
02C0
0620
0C30
381C
F00F
C003
ENDCHAR
STARTCHAR 4E4B
ENCODING 20043
SWIDTH 1020 0
DWIDTH 17 0
BBX 16 16 0 -1
BITMAP
0180
0180
0180
0180
7FFC
7FFC
0018
0030
00E0
01C0
0380
2600
3C00
3800
EFFF
C7FF
ENDCHAR
STARTCHAR 4E4D
ENCODING 20045
SWIDTH 1020 0
DWIDTH 17 0
BBX 16 16 0 -1
BITMAP
0800
0800
0800
0FFF
1FFF
3180
E180
C1FC
01FC
0180
0180
01FE
01FE
0180
0180
0180
ENDCHAR
STARTCHAR 4E4E
ENCODING 20046
SWIDTH 1020 0
DWIDTH 17 0
BBX 16 16 0 -1
BITMAP
001C
3FFC
3FFC
3FE4
118C
1988
0998
0990
FFFF
FFFF
0180
0180
0180
0180
0F80
0E00
ENDCHAR
STARTCHAR 4E4F
ENCODING 20047
SWIDTH 1020 0
DWIDTH 17 0
BBX 16 16 0 -1
BITMAP
0018
3FF8
3FF8
3FE0
0180
0180
FFF8
FFF8
0030
00E0
01C0
2780
2E00
7800
DFFF
87FF
ENDCHAR
STARTCHAR 4E55
ENCODING 20053
SWIDTH 1020 0
DWIDTH 17 0
BBX 16 16 0 -1
BITMAP
000C
3FFC
3FFC
3FF0
20C0
3FFE
3FFE
20C0
3FFF
3FFF
20C0
2FFC
4FFC
C8C4
88DC
08D8
ENDCHAR
STARTCHAR 4E56
ENCODING 20054
SWIDTH 1020 0
DWIDTH 17 0
BBX 16 16 0 -1
BITMAP
001C
3FFC
3FFC
3FE0
0180
FFFF
FFFF
0990
7992
799E
099C
1990
F991
E99F
098E
0180
ENDCHAR
STARTCHAR 4E57
ENCODING 20055
SWIDTH 1020 0
DWIDTH 17 0
BBX 16 16 0 -1
BITMAP
0018
1FF8
1FF8
1FE0
0180
7FFE
7FFE
0990
FFFF
FFFF
0990
7FFE
7FFE
0990
F99F
F18F
ENDCHAR
STARTCHAR 4E58
ENCODING 20056
SWIDTH 1020 0
DWIDTH 17 0
BBX 16 16 0 -1
BITMAP
0038
1FF8
1FF8
1FC0
0180
FFFF
FFFF
0992
F99E
F99C
1991
FBDF
EFEE
1DB8
F99F
E187
ENDCHAR
STARTCHAR 4E59
ENCODING 20057
SWIDTH 1020 0
DWIDTH 17 0
BBX 14 15 1 -1
BITMAP
FFF0
FFF0
FFF0
0060
01C0
0380
0700
0C00
1800
3000
2000
6004
4004
7FFC
3FF8
ENDCHAR
STARTCHAR 4E5D
ENCODING 20061
SWIDTH 1020 0
DWIDTH 17 0
BBX 16 16 0 -1
BITMAP
0400
0400
0400
0400
FFF0
FFF0
0410
0410
0410
0410
0410
0810
0811
1811
F01F
E00E
ENDCHAR
STARTCHAR 4E5E
ENCODING 20062
SWIDTH 1020 0
DWIDTH 17 0
BBX 15 16 0 -1
BITMAP
1000
1000
1000
1FFE
3FFE
E000
C000
3FE0
3FE0
0380
0600
0C00
1802
3002
3FFE
1FFC
ENDCHAR
STARTCHAR 4E5F
ENCODING 20063
SWIDTH 1020 0
DWIDTH 17 0
BBX 16 16 0 -1
BITMAP
0180
1180
1180
1180
119C
11FC
17E4
3F84
F984
D1BC
11B8
1180
1181
1001
1FFF
0FFE
ENDCHAR
STARTCHAR 4E62
ENCODING 20066
SWIDTH 1020 0
DWIDTH 17 0
BBX 16 16 0 -1
BITMAP
1020
1020
1020
1020
9220
9220
9220
9220
9220
9220
9220
9220
FE21
FE21
003F
001E
ENDCHAR
STARTCHAR 4E71
ENCODING 20081
SWIDTH 1020 0
DWIDTH 17 0
BBX 16 16 0 -1
BITMAP
01A0
07A0
07A0
7E20
7820
0820
FFA0
FFA0
0820
0820
7E20
7E20
4221
4221
7E3F
7E1E
ENDCHAR
STARTCHAR 4E73
ENCODING 20083
SWIDTH 1020 0
DWIDTH 17 0
BBX 16 16 0 -1
BITMAP
07A0
FFA0
FFA0
F9A0
53A0
7A20
2820
7FA0
7FA0
0420
0BA0
FFA0
FC21
0821
383F
301E
ENDCHAR
STARTCHAR 4E7E
ENCODING 20094
SWIDTH 1020 0
DWIDTH 17 0
BBX 16 16 0 -1
BITMAP
10C0
FEC0
FEC0
FEFE
11FE
7F80
7E00
45FC
7DFC
7C18
4430
7CE0
FFC1
FF81
11FF
10FE
ENDCHAR
STARTCHAR 4E80
ENCODING 20096
SWIDTH 1020 0
DWIDTH 17 0
BBX 16 16 0 -1
BITMAP
0FC0
0FC0
0FC0
1980
3FF8
FFF8
D188
3FF8
3FFC
2184
3FFC
3FFC
2185
3FFD
3FFF
00FE
ENDCHAR
STARTCHAR 4E82
ENCODING 20098
SWIDTH 1020 0
DWIDTH 17 0
BBX 15 16 1 -1
BITMAP
0720
FF20
FF20
FB20
5420
FF20
FF20
0820
FFA0
FFA0
95A0
FFA0
FFA2
ADA2
FFBE
F71C
ENDCHAR
STARTCHAR 4E85
ENCODING 20101
SWIDTH 1020 0
DWIDTH 17 0
BBX 5 16 4 -1
BITMAP
18
18
18
18
18
18
18
18
18
18
18
18
18
18
F8
E0
ENDCHAR
STARTCHAR 4E86
ENCODING 20102
SWIDTH 1020 0
DWIDTH 17 0
BBX 14 15 1 -1
BITMAP
FFFC
FFFC
FFFC
0030
0060
03C0
0380
0300
0300
0300
0300
0300
0300
1F00
1C00
ENDCHAR
STARTCHAR 4E88
ENCODING 20104
SWIDTH 1020 0
DWIDTH 17 0
BBX 16 15 0 -1
BITMAP
3FF8
3FF8
3FF8
0430
06E0
02C0
FFFF
FFFF
0186
0184
0180
0180
0180
0F80
0E00
ENDCHAR
STARTCHAR 4E89
ENCODING 20105
SWIDTH 1020 0
DWIDTH 17 0
BBX 16 16 0 -1
BITMAP
0400
07E0
07E0
0FE0
08C0
3FF8
3FF8
0188
FFFF
FFFF
0188
3FF8
3FF8
0180
0780
0600
ENDCHAR
STARTCHAR 4E8A
ENCODING 20106
SWIDTH 1020 0
DWIDTH 17 0
BBX 16 16 0 -1
BITMAP
0180
FFFF
FFFF
FFFF
0990
3FF8
3FF8
0188
FFFF
FFFF
0188
3FF8
3FF8
0180
0F80
0E00
ENDCHAR
STARTCHAR 4E8B
ENCODING 20107
SWIDTH 1020 0
DWIDTH 17 0
BBX 16 16 0 -1
BITMAP
0180
FFFF
FFFF
FFFF
0990
3FF8
3FF8
0188
FFFF
FFFF
0188
3FF8
3FF8
0180
0F80
0E00
ENDCHAR
STARTCHAR 4E8C
ENCODING 20108
SWIDTH 1020 0
DWIDTH 17 0
BBX 16 10 0 1
BITMAP
3FFC
3FFC
0000
0000
0000
0000
0000
0000
FFFF
FFFF
ENDCHAR
STARTCHAR 4E8E
ENCODING 20110
SWIDTH 1020 0
DWIDTH 17 0
BBX 16 15 0 -1
BITMAP
7FFE
7FFE
7FFE
0180
0180
0180
FFFF
FFFF
0180
0180
0180
0180
0180
0F80
0E00
ENDCHAR
STARTCHAR 4E91
ENCODING 20113
SWIDTH 1020 0
DWIDTH 17 0
BBX 16 15 0 -1
BITMAP
3FFC
3FFC
3FFC
0000
0000
FFFF
FFFF
0200
0200
0210
0418
040C
08FC
7FFE
7F86
ENDCHAR
STARTCHAR 4E92
ENCODING 20114
SWIDTH 1020 0
DWIDTH 17 0
BBX 16 15 0 -1
BITMAP
7FFE
7FFE
7FFE
0400
0400
07F0
0FF0
0810
0810
0FF0
1FE0
1020
0020
FFFF
FFFF
ENDCHAR
STARTCHAR 4E94
ENCODING 20116
SWIDTH 1020 0
DWIDTH 17 0
BBX 16 15 0 -1
BITMAP
7FFE
7FFE
7FFE
0200
0200
0200
3FF0
3FF0
0410
0410
0410
0810
0810
FFFF
FFFF
ENDCHAR
STARTCHAR 4E95
ENCODING 20117
SWIDTH 1020 0
DWIDTH 17 0
BBX 16 16 0 -1
BITMAP
0410
0410
0410
0410
7FFE
7FFE
0410
0410
0410
FFFF
FFFF
0410
0810
1810
7010
6010
ENDCHAR
STARTCHAR 4E98
ENCODING 20120
SWIDTH 1020 0
DWIDTH 17 0
BBX 16 15 0 -1
BITMAP
7FFE
7FFE
7FFE
0000
0FF0
0FF0
0810
0FF0
0FF0
0810
0FF0
0FF0
0000
FFFF
FFFF
ENDCHAR
STARTCHAR 4E99
ENCODING 20121
SWIDTH 1020 0
DWIDTH 17 0
BBX 16 15 0 -1
BITMAP
7FFE
7FFE
7FFE
0400
07F0
07F0
0A10
0B90
09A0
0C20
1620
12C0
00C0
FFFF
FFFF
ENDCHAR
STARTCHAR 4E9B
ENCODING 20123
SWIDTH 1020 0
DWIDTH 17 0
BBX 16 16 0 -1
BITMAP
0820
0820
0820
4FA6
4FBE
4838
4821
4FA1
FFBF
F81E
0000
3FFC
3FFC
0000
FFFF
FFFF
ENDCHAR
STARTCHAR 4E9C
ENCODING 20124
SWIDTH 1020 0
DWIDTH 17 0
BBX 16 15 0 -1
BITMAP
7FFE
7FFE
7FFE
0420
0420
3FFC
3FFC
2424
2424
3FFC
3FFC
0420
0420
FFFF
FFFF
ENDCHAR
STARTCHAR 4E9E
ENCODING 20126
SWIDTH 1020 0
DWIDTH 17 0
BBX 16 15 0 -1
BITMAP
7FFE
7FFE
7FFE
0420
0420
3C3C
3C3C
2004
2004
3C3C
3C3C
0420
0420
FFFF
FFFF
ENDCHAR
STARTCHAR 4E9F
ENCODING 20127
SWIDTH 1020 0
DWIDTH 17 0
BBX 16 15 0 -1
BITMAP
7FFE
7FFE
7FFE
0400
07C0
07C0
78FE
78FE
48D4
78C8
799C
07B6
0623
FFFF
FFFF
ENDCHAR
STARTCHAR 4EA0
ENCODING 20128
SWIDTH 1020 0
DWIDTH 17 0
BBX 16 6 0 5
BITMAP
0180
0180
0180
0180
FFFF
FFFF
ENDCHAR
STARTCHAR 4EA1
ENCODING 20129
SWIDTH 1020 0
DWIDTH 17 0
BBX 16 16 0 -1
BITMAP
0180
0180
0180
0180
0180
FFFF
FFFF
1000
1000
1000
1000
1000
1000
1000
1FFE
0FFE
ENDCHAR
STARTCHAR 4EA2
ENCODING 20130
SWIDTH 1020 0
DWIDTH 17 0
BBX 16 16 0 -1
BITMAP
0180
0180
0180
FFFF
FFFF
0000
0000
0FE0
0FE0
0820
0820
0820
1021
3021
E03F
C01E
ENDCHAR
STARTCHAR 4EA4
ENCODING 20132
SWIDTH 1020 0
DWIDTH 17 0
BBX 16 16 0 -1
BITMAP
0180
0180
0180
FFFF
FFFF
0810
1818
F42F
E427
02C0
03C0
03C0
06E0
1C38
F81F
E007
ENDCHAR
STARTCHAR 4EA5
ENCODING 20133
SWIDTH 1020 0
DWIDTH 17 0
BBX 16 16 0 -1
BITMAP
0180
0180
0180
FFFF
FFFF
0420
1CE0
19C8
0788
0E18
7C30
70E0
01D0
0798
7E0E
7806
ENDCHAR
STARTCHAR 4EA6
ENCODING 20134
SWIDTH 1020 0
DWIDTH 17 0
BBX 16 16 0 -1
BITMAP
0180
0180
0180
0180
FFFF
FFFF
0420
2428
242C
2424
4426
C422
8822
1820
73E0
63C0
ENDCHAR
STARTCHAR 4EA8
ENCODING 20136
SWIDTH 1020 0
DWIDTH 17 0
BBX 16 16 0 -1
BITMAP
0180
FFFF
FFFF
FFFF
0810
0FF0
0FF0
0000
7FFC
7FFC
0010
01F0
01E0
0180
0F80
0E00
ENDCHAR
STARTCHAR 4EAB
ENCODING 20139
SWIDTH 1020 0
DWIDTH 17 0
BBX 16 16 0 -1
BITMAP
0180
FFFF
FFFF
FFFF
0810
0FF0
0FF0
0000
3FFC
3FFC
0010
FFFF
FFFF
0180
0F80
0E00
ENDCHAR
STARTCHAR 4EAC
ENCODING 20140
SWIDTH 1020 0
DWIDTH 17 0
BBX 16 16 0 -1
BITMAP
0180
FFFF
FFFF
FFFF
0000
1FF8
1FF8
1008
1008
1FF8
1FF8
0990
1998
F18F
EF87
0E00
ENDCHAR
STARTCHAR 4EAD
ENCODING 20141
SWIDTH 1020 0
DWIDTH 17 0
BBX 14 16 1 -1
BITMAP
0300
FFFC
FFFC
FFFC
0000
1FE0
1FE0
1020
FFFC
FFFC
8004
7FF8
7FF8
0300
0F00
0C00
ENDCHAR
STARTCHAR 4EAE
ENCODING 20142
SWIDTH 1020 0
DWIDTH 17 0
BBX 16 16 0 -1
BITMAP
0180
FFFF
FFFF
FFFF
0000
0FF0
0FF0
0810
7FFE
7FFE
4002
44C2
04C1
0CC1
F8FF
F03E
ENDCHAR
STARTCHAR 4EB0
ENCODING 20144
SWIDTH 1020 0
DWIDTH 17 0
BBX 16 16 0 -1
BITMAP
0180
FFFF
FFFF
FFFF
0000
0FF0
0FF0
0810
0FF0
0FF0
0810
0FF0
0FF0
1188
F78F
E787
ENDCHAR
STARTCHAR 4EB3
ENCODING 20147
SWIDTH 1020 0
DWIDTH 17 0
BBX 14 16 1 -1
BITMAP
0300
FFFC
FFFC
FFFC
0000
1FE0
1FE0
1020
FFFC
FFFC
8404
7FF8
7FF8
0404
07FC
03F8
ENDCHAR
STARTCHAR 4EB6
ENCODING 20150
SWIDTH 1020 0
DWIDTH 17 0
BBX 16 16 0 -1
BITMAP
0180
7FFE
7FFE
7FFE
1428
17E8
17E8
1008
1FF8
0FF0
0810
0FF0
0FF0
0810
FFFF
FFFF
ENDCHAR
STARTCHAR 4EBA
ENCODING 20154
SWIDTH 1020 0
DWIDTH 17 0
BBX 16 16 0 -1
BITMAP
0180
0180
0180
0180
0180
0180
0180
02C0
02C0
0420
0420
0810
1818
300C
E007
C003
ENDCHAR
STARTCHAR 4EC0
ENCODING 20160
SWIDTH 1020 0
DWIDTH 17 0
BBX 16 16 0 -1
BITMAP
0820
0820
0820
1020
1020
3020
6FFF
EFFF
A020
2020
2020
2020
2020
2020
2020
2020
ENDCHAR
STARTCHAR 4EC1
ENCODING 20161
SWIDTH 1020 0
DWIDTH 17 0
BBX 16 16 0 -1
BITMAP
0800
0800
0800
17FC
17FC
2000
6000
E000
A000
2000
2000
2000
2000
2FFF
2FFF
2000
ENDCHAR
STARTCHAR 4EC2
ENCODING 20162
SWIDTH 1020 0
DWIDTH 17 0
BBX 15 16 0 -1
BITMAP
0820
0820
0820
1020
1020
37FE
77FE
D022
9022
10C2
10C2
10C2
1182
1384
1E3C
1C38
ENDCHAR
STARTCHAR 4EC4
ENCODING 20164
SWIDTH 1020 0
DWIDTH 17 0
BBX 16 15 0 -1
BITMAP
3FFE
3FFE
3FFE
2000
20C0
20C0
20C0
20C0
21A0
21A0
21A0
4210
C618
BC0F
3807
ENDCHAR
STARTCHAR 4EC6
ENCODING 20166
SWIDTH 1020 0
DWIDTH 17 0
BBX 16 16 0 -1
BITMAP
0420
0420
0420
0820
0820
1020
3038
703E
D027
9021
1020
1020
1020
1020
1020
1020
ENDCHAR
STARTCHAR 4EC7
ENCODING 20167
SWIDTH 1020 0
DWIDTH 17 0
BBX 16 16 0 -1
BITMAP
1180
1180
1180
1180
1180
2FF8
2FF8
6188
E188
A188
2188
2188
2189
2209
2E0F
2C06
ENDCHAR
STARTCHAR 4ECA
ENCODING 20170
SWIDTH 1020 0
DWIDTH 17 0
BBX 16 16 0 -1
BITMAP
0180
03C0
03C0
06E0
0C30
381C
F7EF
C7E3
0000
3FF8
3FF8
0008
0010
0030
07E0
07C0
ENDCHAR
STARTCHAR 4ECB
ENCODING 20171
SWIDTH 1020 0
DWIDTH 17 0
BBX 16 16 0 -1
BITMAP
0180
02C0
02C0
02C0
0420
0C30
381C
F00F
C813
0810
0810
0810
0810
1810
7010
6010
ENDCHAR
STARTCHAR 4ECD
ENCODING 20173
SWIDTH 1020 0
DWIDTH 17 0
BBX 15 16 0 -1
BITMAP
0800
0FF8
0FF8
17F8
1188
2188
6190
E19E
A19E
2182
2182
2202
2204
260C
3CF8
38F0
ENDCHAR
STARTCHAR 4ECE
ENCODING 20174
SWIDTH 1020 0
DWIDTH 17 0
BBX 16 16 0 -1
BITMAP
0820
0820
0820
0820
0820
0820
0820
0820
0820
08D0
14D0
16D0
2388
638C
CE07
8C03
ENDCHAR
STARTCHAR 4ECF
ENCODING 20175
SWIDTH 1020 0
DWIDTH 17 0
BBX 16 16 0 -1
BITMAP
08C0
08C0
08C0
10C0
10C0
20C0
60C0
E0C0
A180
2180
2188
218C
2206
223E
2FFF
2FC1
ENDCHAR
STARTCHAR 4ED4
ENCODING 20180
SWIDTH 1020 0
DWIDTH 17 0
BBX 16 16 0 -1
BITMAP
0800
0BFE
0BFE
13FE
100C
2018
6030
E020
AFFF
2FFF
2020
2020
2020
2020
23E0
23C0
ENDCHAR
STARTCHAR 4ED5
ENCODING 20181
SWIDTH 1020 0
DWIDTH 17 0
BBX 16 16 0 -1
BITMAP
0820
0820
0820
1020
1020
2020
6FFF
EFFF
A020
2020
2020
2020
2020
2020
27FE
27FE
ENDCHAR
STARTCHAR 4ED6
ENCODING 20182
SWIDTH 1020 0
DWIDTH 17 0
BBX 16 16 0 -1
BITMAP
1020
1220
1220
1220
2220
223C
63FC
EFE4
AE24
2224
223C
2238
2221
2201
23FF
21FE
ENDCHAR
STARTCHAR 4ED7
ENCODING 20183
SWIDTH 1020 0
DWIDTH 17 0
BBX 16 16 0 -1
BITMAP
1020
1020
1020
1020
2FFF
2FFF
6020
E220
A220
21A0
21C0
20C0
21E0
23B8
2E1F
2C07
ENDCHAR
STARTCHAR 4ED8
ENCODING 20184
SWIDTH 1020 0
DWIDTH 17 0
BBX 16 16 0 -1
BITMAP
0810
0810
0810
1010
1010
2FFF
6FFF
E010
A410
2610
2210
2210
2010
2010
21F0
21E0
ENDCHAR
STARTCHAR 4ED9
ENCODING 20185
SWIDTH 1020 0
DWIDTH 17 0
BBX 15 16 0 -1
BITMAP
0820
0820
0820
1020
1020
3422
6422
E422
A422
2422
2422
2422
2422
2422
27FE
27FE
ENDCHAR
STARTCHAR 4EDD
ENCODING 20189
SWIDTH 1020 0
DWIDTH 17 0
BBX 16 16 0 -1
BITMAP
0180
0180
0180
03C0
06E0
0C30
381C
F00F
DFFB
1FF8
0180
0180
0180
0180
FFFF
FFFF
ENDCHAR
STARTCHAR 4EDE
ENCODING 20190
SWIDTH 1020 0
DWIDTH 17 0
BBX 15 16 0 -1
BITMAP
1000
1000
1000
17FE
27FE
20C2
60C2
E6C2
A7C2
21C2
20E2
21B2
2194
220C
2E38
2C30
ENDCHAR
STARTCHAR 4EDF
ENCODING 20191
SWIDTH 1020 0
DWIDTH 17 0
BBX 16 16 0 -1
BITMAP
1006
103E
103E
17F8
27E0
2020
6020
EFFF
AFFF
2020
2020
2020
2020
2020
2020
2020
ENDCHAR
STARTCHAR 4EE3
ENCODING 20195
SWIDTH 1020 0
DWIDTH 17 0
BBX 16 16 0 -1
BITMAP
0828
082C
082C
1024
1020
37FF
77FF
D020
9020
1020
1010
1010
1019
1009
100F
1006
ENDCHAR
STARTCHAR 4EE4
ENCODING 20196
SWIDTH 1020 0
DWIDTH 17 0
BBX 16 16 0 -1
BITMAP
0180
03C0
03C0
06E0
0C30
381C
FFFF
CFF3
0000
3FF8
3FF8
0208
0208
0238
0230
0200
ENDCHAR
STARTCHAR 4EE5
ENCODING 20197
SWIDTH 1020 0
DWIDTH 17 0
BBX 16 16 0 -1
BITMAP
2004
2404
2404
2604
2384
2384
2004
2004
2004
218C
2788
3E18
F834
E1E6
0FC3
0E01
ENDCHAR
STARTCHAR 4EED
ENCODING 20205
SWIDTH 1020 0
DWIDTH 17 0
BBX 16 16 0 -1
BITMAP
1000
1000
1000
17FE
27FE
2222
6222
E1A2
A1A2
20E2
20F2
20DC
218F
238F
2EF8
2CF0
ENDCHAR
STARTCHAR 4EEE
ENCODING 20206
SWIDTH 1020 0
DWIDTH 17 0
BBX 16 16 0 -1
BITMAP
0800
0BFF
0BFF
13FF
1200
3200
23FC
63FC
E2C4
A2C8
2228
2630
2438
2CEC
3BC7
3383
ENDCHAR
STARTCHAR 4EF0
ENCODING 20208
SWIDTH 1020 0
DWIDTH 17 0
BBX 15 16 0 -1
BITMAP
10E0
17E0
17E0
17BE
243E
2422
6422
E422
A422
2422
2422
25E2
2FEE
2E2C
2020
2020
ENDCHAR
STARTCHAR 4EF2
ENCODING 20210
SWIDTH 1020 0
DWIDTH 17 0
BBX 15 16 0 -1
BITMAP
0820
0820
0820
1020
17FE
27FE
6422
E422
A422
27FE
27FE
2020
2020
2020
2020
2020
ENDCHAR
STARTCHAR 4EF6
ENCODING 20214
SWIDTH 1020 0
DWIDTH 17 0
BBX 16 16 0 -1
BITMAP
1020
1220
1220
1220
23FE
27FE
6C20
E820
A020
2FFF
2FFF
2020
2020
2020
2020
2020
ENDCHAR
STARTCHAR 4EF7
ENCODING 20215
SWIDTH 1020 0
DWIDTH 17 0
BBX 16 16 0 -1
BITMAP
10C0
11E0
11E0
11B0
2398
2E0F
6C07
E210
A210
2210
2210
2210
2210
2410
2C10
2810
ENDCHAR
STARTCHAR 4EFB
ENCODING 20219
SWIDTH 1020 0
DWIDTH 17 0
BBX 16 16 0 -1
BITMAP
0804
081C
081C
17F8
17E0
2020
6020
E020
AFFF
2FFF
2020
2020
2020
2020
27FE
27FE
ENDCHAR
STARTCHAR 4F01
ENCODING 20225
SWIDTH 1020 0
DWIDTH 17 0
BBX 16 16 0 -1
BITMAP
0180
0180
0180
02C0
06E0
0C30
399C
F18F
C183
11FC
11FC
1180
1180
1180
FFFF
FFFF
ENDCHAR
STARTCHAR 4F09
ENCODING 20233
SWIDTH 1020 0
DWIDTH 17 0
BBX 16 16 0 -1
BITMAP
10C0
10C0
10C0
1FFE
2FFE
2000
6000
E3F0
A3F0
2210
2210
2210
2211
2411
3C1F
380E
ENDCHAR
STARTCHAR 4F0A
ENCODING 20234
SWIDTH 1020 0
DWIDTH 17 0
BBX 16 16 0 -1
BITMAP
1000
17FC
17FC
17FC
3024
2FFF
6FFF
E024
A024
27FC
27FC
2020
2020
20E0
27C0
2780
ENDCHAR
STARTCHAR 4F0D
ENCODING 20237
SWIDTH 1020 0
DWIDTH 17 0
BBX 16 16 0 -1
BITMAP
1000
17FE
17FE
17FE
20C0
20C0
60C0
E7F8
A7F8
2188
2188
2188
2208
2208
3FFF
3FFF
ENDCHAR
STARTCHAR 4F0E
ENCODING 20238
SWIDTH 1020 0
DWIDTH 17 0
BBX 16 16 0 -1
BITMAP
1020
1020
1020
1FFF
2FFF
2020
6020
E7FC
A7FC
2204
2188
2198
20F0
21F8
2F9F
2E07
ENDCHAR
STARTCHAR 4F0F
ENCODING 20239
SWIDTH 1020 0
DWIDTH 17 0
BBX 16 16 0 -1
BITMAP
08C0
08C8
08C8
10CC
10C4
2FFF
6FFF
E0C0
A0C0
21A0
21A0
2190
2218
260C
3C07
3803
ENDCHAR
STARTCHAR 4F10
ENCODING 20240
SWIDTH 1020 0
DWIDTH 17 0
BBX 16 16 0 -1
BITMAP
08C8
08CC
08CC
10C4
10FF
2FFF
6FC0
E0C4
A024
2028
2028
2010
2039
21E9
2FCF
2E06
ENDCHAR
STARTCHAR 4F11
ENCODING 20241
SWIDTH 1020 0
DWIDTH 17 0
BBX 16 16 0 -1
BITMAP
1020
1020
1020
1020
1FFF
2FFF
20F0
60F0
E1A8
A1A8
2224
2626
2C23
2821
2020
2020
ENDCHAR
STARTCHAR 4F1A
ENCODING 20250
SWIDTH 1020 0
DWIDTH 17 0
BBX 16 16 0 -1
BITMAP
0180
03C0
03C0
06E0
0C30
381C
FFFF
CFF3
0000
7FFE
7FFE
0610
0408
08FC
7FFE
7F86
ENDCHAR
STARTCHAR 4F1C
ENCODING 20252
SWIDTH 1020 0
DWIDTH 17 0
BBX 16 16 0 -1
BITMAP
08C0
08C0
08C0
17F8
17F8
20C9
61C9
EF8F
AE26
2020
27FE
27FE
2020
2020
2020
2020
ENDCHAR
STARTCHAR 4F1D
ENCODING 20253
SWIDTH 1020 0
DWIDTH 17 0
BBX 16 16 0 -1
BITMAP
0800
0BFE
0BFE
13FE
1000
2000
6FFF
EFFF
A0C0
20C0
20C8
218C
2186
219E
2FFF
2FE1
ENDCHAR
STARTCHAR 4F2F
ENCODING 20271
SWIDTH 1020 0
DWIDTH 17 0
BBX 15 16 0 -1
BITMAP
0820
0820
0820
10C0
13FE
23FE
6202
E202
A202
23FE
23FE
2202
2202
2202
23FE
23FE
ENDCHAR
STARTCHAR 4F30
ENCODING 20272
SWIDTH 1020 0
DWIDTH 17 0
BBX 16 16 0 -1
BITMAP
1020
1020
1020
1020
2FFF
2FFF
6020
E020
A020
23FC
23FC
2204
2204
2204
23FC
23FC
ENDCHAR
STARTCHAR 4F34
ENCODING 20276
SWIDTH 1020 0
DWIDTH 17 0
BBX 16 16 0 -1
BITMAP
0820
0A24
0A24
13AC
11A8
2020
67FE
E7FE
A020
2020
2FFF
2FFF
2020
2020
2020
2020
ENDCHAR
STARTCHAR 4F36
ENCODING 20278
SWIDTH 1020 0
DWIDTH 17 0
BBX 16 16 0 -1
BITMAP
08C0
09E0
09E0
11B0
1398
260C
6DF7
E9F3
A000
2FFC
2FFC
20C4
20C4
20DC
20D8
20C0
ENDCHAR
STARTCHAR 4F38
ENCODING 20280
SWIDTH 1020 0
DWIDTH 17 0
BBX 15 16 0 -1
BITMAP
0820
0820
0820
17FE
17FE
2422
67FE
E7FE
A422
2422
27FE
27FE
2020
2020
2020
2020
ENDCHAR
STARTCHAR 4F3A
ENCODING 20282
SWIDTH 1020 0
DWIDTH 17 0
BBX 15 16 0 -1
BITMAP
1000
1FFE
1FFE
1FFE
2002
2FF2
6FF2
E002
A7E2
27E2
2422
27E2
27E2
2002
201E
201C
ENDCHAR
STARTCHAR 4F3C
ENCODING 20284
SWIDTH 1020 0
DWIDTH 17 0
BBX 16 16 0 -1
BITMAP
1404
1404
1404
1584
25C4
24E4
64E4
E404
A404
2404
24C4
25C8
278C
2E1E
2DF3
21E3
ENDCHAR
STARTCHAR 4F3D
ENCODING 20285
SWIDTH 1020 0
DWIDTH 17 0
BBX 15 16 0 -1
BITMAP
1200
1200
1200
1200
321E
2FDE
6FD2
E4D2
A4D2
24D2
24D2
24D2
2CD2
29DE
3F9E
3600
ENDCHAR
STARTCHAR 4F43
ENCODING 20291
SWIDTH 1020 0
DWIDTH 17 0
BBX 15 16 0 -1
BITMAP
1000
1000
1000
17FE
27FE
2422
6422
E422
A7FE
27FE
2422
2422
2422
2422
27FE
27FE
ENDCHAR
STARTCHAR 4F46
ENCODING 20294
SWIDTH 1020 0
DWIDTH 17 0
BBX 16 16 0 -1
BITMAP
0800
0BFC
0BFC
13FC
1204
2204
63FC
E3FC
A204
2204
23FC
23FC
2000
2000
2FFF
2FFF
ENDCHAR
STARTCHAR 4F47
ENCODING 20295
SWIDTH 1020 0
DWIDTH 17 0
BBX 16 16 0 -1
BITMAP
0820
0820
0820
17FE
17FE
2402
6402
E000
AFFF
2FFF
2020
2020
2020
2020
23E0
23C0
ENDCHAR
STARTCHAR 4F4D
ENCODING 20301
SWIDTH 1020 0
DWIDTH 17 0
BBX 16 16 0 -1
BITMAP
0820
0820
0820
1020
17FE
27FE
6004
E204
A204
218C
2188
2188
2188
2190
2FFF
2FFF
ENDCHAR
STARTCHAR 4F4E
ENCODING 20302
SWIDTH 1020 0
DWIDTH 17 0
BBX 16 16 0 -1
BITMAP
080C
0BFC
0BFC
13F0
1220
2220
63FF
E3FF
A210
2210
2218
23E8
2FED
2E05
23FF
23FB
ENDCHAR
STARTCHAR 4F4F
ENCODING 20303
SWIDTH 1020 0
DWIDTH 17 0
BBX 16 16 0 -1
BITMAP
08E0
08F0
08F0
1010
17FE
27FE
6020
E020
A020
23FC
23FC
2020
2020
2020
2FFF
2FFF
ENDCHAR
STARTCHAR 4F50
ENCODING 20304
SWIDTH 1020 0
DWIDTH 17 0
BBX 16 16 0 -1
BITMAP
10C0
10C0
10C0
10C0
2FFF
2FFF
6180
E200
A7FE
2FFE
3820
3020
2020
2020
2FFF
2FFF
ENDCHAR
STARTCHAR 4F51
ENCODING 20305
SWIDTH 1020 0
DWIDTH 17 0
BBX 16 16 0 -1
BITMAP
08C0
08C0
08C0
10C0
1FFF
2FFF
6180
E180
A200
27FC
2FFC
3A04
3204
2204
23FC
23FC
ENDCHAR
STARTCHAR 4F53
ENCODING 20307
SWIDTH 1020 0
DWIDTH 17 0
BBX 16 16 0 -1
BITMAP
10C0
10C0
10C0
10C0
3FFE
2FFE
60C0
E1E0
A1D0
22D0
22C8
24CC
3FF7
3BF3
20C0
20C0
ENDCHAR
STARTCHAR 4F55
ENCODING 20309
SWIDTH 1020 0
DWIDTH 17 0
BBX 16 16 0 -1
BITMAP
1000
1FFF
1FFF
1FFF
2004
2004
67E4
E7E4
A424
2424
27E4
27E4
2004
2004
203C
2038
ENDCHAR
STARTCHAR 4F57
ENCODING 20311
SWIDTH 1020 0
DWIDTH 17 0
BBX 15 16 0 -1
BITMAP
1020
1020
1020
17FE
27FE
2402
6582
E180
A18C
21FC
21F0
2180
2182
2182
21FE
20FC
ENDCHAR
STARTCHAR 4F59
ENCODING 20313
SWIDTH 1020 0
DWIDTH 17 0
BBX 16 16 0 -1
BITMAP
0180
03C0
03C0
06E0
0C30
381C
FFFF
CFF3
0180
7FFC
7FFC
0980
1998
719C
6F86
0E02
ENDCHAR
STARTCHAR 4F5A
ENCODING 20314
SWIDTH 1020 0
DWIDTH 17 0
BBX 16 16 0 -1
BITMAP
1020
1220
1220
1220
27FE
27FE
6C20
E820
AFFF
2FFF
20D0
20D0
2188
238C
2E07
2C03
ENDCHAR
STARTCHAR 4F5B
ENCODING 20315
SWIDTH 1020 0
DWIDTH 17 0
BBX 15 16 0 -1
BITMAP
1190
1190
1190
1FFC
2FFC
2194
6FFC
EFFC
A990
2FFE
2FFE
2192
219E
221C
2E10
2C10
ENDCHAR
STARTCHAR 4F5C
ENCODING 20316
SWIDTH 1020 0
DWIDTH 17 0
BBX 16 16 0 -1
BITMAP
0980
0980
0980
1180
13FF
33FF
6EC0
ECFC
A0FC
20C0
20C0
20FE
20FE
20C0
20C0
20C0
ENDCHAR
STARTCHAR 4F5D
ENCODING 20317
SWIDTH 1020 0
DWIDTH 17 0
BBX 15 16 0 -1
BITMAP
1200
1200
1200
1200
27FE
27FE
6C02
FFE2
B7E2
2422
2422
27E2
27E2
2004
203C
2038
ENDCHAR
STARTCHAR 4F5E
ENCODING 20318
SWIDTH 1020 0
DWIDTH 17 0
BBX 16 16 0 -1
BITMAP
0800
0BFC
0BFC
13FC
1000
2FFF
6FFF
E0C0
AFFF
2FFF
2188
2390
23F0
21FC
2FCE
2E06
ENDCHAR
STARTCHAR 4F69
ENCODING 20329
SWIDTH 1020 0
DWIDTH 17 0
BBX 16 16 0 -1
BITMAP
1000
17FE
17FE
17FE
2402
25FA
65FA
E422
A5FA
25FA
25AA
25AA
25BA
29BA
3823
3021
ENDCHAR
STARTCHAR 4F6F
ENCODING 20335
SWIDTH 1020 0
DWIDTH 17 0
BBX 16 16 0 -1
BITMAP
0988
09D8
09D8
17FE
17FE
2020
6020
E3FC
A3FC
2020
2020
2FFF
2FFF
2020
2020
2020
ENDCHAR
STARTCHAR 4F70
ENCODING 20336
SWIDTH 1020 0
DWIDTH 17 0
BBX 16 16 0 -1
BITMAP
1000
17FF
17FF
17FF
2020
20C0
63FC
E3FC
A204
2204
23FC
23FC
2204
2204
23FC
23FC
ENDCHAR
STARTCHAR 4F73
ENCODING 20339
SWIDTH 1020 0
DWIDTH 17 0
BBX 16 16 0 -1
BITMAP
10C0
17FC
17FC
17FC
20C0
20C0
6FFE
EFFE
A000
20C0
27FC
27FC
20C0
20C0
2FFF
2FFF
ENDCHAR
STARTCHAR 4F75
ENCODING 20341
SWIDTH 1020 0
DWIDTH 17 0
BBX 16 16 0 -1
BITMAP
0988
09D8
09D8
10D0
17FE
27FE
6188
E188
AFFF
2FFF
2188
2188
2188
2208
2E08
2C08
ENDCHAR
STARTCHAR 4F76
ENCODING 20342
SWIDTH 1020 0
DWIDTH 17 0
BBX 16 16 0 -1
BITMAP
1020
1020
1020
1FFF
2FFF
2020
6020
E7FE
A7FE
2000
23FC
23FC
2204
2204
23FC
23FC
ENDCHAR
STARTCHAR 4F7B
ENCODING 20347
SWIDTH 1020 0
DWIDTH 17 0
BBX 16 16 0 -1
BITMAP
1190
1190
1190
1190
2992
2D9E
659C
E590
A190
239C
2F9E
2D92
2191
2211
2E1F
2C0E
ENDCHAR
STARTCHAR 4F7C
ENCODING 20348
SWIDTH 1020 0
DWIDTH 17 0
BBX 16 16 0 -1
BITMAP
1020
1020
1020
1FFF
2FFF
2188
638C
EE07
AD8B
2188
20D0
20F0
20F0
23DC
2F8F
2C03
ENDCHAR
STARTCHAR 4F7F
ENCODING 20351
SWIDTH 1020 0
DWIDTH 17 0
BBX 16 16 0 -1
BITMAP
1020
1020
1020
1FFF
2FFF
2020
67FC
E7FC
A424
27FC
27FC
2220
21C0
21F0
2FBF
2E0F
ENDCHAR
STARTCHAR 4F83
ENCODING 20355
SWIDTH 1020 0
DWIDTH 17 0
BBX 16 16 0 -1
BITMAP
0800
0BFC
0BFC
13FC
1204
3204
63FC
E3FC
A000
2228
2228
2228
2229
2229
2E2F
2C06
ENDCHAR
STARTCHAR 4F86
ENCODING 20358
SWIDTH 1020 0
DWIDTH 17 0
BBX 16 16 0 -1
BITMAP
0180
0180
0180
FFFF
FFFF
1188
1188
299C
EDB7
C7E3
05A0
0DB0
399C
F18F
C183
0180
ENDCHAR
STARTCHAR 4F88
ENCODING 20360
SWIDTH 1020 0
DWIDTH 17 0
BBX 15 16 0 -1
BITMAP
10C0
11FC
11FC
13FC
2F98
2CF0
61E0
EFC0
AE20
20FE
27FE
27CC
2038
21F0
2FC0
2E00
ENDCHAR
STARTCHAR 4F8B
ENCODING 20363
SWIDTH 1020 0
DWIDTH 17 0
BBX 15 16 0 -1
BITMAP
1002
1FE2
1FE2
1FF2
2412
2412
67D2
EFD2
A8D2
3CD2
3792
2392
2202
2602
2C1E
281C
ENDCHAR
STARTCHAR 4F8D
ENCODING 20365
SWIDTH 1020 0
DWIDTH 17 0
BBX 16 16 0 -1
BITMAP
1020
17FE
17FE
17FE
2020
2FFF
6FFF
E008
A7FF
27FF
2208
2388
2188
2008
20F8
20F0
ENDCHAR
STARTCHAR 4F8F
ENCODING 20367
SWIDTH 1020 0
DWIDTH 17 0
BBX 16 16 0 -1
BITMAP
1020
1220
1220
1220
23FE
27FE
6C20
E820
AFFF
2FFF
20F0
21A8
23AC
2E27
2C23
2020
ENDCHAR
STARTCHAR 4F91
ENCODING 20369
SWIDTH 1020 0
DWIDTH 17 0
BBX 16 16 0 -1
BITMAP
10C0
17FF
17FF
17FF
2180
21FC
63FC
E784
ADFC
29FC
2184
21FC
21FC
2184
219C
2198
ENDCHAR
STARTCHAR 4F96
ENCODING 20374
SWIDTH 1020 0
DWIDTH 17 0
BBX 16 16 0 -1
BITMAP
0180
03C0
03C0
06E0
0C30
3FFC
F7EF
C003
3FFC
3FFC
24C4
3FFC
3FFC
24C4
24DC
24D8
ENDCHAR
STARTCHAR 4F98
ENCODING 20376
SWIDTH 1020 0
DWIDTH 17 0
BBX 16 16 0 -1
BITMAP
10C0
10C0
10C0
1FFE
2FFE
280A
6BFA
E3F0
A0C0
2FFF
2FFF
20C0
20C2
20C2
20FE
203C
ENDCHAR
STARTCHAR 4F9B
ENCODING 20379
SWIDTH 1020 0
DWIDTH 17 0
BBX 16 16 0 -1
BITMAP
1190
1190
1190
1190
2FFE
2FFE
6190
E190
A190
3FFF
3FFF
2000
2190
2398
2E0F
2C07
ENDCHAR
STARTCHAR 4F9D
ENCODING 20381
SWIDTH 1020 0
DWIDTH 17 0
BBX 16 16 0 -1
BITMAP
1020
1020
1020
1020
2FFF
2FFF
60C2
E1C6
A3AC
2E28
2E10
2210
2208
22EC
2FE7
2F83
ENDCHAR
STARTCHAR 4FA0
ENCODING 20384
SWIDTH 1020 0
DWIDTH 17 0
BBX 16 16 0 -1
BITMAP
0820
0820
0820
17FE
17FE
2224
63AC
E1A8
AFFF
2FFF
20D0
20D0
2188
238C
2E07
2C03
ENDCHAR
STARTCHAR 4FA1
ENCODING 20385
SWIDTH 1020 0
DWIDTH 17 0
BBX 16 16 0 -1
BITMAP
1000
17FF
17FF
17FF
20D0
20D0
67FE
E7FE
A4D2
24D2
24D2
24D2
24D2
24D2
27FE
27FE
ENDCHAR
STARTCHAR 4FAB
ENCODING 20395
SWIDTH 1020 0
DWIDTH 17 0
BBX 16 16 0 -1
BITMAP
0820
0820
0820
17FF
17FF
2200
63FE
E1FE
A0C0
2FFF
2FFF
2188
2390
21F8
2FFE
2F86
ENDCHAR
STARTCHAR 4FAD
ENCODING 20397
SWIDTH 1020 0
DWIDTH 17 0
BBX 16 16 0 -1
BITMAP
0800
0BFC
0BFC
13FC
1204
2204
63FC
E3FC
A208
25E8
25F4
2C16
3BC3
33F1
2038
2008
ENDCHAR
STARTCHAR 4FAE
ENCODING 20398
SWIDTH 1020 0
DWIDTH 17 0
BBX 16 16 0 -1
BITMAP
0980
0980
0980
13FF
13FF
2600
6FFC
EBFC
A224
2224
2FFF
2FFF
2424
2424
27FC
27FC
ENDCHAR
STARTCHAR 4FAF
ENCODING 20399
SWIDTH 1020 0
DWIDTH 17 0
BBX 16 16 0 -1
BITMAP
1000
13F8
13F8
13F8
2008
2FFF
6FFF
E180
A3FC
27FC
2420
2FFF
2FFF
21D8
2F8F
2E07
ENDCHAR
STARTCHAR 4FB5
ENCODING 20405
SWIDTH 1020 0
DWIDTH 17 0
BBX 15 16 0 -1
BITMAP
0800
0BF8
0BF8
13F8
1008
23F8
63F8
E008
AFFE
2FFE
2802
23FC
23FC
20D0
2FFE
2F9E
ENDCHAR
STARTCHAR 4FB6
ENCODING 20406
SWIDTH 1020 0
DWIDTH 17 0
BBX 15 16 0 -1
BITMAP
0800
0BFC
0BFC
13FC
1204
2204
63FC
E3FC
A0C0
2180
27FE
27FE
2402
2402
27FE
27FE
ENDCHAR
STARTCHAR 4FBF
ENCODING 20415
SWIDTH 1020 0
DWIDTH 17 0
BBX 16 16 0 -1
BITMAP
1000
1FFF
1FFF
1FFF
27FC
24C4
67FC
E7FC
A4C4
27FC
27FC
22C0
21E0
23B8
2E1F
2C07
ENDCHAR
STARTCHAR 4FC2
ENCODING 20418
SWIDTH 1020 0
DWIDTH 17 0
BBX 16 16 0 -1
BITMAP
101C
17FC
17FC
17E0
20C8
23D8
63B4
E0E6
AFFF
2FFF
2021
2224
2224
2E27
2C23
2020
ENDCHAR
STARTCHAR 4FC3
ENCODING 20419
SWIDTH 1020 0
DWIDTH 17 0
BBX 16 16 0 -1
BITMAP
1000
13FC
13FC
13FC
3204
2204
63FC
E3FC
A020
2220
223E
223E
2220
27A0
2DFF
28FF
ENDCHAR
STARTCHAR 4FC4
ENCODING 20420
SWIDTH 1020 0
DWIDTH 17 0
BBX 16 16 0 -1
BITMAP
10D0
1FD4
1FD4
1F96
2212
2FFF
6FFF
E210
A212
23D2
2FD4
2E0C
2209
221D
2FF7
2DE2
ENDCHAR
STARTCHAR 4FCA
ENCODING 20426
SWIDTH 1020 0
DWIDTH 17 0
BBX 16 16 0 -1
BITMAP
08C0
08CC
08CC
17FE
17F6
20D0
61D0
EF9F
AF8F
21F8
23F8
2F98
2CF0
21F8
2FDF
2E07
ENDCHAR
STARTCHAR 4FCE
ENCODING 20430
SWIDTH 1020 0
DWIDTH 17 0
BBX 16 15 0 -1
BITMAP
11F8
11F8
11F8
1188
2988
EDF8
C5F8
1188
1188
11F8
29F8
ED88
C588
0FFF
0FFF
ENDCHAR
STARTCHAR 4FD0
ENCODING 20432
SWIDTH 1020 0
DWIDTH 17 0
BBX 15 16 0 -1
BITMAP
1022
11E2
11E2
1FD2
2F92
2192
6FF2
EFF2
A392
23D2
25F2
2DB2
3982
3182
219E
219C
ENDCHAR
STARTCHAR 4FD1
ENCODING 20433
SWIDTH 1020 0
DWIDTH 17 0
BBX 15 16 0 -1
BITMAP
0800
0BFC
0BFC
13FC
10D0
27FE
67FE
E422
A7FE
27FE
2422
27FE
27FE
2422
242E
242C
ENDCHAR
STARTCHAR 4FD4
ENCODING 20436
SWIDTH 1020 0
DWIDTH 17 0
BBX 16 16 0 -1
BITMAP
0800
0BFC
0BFC
13FC
1204
23FC
63FC
E204
A3FC
23FC
2204
23FC
23FD
2191
2F9F
2E0E
ENDCHAR
STARTCHAR 4FD7
ENCODING 20439
SWIDTH 1020 0
DWIDTH 17 0
BBX 16 16 0 -1
BITMAP
1210
1218
1218
160E
2CC6
29E0
61B0
E398
A60C
3C07
3BFB
23F8
2208
2208
23F8
23F8
ENDCHAR
STARTCHAR 4FD8
ENCODING 20440
SWIDTH 1020 0
DWIDTH 17 0
BBX 16 16 0 -1
BITMAP
100E
17FE
17FE
17F4
22CC
21A8
67FC
E7FC
A0D8
2030
2FFF
2FFF
2020
2020
23E0
23C0
ENDCHAR
STARTCHAR 4FDA
ENCODING 20442
SWIDTH 1020 0
DWIDTH 17 0
BBX 16 16 0 -1
BITMAP
0800
0BFC
0BFC
13FC
1224
23FC
63FC
E224
A3FC
23FC
2020
27FE
27FE
2020
2FFF
2FFF
ENDCHAR
STARTCHAR 4FDB
ENCODING 20443
SWIDTH 1020 0
DWIDTH 17 0
BBX 16 16 0 -1
BITMAP
0980
09F8
09F8
13F8
1210
27FC
6FFC
FCC4
B4C4
27FC
27FC
21A0
21A1
2221
2E3F
2C1E
ENDCHAR
STARTCHAR 4FDD
ENCODING 20445
SWIDTH 1020 0
DWIDTH 17 0
BBX 16 16 0 -1
BITMAP
0800
0BFC
0BFC
13FC
1204
23FC
63FC
E020
AFFF
2FFF
20F0
21A8
23AC
2E27
2C23
2020
ENDCHAR
STARTCHAR 4FDF
ENCODING 20447
SWIDTH 1020 0
DWIDTH 17 0
BBX 16 16 0 -1
BITMAP
10C0
10C8
10C8
118C
2FFE
2FF6
6200
E3FC
A7FC
2CC0
2FFE
2FFE
2190
2398
2E0F
2C07
ENDCHAR
STARTCHAR 4FE1
ENCODING 20449
SWIDTH 1020 0
DWIDTH 17 0
BBX 16 16 0 -1
BITMAP
0800
0BFC
0BFC
13FC
1000
27FF
67FF
E000
A3FC
23FC
2000
23FC
23FC
2204
23FC
23FC
ENDCHAR
STARTCHAR 4FE3
ENCODING 20451
SWIDTH 1020 0
DWIDTH 17 0
BBX 16 16 0 -1
BITMAP
0800
0BFC
0BFC
13FC
1204
23FC
63FC
E000
A7FE
27FE
2020
2FFF
2FFF
20D0
2FDF
2F8F
ENDCHAR
STARTCHAR 4FE4
ENCODING 20452
SWIDTH 1020 0
DWIDTH 17 0
BBX 15 16 0 -1
BITMAP
0988
09D8
09D8
17FC
17FC
2024
67FC
E7FC
A420
2FFE
2FFE
21A2
23A2
2E2E
2C2C
2020
ENDCHAR
STARTCHAR 4FE5
ENCODING 20453
SWIDTH 1020 0
DWIDTH 17 0
BBX 16 16 0 -1
BITMAP
0820
0FFE
0FFE
17FE
1020
23FC
63FC
E224
A3FC
23FC
2224
23FC
2FFF
2FFF
2020
2020
ENDCHAR
STARTCHAR 4FEE
ENCODING 20462
SWIDTH 1020 0
DWIDTH 17 0
BBX 16 16 0 -1
BITMAP
10C0
10C0
10C0
11FF
2BFF
2EC4
6C38
EBEF
ABD7
2834
2BEC
2BDA
29F6
28EC
23F8
23F0
ENDCHAR
STARTCHAR 4FEF
ENCODING 20463
SWIDTH 1020 0
DWIDTH 17 0
BBX 16 16 0 -1
BITMAP
0820
0820
0820
17FF
17FF
24C4
64C4
E5FF
A5BF
27A4
27B4
2594
2984
3984
319C
2198
ENDCHAR
STARTCHAR 4FF3
ENCODING 20467
SWIDTH 1020 0
DWIDTH 17 0
BBX 16 16 0 -1
BITMAP
1190
1190
1190
1190
2F9F
2F9F
6190
EF9E
AF9E
2190
2F9F
2F9F
2190
2390
2E10
2C10
ENDCHAR
STARTCHAR 4FF5
ENCODING 20469
SWIDTH 1020 0
DWIDTH 17 0
BBX 16 16 0 -1
BITMAP
0820
0FFE
0FFE
17FE
1020
23FC
63FC
E020
AFFF
2FFF
2396
2F94
2D88
21EC
27E7
2783
ENDCHAR
STARTCHAR 4FF6
ENCODING 20470
SWIDTH 1020 0
DWIDTH 17 0
BBX 16 16 0 -1
BITMAP
1200
1200
1200
13FE
23FE
2212
7FF2
FFF4
A214
2B94
2BC8
3AC8
32D4
2E36
2DE3
21C1
ENDCHAR
STARTCHAR 4FF8
ENCODING 20472
SWIDTH 1020 0
DWIDTH 17 0
BBX 16 16 0 -1
BITMAP
0820
0FFE
0FFE
17FE
1020
23FC
6FFF
EFFF
A1A8
23FC
2FFF
2C23
27FE
27FE
2020
2020
ENDCHAR
STARTCHAR 4FFA
ENCODING 20474
SWIDTH 1020 0
DWIDTH 17 0
BBX 16 16 0 -1
BITMAP
10C0
1FFE
1FFE
1FFE
21A0
2210
6FFC
FCCF
B7FB
27F8
24C8
27F8
27F9
20C1
20FF
203E
ENDCHAR
STARTCHAR 4FFE
ENCODING 20478
SWIDTH 1020 0
DWIDTH 17 0
BBX 16 16 0 -1
BITMAP
08C0
08C0
08C0
13FC
13FC
2224
63FC
E3FC
A224
23FC
23FC
2190
2FFF
2FFF
2010
2010
ENDCHAR
STARTCHAR 5005
ENCODING 20485
SWIDTH 1020 0
DWIDTH 17 0
BBX 16 16 0 -1
BITMAP
0820
0820
0820
17FE
17FE
2208
6208
E79C
ADD6
28E2
2FFF
2FFF
2020
2020
2020
2020
ENDCHAR
STARTCHAR 5006
ENCODING 20486
SWIDTH 1020 0
DWIDTH 17 0
BBX 16 16 0 -1
BITMAP
1000
17FF
17FF
17FF
2020
27FE
67FE
E422
A7BA
27BA
25AA
27FE
26F6
2422
242E
242C
ENDCHAR
STARTCHAR 5009
ENCODING 20489
SWIDTH 1020 0
DWIDTH 17 0
BBX 16 16 0 -1
BITMAP
0180
03C0
03C0
06E0
0DB0
3FFC
FFFF
C813
0FF0
0FF0
0800
1FF8
7FF8
6808
0FF8
0FF8
ENDCHAR
STARTCHAR 500B
ENCODING 20491
SWIDTH 1020 0
DWIDTH 17 0
BBX 15 16 0 -1
BITMAP
1000
17FE
17FE
17FE
2422
27FE
67FE
E422
A5FA
25FA
258A
25FA
25FA
2402
27FE
27FE
ENDCHAR
STARTCHAR 500D
ENCODING 20493
SWIDTH 1020 0
DWIDTH 17 0
BBX 16 16 0 -1
BITMAP
1020
1020
1020
17FE
27FE
2388
6198
EFFF
AFFF
2000
23FC
23FC
2204
2204
23FC
23FC
ENDCHAR
STARTCHAR 500F
ENCODING 20495
SWIDTH 1020 0
DWIDTH 17 0
BBX 16 16 0 -1
BITMAP
10C0
10FC
10FC
11FC
23C8
2A38
68FC
EBEF
ABAB
2828
2BFE
2BFE
28D0
29D8
278F
2607
ENDCHAR
STARTCHAR 5011
ENCODING 20497
SWIDTH 1020 0
DWIDTH 17 0
BBX 15 16 0 -1
BITMAP
1000
17DE
17DE
17DE
24D2
27DE
67DE
E402
A402
2402
2402
2402
2402
2402
240E
240C
ENDCHAR
STARTCHAR 5012
ENCODING 20498
SWIDTH 1020 0
DWIDTH 17 0
BBX 15 16 0 -1
BITMAP
1002
1FEA
1FEA
1FEA
24CA
2FEA
6FAA
E20A
AFEA
2FEA
220A
220A
23E2
2FE2
2E0E
200C
ENDCHAR
STARTCHAR 5014
ENCODING 20500
SWIDTH 1020 0
DWIDTH 17 0
BBX 15 16 0 -1
BITMAP
1000
17FE
17FE
17FE
2402
27FE
67FE
E594
A594
25FC
25FC
2612
2A12
3A12
33FE
23FE
ENDCHAR
STARTCHAR 5016
ENCODING 20502
SWIDTH 1020 0
DWIDTH 17 0
BBX 16 16 0 -1
BITMAP
1020
17FE
17FE
17FE
2020
2FFF
6FFF
E188
A1D8
2FFF
2FFF
2020
27FE
27FE
2020
2020
ENDCHAR
STARTCHAR 5019
ENCODING 20505
SWIDTH 1020 0
DWIDTH 17 0
BBX 16 16 0 -1
BITMAP
1000
11F8
11F8
11F8
2808
2BFF
6BFF
E980
ABFE
2FFE
2C20
2BFF
2BFF
21D8
2F8F
2E07
ENDCHAR
STARTCHAR 501A
ENCODING 20506
SWIDTH 1020 0
DWIDTH 17 0
BBX 16 16 0 -1
BITMAP
10C0
17FE
17FE
17FE
21B0
2398
6608
FFFF
BFFF
2004
27E4
27E4
2424
27E4
27FC
2018
ENDCHAR
STARTCHAR 501F
ENCODING 20511
SWIDTH 1020 0
DWIDTH 17 0
BBX 16 16 0 -1
BITMAP
1190
17FE
17FE
17FE
2190
2FFF
6FFF
E000
A3F8
23F8
2208
23F8
23F8
2208
23F8
23F8
ENDCHAR
STARTCHAR 5021
ENCODING 20513
SWIDTH 1020 0
DWIDTH 17 0
BBX 15 16 0 -1
BITMAP
0800
0BFC
0BFC
13FC
1204
23FC
63FC
E204
A7FE
27FE
2402
27FE
27FE
2402
27FE
27FE
ENDCHAR
STARTCHAR 5023
ENCODING 20515
SWIDTH 1020 0
DWIDTH 17 0
BBX 16 16 0 -1
BITMAP
1210
1210
1210
1FF0
3FFF
243F
64E4
E7D4
A7D4
24D4
24C8
24C8
24DC
2994
3FF7
36E3
ENDCHAR
STARTCHAR 5024
ENCODING 20516
SWIDTH 1020 0
DWIDTH 17 0
BBX 16 16 0 -1
BITMAP
1020
17FE
17FE
17FE
2020
21FC
65FC
E584
A5FC
25FC
2584
25FC
25FC
2400
27FF
27FF
ENDCHAR
STARTCHAR 5025
ENCODING 20517
SWIDTH 1020 0
DWIDTH 17 0
BBX 16 16 0 -1
BITMAP
0820
0820
0820
17FE
17FE
24D2
6190
EF9F
AE0F
2000
27FE
27FE
2020
2020
2FFF
2FFF
ENDCHAR
STARTCHAR 5026
ENCODING 20518
SWIDTH 1020 0
DWIDTH 17 0
BBX 16 16 0 -1
BITMAP
12C8
17FC
17FC
17FC
30C0
2FFF
6FFF
E210
A7F8
3FFF
3817
23F0
23F4
2204
23FC
21F8
ENDCHAR
STARTCHAR 5028
ENCODING 20520
SWIDTH 1020 0
DWIDTH 17 0
BBX 16 16 0 -1
BITMAP
1000
17FE
17FE
17FE
2402
27FE
67FE
E420
A7FF
27FF
2420
25FC
29FC
3984
31FC
21FC
ENDCHAR
STARTCHAR 5029
ENCODING 20521
SWIDTH 1020 0
DWIDTH 17 0
BBX 16 16 0 -1
BITMAP
1020
17FE
17FE
17FE
2020
23FC
63FC
E020
AFFF
2FFF
2204
23FC
23FC
2204
223C
2238
ENDCHAR
STARTCHAR 502A
ENCODING 20522
SWIDTH 1020 0
DWIDTH 17 0
BBX 16 16 0 -1
BITMAP
10E0
17FE
17FE
179E
2402
27DE
67DE
E402
A7FE
27FE
20D0
20D0
2191
2391
2E1F
2C0E
ENDCHAR
STARTCHAR 502B
ENCODING 20523
SWIDTH 1020 0
DWIDTH 17 0
BBX 16 16 0 -1
BITMAP
10C0
11E0
11E0
11B0
2398
27FC
6DF7
E803
A7FC
27FC
25A4
27FC
27FC
25A4
25AC
25AC
ENDCHAR
STARTCHAR 502C
ENCODING 20524
SWIDTH 1020 0
DWIDTH 17 0
BBX 16 16 0 -1
BITMAP
0820
083E
083E
103E
1020
23FC
63FC
E204
A3FC
23FC
2204
23FC
2FFF
2FFF
2020
2020
ENDCHAR
STARTCHAR 502D
ENCODING 20525
SWIDTH 1020 0
DWIDTH 17 0
BBX 16 16 0 -1
BITMAP
080C
0BFC
0BFC
13F0
1020
2FFF
6FFF
E1A8
AFAF
2EE7
20C0
2FFF
2FFF
2198
2FFE
2F8E
ENDCHAR
STARTCHAR 5036
ENCODING 20534
SWIDTH 1020 0
DWIDTH 17 0
BBX 16 16 0 -1
BITMAP
0800
0BFC
0BFC
13FC
1204
23FC
63FC
E204
A3FC
23FC
2204
2FFF
2FFF
2188
2F8F
2E07
ENDCHAR
STARTCHAR 5039
ENCODING 20537
SWIDTH 1020 0
DWIDTH 17 0
BBX 16 16 0 -1
BITMAP
10C0
11E0
11E0
13B0
27FC
3DEF
78C3
E7FC
A7FC
24C4
27FC
27FC
21A0
23B0
2E1E
2C0E
ENDCHAR
STARTCHAR 5043
ENCODING 20547
SWIDTH 1020 0
DWIDTH 17 0
BBX 16 16 0 -1
BITMAP
1000
17FE
17FE
17FE
24C4
24FC
64FC
E4C4
A7FF
27FF
24CC
25F8
243C
25E6
27FF
27FF
ENDCHAR
STARTCHAR 5047
ENCODING 20551
SWIDTH 1020 0
DWIDTH 17 0
BBX 16 16 0 -1
BITMAP
1000
17DE
17DE
17DE
24C2
27DE
67DE
E400
A7C0
27FE
243E
27D2
27CC
241C
24F7
24E3
ENDCHAR
STARTCHAR 5048
ENCODING 20552
SWIDTH 1020 0
DWIDTH 17 0
BBX 15 16 0 -1
BITMAP
0800
0BF8
0BF8
13F8
1208
23F8
63F8
E208
A7FE
2FFE
3C22
37E2
27C2
2412
27FE
23EC
ENDCHAR
STARTCHAR 5049
ENCODING 20553
SWIDTH 1020 0
DWIDTH 17 0
BBX 16 16 0 -1
BITMAP
10C0
10C0
10C0
17FC
27FC
20C4
6FFF
EFFF
A208
27FC
27FC
2190
2FFF
2FFF
2010
2010
ENDCHAR
STARTCHAR 504F
ENCODING 20559
SWIDTH 1020 0
DWIDTH 17 0
BBX 15 16 0 -1
BITMAP
1000
1FFE
1FFE
1FFE
3000
27FC
67FC
E404
A7FE
27FE
26D2
2BFE
3BFE
32D2
22D6
22D6
ENDCHAR
STARTCHAR 5050
ENCODING 20560
SWIDTH 1020 0
DWIDTH 17 0
BBX 16 16 0 -1
BITMAP
0820
0FFE
0FFE
17FE
1188
27FF
67FF
E418
A5F4
25CC
2438
25F2
29C6
381C
33F8
23E0
ENDCHAR
STARTCHAR 5055
ENCODING 20565
SWIDTH 1020 0
DWIDTH 17 0
BBX 16 16 0 -1
BITMAP
1412
17DE
17DE
17DC
2431
2FFF
6FCE
E020
A3FC
23FC
2204
23FC
23FC
2204
23FC
23FC
ENDCHAR
STARTCHAR 5056
ENCODING 20566
SWIDTH 1020 0
DWIDTH 17 0
BBX 16 16 0 -1
BITMAP
10C4
17FC
17FC
17FC
20C8
2FFF
6FFF
E180
A7F8
3FF8
3A08
23F8
23F8
2208
23F8
23F8
ENDCHAR
STARTCHAR 505A
ENCODING 20570
SWIDTH 1020 0
DWIDTH 17 0
BBX 16 16 0 -1
BITMAP
1210
1210
1210
1210
2FDF
2FFF
6224
E2E4
AFD4
2FD4
28D8
28C8
2FC8
2FD4
20F7
20E3
ENDCHAR
STARTCHAR 505C
ENCODING 20572
SWIDTH 1020 0
DWIDTH 17 0
BBX 16 16 0 -1
BITMAP
1020
17FE
17FE
17FE
2000
21F8
61F8
E188
AFFF
2FFF
2801
27FE
27FE
2020
21E0
21C0
ENDCHAR
STARTCHAR 5065
ENCODING 20581
SWIDTH 1020 0
DWIDTH 17 0
BBX 16 16 0 -1
BITMAP
1010
1EFC
1EFC
1EFC
2414
25FF
69FF
FE14
BEFE
2AFE
2A10
2FFF
25FF
2E10
3BFF
31FF
ENDCHAR
STARTCHAR 506C
ENCODING 20588
SWIDTH 1020 0
DWIDTH 17 0
BBX 16 16 0 -1
BITMAP
1180
1180
1180
13FE
2FFE
2DD2
67B2
E6E2
A1F4
279C
26D8
21E4
25A6
258B
2DF9
28F0
ENDCHAR
STARTCHAR 5072
ENCODING 20594
SWIDTH 1020 0
DWIDTH 17 0
BBX 16 16 0 -1
BITMAP
0800
0BFC
0BFC
13FC
1224
33FC
63FC
E224
A3FC
23FC
20D0
22DA
22DB
22C7
2EFC
2C38
ENDCHAR
STARTCHAR 5074
ENCODING 20596
SWIDTH 1020 0
DWIDTH 17 0
BBX 15 16 0 -1
BITMAP
1002
17CA
17CA
17CA
24CA
27CA
67CA
E4CA
A7CA
27CA
24CA
27CA
27C2
22C2
2EEE
2CEC
ENDCHAR
STARTCHAR 5075
ENCODING 20597
SWIDTH 1020 0
DWIDTH 17 0
BBX 16 16 0 -1
BITMAP
0820
083F
083F
103F
1020
23FC
63FC
E204
A3FC
23FC
2204
23FC
23FC
2190
2F9F
2E0F
ENDCHAR
STARTCHAR 5076
ENCODING 20598
SWIDTH 1020 0
DWIDTH 17 0
BBX 15 16 0 -1
BITMAP
1000
17FC
17FC
17FC
24C4
27FC
67FC
E4C4
A7FC
27FC
20C0
2FFE
2FFE
28CA
2BFE
2BF6
ENDCHAR
STARTCHAR 5078
ENCODING 20600
SWIDTH 1020 0
DWIDTH 17 0
BBX 16 16 0 -1
BITMAP
08C0
09E0
09E0
13B0
161C
2FFF
6BF3
E004
A7D4
27D4
24D4
27D4
27D4
24C4
25DC
25D8
ENDCHAR
STARTCHAR 507D
ENCODING 20605
SWIDTH 1020 0
DWIDTH 17 0
BBX 15 16 0 -1
BITMAP
14C0
16C0
16C0
1FF0
2FF0
2190
63F8
E3F8
A608
2FFE
3FFE
32D2
25AA
2DAA
299E
201C
ENDCHAR
STARTCHAR 5080
ENCODING 20608
SWIDTH 1020 0
DWIDTH 17 0
BBX 16 16 0 -1
BITMAP
10C0
10C0
10C0
17FC
27FC
2424
67FC
E7FC
A424
27FC
27FC
21AC
21BE
2233
2E3F
2C1E
ENDCHAR
STARTCHAR 5085
ENCODING 20613
SWIDTH 1020 0
DWIDTH 17 0
BBX 16 16 0 -1
BITMAP
1024
17FF
17FF
17FF
2020
23FC
63FC
E224
A3FC
23FC
2008
2FFF
2FFF
2208
23B8
21B0
ENDCHAR
STARTCHAR 508D
ENCODING 20621
SWIDTH 1020 0
DWIDTH 17 0
BBX 16 16 0 -1
BITMAP
1020
17FE
17FE
17FE
2188
2FFF
6FFF
E821
A7FE
27FE
2180
21FC
21FC
2384
2E3C
2C38
ENDCHAR
STARTCHAR 5091
ENCODING 20625
SWIDTH 1020 0
DWIDTH 17 0
BBX 16 16 0 -1
BITMAP
1404
17DF
17DF
17DF
2CD4
2BBF
63BF
EE04
AC24
2020
2FFF
2FFF
21A8
23AC
2E27
2C23
ENDCHAR
STARTCHAR 5098
ENCODING 20632
SWIDTH 1020 0
DWIDTH 17 0
BBX 16 16 0 -1
BITMAP
0180
03C0
03C0
0EF0
FDBF
F18F
399C
6DB6
55AA
399C
6DB6
FFFF
FFFF
0180
0180
0180
ENDCHAR
STARTCHAR 5099
ENCODING 20633
SWIDTH 1020 0
DWIDTH 17 0
BBX 16 16 0 -1
BITMAP
10C8
17FE
17FE
17FE
20C8
27FF
67FF
E400
A5FE
25FE
2592
25FE
29FE
3992
3196
2196
ENDCHAR
STARTCHAR 509A
ENCODING 20634
SWIDTH 1020 0
DWIDTH 17 0
BBX 16 16 0 -1
BITMAP
1210
1210
1210
1FD0
2FFF
25BF
6DE2
F8E2
B5B2
2594
2594
2208
2208
2594
2DF7
28E3
ENDCHAR
STARTCHAR 50AC
ENCODING 20652
SWIDTH 1020 0
DWIDTH 17 0
BBX 16 16 0 -1
BITMAP
1222
13FE
13FE
13FE
2190
23FE
67FE
EE20
ABFE
23FE
2220
23FE
23FE
2220
23FF
23FF
ENDCHAR
STARTCHAR 50AD
ENCODING 20653
SWIDTH 1020 0
DWIDTH 17 0
BBX 16 16 0 -1
BITMAP
1010
17FF
17FF
17FF
2414
27FF
67FF
E414
A5FE
25FE
2592
25FE
29FE
3992
319E
219C
ENDCHAR
STARTCHAR 50B2
ENCODING 20658
SWIDTH 1020 0
DWIDTH 17 0
BBX 16 16 0 -1
BITMAP
1210
17D0
17D0
17D0
223F
2FFF
6FC2
E212
AFD4
2FD4
240C
27C8
27CC
28D4
3BF7
33A3
ENDCHAR
STARTCHAR 50B3
ENCODING 20659
SWIDTH 1020 0
DWIDTH 17 0
BBX 16 16 0 -1
BITMAP
1020
17FF
17FF
17FF
2224
23FC
63FC
E224
AFFF
2FFF
2008
2FFF
2FFF
2208
23B8
21B0
ENDCHAR
STARTCHAR 50B4
ENCODING 20660
SWIDTH 1020 0
DWIDTH 17 0
BBX 16 16 0 -1
BITMAP
1000
17FE
17FE
17FE
24C4
24FC
64FC
E400
A5EE
25EE
25AA
25EE
25EE
2400
27FF
27FF
ENDCHAR
STARTCHAR 50B5
ENCODING 20661
SWIDTH 1020 0
DWIDTH 17 0
BBX 16 16 0 -1
BITMAP
1020
13FE
13FE
13FE
2020
2FFF
6FFF
E204
A3FC
23FC
2204
23FC
23FC
2188
2F8F
2E07
ENDCHAR
STARTCHAR 50B7
ENCODING 20663
SWIDTH 1020 0
DWIDTH 17 0
BBX 16 16 0 -1
BITMAP
1200
13FE
13FE
17FE
2E08
2BF8
63F8
E208
AFFF
2FFF
2180
2FFE
2FFE
2222
2FFE
2DDC
ENDCHAR
STARTCHAR 50BE
ENCODING 20670
SWIDTH 1020 0
DWIDTH 17 0
BBX 16 16 0 -1
BITMAP
1000
13FF
13FF
13FF
2820
2AFC
6AFC
EEC4
ACFC
28FC
2AC4
2AFC
2EFC
2628
21EF
21C7
ENDCHAR
STARTCHAR 50C2
ENCODING 20674
SWIDTH 1020 0
DWIDTH 17 0
BBX 16 16 0 -1
BITMAP
1020
13FC
13FC
13FC
2224
2FFF
6FFF
E224
A3FC
23FC
20C0
2FFF
2FFF
21D8
2FFE
2FC6
ENDCHAR
STARTCHAR 50C5
ENCODING 20677
SWIDTH 1020 0
DWIDTH 17 0
BBX 16 16 0 -1
BITMAP
1188
1FFF
1FFF
1FFF
2188
23FC
63FC
E224
A3FC
23FC
2020
27FE
27FE
2020
2FFF
2FFF
ENDCHAR
STARTCHAR 50C9
ENCODING 20681
SWIDTH 1020 0
DWIDTH 17 0
BBX 16 16 0 -1
BITMAP
0180
03C0
03C0
06E0
0FF0
3BDC
F00F
FEFF
3EFC
22C4
3EFC
3EFC
0810
1C38
F7EF
E3C7
ENDCHAR
STARTCHAR 50CA
ENCODING 20682
SWIDTH 1020 0
DWIDTH 17 0
BBX 16 16 0 -1
BITMAP
1000
1FFE
1FFE
1FFE
2190
27FC
67FC
E594
AFFF
2FFF
2618
3FFF
3BF7
2204
23FC
21F8
ENDCHAR
STARTCHAR 50CD
ENCODING 20685
SWIDTH 1020 0
DWIDTH 17 0
BBX 15 16 0 -1
BITMAP
17C8
17C8
17C8
1208
3FE8
3FFE
6ADE
EFCA
AFCA
2ACA
2FCA
2FDA
2212
23F2
2FEE
2ECC
ENDCHAR
STARTCHAR 50CF
ENCODING 20687
SWIDTH 1020 0
DWIDTH 17 0
BBX 16 16 0 -1
BITMAP
11F0
11F0
11F0
1390
2FFC
2FFC
64C4
E7FC
A7FE
21C6
2FEC
2EF8
21DC
2F97
2EF3
20E0
ENDCHAR
STARTCHAR 50D1
ENCODING 20689
SWIDTH 1020 0
DWIDTH 17 0
BBX 16 16 0 -1
BITMAP
13FC
13FC
13FC
10C0
2FFF
2FFF
6398
EFFF
ADF7
2000
27FE
27FE
2592
25F2
25FE
240E
ENDCHAR
STARTCHAR 50D5
ENCODING 20693
SWIDTH 1020 0
DWIDTH 17 0
BBX 16 16 0 -1
BITMAP
14D2
1FFF
1FFF
1FFF
2188
27FE
67FE
E020
A3FC
23FC
2020
2FFF
2FFF
20D0
2FDF
2F8F
ENDCHAR
STARTCHAR 50D6
ENCODING 20694
SWIDTH 1020 0
DWIDTH 17 0
BBX 16 16 0 -1
BITMAP
1020
1FFF
1FFF
1FFF
2020
27FE
67FE
E204
A3FC
23FC
20D0
2FFF
2FFF
2204
23FC
23FC
ENDCHAR
STARTCHAR 50DA
ENCODING 20698
SWIDTH 1020 0
DWIDTH 17 0
BBX 16 16 0 -1
BITMAP
1020
17FE
17FE
17FE
24D2
23DC
6F8F
EFFF
A3FC
2204
23FC
23FC
2020
222C
2FEF
2DC3
ENDCHAR
STARTCHAR 50DE
ENCODING 20702
SWIDTH 1020 0
DWIDTH 17 0
BBX 15 16 0 -1
BITMAP
100E
17FE
17FE
17F4
2228
23F8
63F8
E208
A3FC
23FC
2204
27FE
2FFE
3AD2
33FE
21AC
ENDCHAR
STARTCHAR 50E3
ENCODING 20707
SWIDTH 1020 0
DWIDTH 17 0
BBX 16 16 0 -1
BITMAP
1208
17DE
17DE
17DE
2208
2FFF
6FFF
E594
AFFE
3BFF
3205
23FC
23FC
2204
23FC
23FC
ENDCHAR
STARTCHAR 50E5
ENCODING 20709
SWIDTH 1020 0
DWIDTH 17 0
BBX 16 16 0 -1
BITMAP
0820
0BFC
0BFC
13FC
1020
27FE
67FE
E188
AFFF
2FFF
2000
27FE
27FE
20D1
2FDF
2F8E
ENDCHAR
STARTCHAR 50E7
ENCODING 20711
SWIDTH 1020 0
DWIDTH 17 0
BBX 15 16 0 -1
BITMAP
1188
17FE
17FE
17FE
2422
27FE
67FE
E422
A7FE
27FE
2204
23FC
23FC
2204
23FC
23FC
ENDCHAR
STARTCHAR 50ED
ENCODING 20717
SWIDTH 1020 0
DWIDTH 17 0
BBX 16 16 0 -1
BITMAP
1188
17BE
17BE
17BE
25A8
2FFF
6FFF
E6D4
BFFF
3BFF
2204
23FC
23FC
2204
23FC
23FC
ENDCHAR
STARTCHAR 50EE
ENCODING 20718
SWIDTH 1020 0
DWIDTH 17 0
BBX 16 16 0 -1
BITMAP
1020
17FE
17FE
17FE
2188
2FFF
6FFF
E000
A3FC
23FC
2224
27FE
27FE
2020
2FFF
2FFF
ENDCHAR
STARTCHAR 50F5
ENCODING 20725
SWIDTH 1020 0
DWIDTH 17 0
BBX 16 16 0 -1
BITMAP
1000
17FF
17FF
17FF
2224
23FC
63FC
E224
AFFF
2FFF
2224
23FC
23FC
2224
2FFF
2FFF
ENDCHAR
STARTCHAR 50F9
ENCODING 20729
SWIDTH 1020 0
DWIDTH 17 0
BBX 16 16 0 -1
BITMAP
1000
1FFF
1FFF
1FFF
2190
27FE
67FE
E592
A7FE
27FE
2204
23FC
23FC
2190
2F9F
2E0F
ENDCHAR
STARTCHAR 50FB
ENCODING 20731
SWIDTH 1020 0
DWIDTH 17 0
BBX 16 16 0 -1
BITMAP
1008
17C8
17C8
17FE
24FE
27D2
67D6
E4FF
A4FF
2FC8
2FFF
3CFF
34C8
27C8
27C8
2008
ENDCHAR
STARTCHAR 5100
ENCODING 20736
SWIDTH 1020 0
DWIDTH 17 0
BBX 16 16 0 -1
BITMAP
1188
17FE
17FE
17FE
3020
2FFF
6FFF
E1D4
A396
2FFF
2FFF
23D4
2F8D
2D9D
27F7
26E3
ENDCHAR
STARTCHAR 5101
ENCODING 20737
SWIDTH 1020 0
DWIDTH 17 0
BBX 15 16 0 -1
BITMAP
1190
13FE
13FE
17FE
2E20
2BFC
63FC
E220
A3FE
23FE
2000
27DE
27DE
24F2
24F6
2406
ENDCHAR
STARTCHAR 5102
ENCODING 20738
SWIDTH 1020 0
DWIDTH 17 0
BBX 16 16 0 -1
BITMAP
10D0
17FC
17FC
17FC
24D4
27FC
67FC
E000
A7FE
27FE
2400
27FF
2FFF
3992
37FF
27E7
ENDCHAR
STARTCHAR 5104
ENCODING 20740
SWIDTH 1020 0
DWIDTH 17 0
BBX 16 16 0 -1
BITMAP
0820
0FFE
0FFE
17FE
1188
3FFF
6FFF
E204
A3FC
23FC
2204
23FC
23FE
22D3
2EFF
2C3C
ENDCHAR
STARTCHAR 5109
ENCODING 20745
SWIDTH 1020 0
DWIDTH 17 0
BBX 16 16 0 -1
BITMAP
0820
08F0
08F0
11D8
13FC
2EF7
6C03
E7DE
A7DE
24D2
27DE
27DE
2208
239C
2FF7
2CE3
ENDCHAR
STARTCHAR 5112
ENCODING 20754
SWIDTH 1020 0
DWIDTH 17 0
BBX 16 16 0 -1
BITMAP
1000
17FE
17FE
17FE
2020
2FFF
6FFF
EA25
A7FE
27FE
20C0
27FE
27FE
24D2
24D6
24D6
ENDCHAR
STARTCHAR 5114
ENCODING 20756
SWIDTH 1020 0
DWIDTH 17 0
BBX 16 16 0 -1
BITMAP
1020
17FE
17FE
17FE
2020
2FFF
6FFF
E002
A7FE
27FE
2024
2FFF
2FFF
29A4
2FBC
2F98
ENDCHAR
STARTCHAR 5115
ENCODING 20757
SWIDTH 1020 0
DWIDTH 17 0
BBX 16 16 0 -1
BITMAP
1020
1FFF
1FFF
1FFF
20D1
2FFF
6FAE
E5AA
AFAF
2BFD
23FC
2204
23FC
23FC
2E04
2C04
ENDCHAR
STARTCHAR 5116
ENCODING 20758
SWIDTH 1020 0
DWIDTH 17 0
BBX 16 16 0 -1
BITMAP
1008
17E8
17E8
17FF
259F
27F0
67E0
E59E
A7FE
27E0
2000
23FC
23FC
22D4
2FFF
2FFF
ENDCHAR
STARTCHAR 5118
ENCODING 20760
SWIDTH 1020 0
DWIDTH 17 0
BBX 16 16 0 -1
BITMAP
10C0
17F8
17F8
17F8
20C8
2FFF
6FFF
E0C8
BFFF
3FFF
2A24
3FFE
37FA
25A8
3FFF
3FFF
ENDCHAR
STARTCHAR 511A
ENCODING 20762
SWIDTH 1020 0
DWIDTH 17 0
BBX 15 16 0 -1
BITMAP
1190
17FE
17FE
17FE
2190
27FC
67FC
E594
AFFE
2FFE
2982
27FC
26FC
2198
27F0
27E0
ENDCHAR
STARTCHAR 511F
ENCODING 20767
SWIDTH 1020 0
DWIDTH 17 0
BBX 16 16 0 -1
BITMAP
1224
17FE
17FE
17FE
258A
23FC
63FC
E204
A3FC
23FC
2204
23FC
23FC
2188
2F8F
2E07
ENDCHAR
STARTCHAR 5121
ENCODING 20769
SWIDTH 1020 0
DWIDTH 17 0
BBX 16 16 0 -1
BITMAP
0800
0BFC
0BFC
13FC
1224
23FC
63FC
E000
AFDF
2FDF
2AD5
2FDF
2FDF
2AD5
2FDF
2FDF
ENDCHAR
STARTCHAR 512A
ENCODING 20778
SWIDTH 1020 0
DWIDTH 17 0
BBX 16 16 0 -1
BITMAP
0800
0FFE
0FFE
17FE
10C0
23F8
63F8
E208
AFFF
2FFF
2AD5
27FE
27FC
20C8
2FFE
2F8E
ENDCHAR
STARTCHAR 5132
ENCODING 20786
SWIDTH 1020 0
DWIDTH 17 0
BBX 16 16 0 -1
BITMAP
1010
17BE
17BE
17BE
2014
2FFF
6FFF
E010
AFBC
2FFC
20E4
2FBC
2FBC
29A4
2FBC
2FBC
ENDCHAR
STARTCHAR 5137
ENCODING 20791
SWIDTH 1020 0
DWIDTH 17 0
BBX 16 16 0 -1
BITMAP
1000
1FDF
1FDF
1FDF
2000
2FDF
6FFF
E9A5
A7FE
27FE
24CA
27FE
2FFE
39B5
37FF
27DE
ENDCHAR
STARTCHAR 513A
ENCODING 20794
SWIDTH 1020 0
DWIDTH 17 0
BBX 16 16 0 -1
BITMAP
1588
1FEA
1FEA
1FF2
259F
2FFF
6FF4
EADF
AFDF
2FD4
221F
2FDF
2FD4
2214
2FDF
2DDF
ENDCHAR
STARTCHAR 513B
ENCODING 20795
SWIDTH 1020 0
DWIDTH 17 0
BBX 16 16 0 -1
BITMAP
1224
1FFF
1FFF
1FFF
2989
29F9
67FE
E7FE
A5AA
2FFF
2FFF
2020
2FFF
2FFF
2DDB
24C9
ENDCHAR
STARTCHAR 513C
ENCODING 20796
SWIDTH 1020 0
DWIDTH 17 0
BBX 16 16 0 -1
BITMAP
1000
17DE
17DE
17DE
24D2
2FFF
6FFF
E988
AFEF
2FFF
2A3A
2BEA
2BE4
3A2E
37FB
27B1
ENDCHAR
STARTCHAR 513F
ENCODING 20799
SWIDTH 1020 0
DWIDTH 17 0
BBX 16 16 0 -1
BITMAP
0420
0420
0420
0420
0420
0420
0420
0420
0420
0420
0420
0420
0821
1821
F03F
E01E
ENDCHAR
STARTCHAR 5140
ENCODING 20800
SWIDTH 1020 0
DWIDTH 17 0
BBX 16 15 0 -1
BITMAP
FFFF
FFFF
04C0
04C0
04C0
04C0
04C0
04C0
04C0
04C0
04C0
08C1
18C1
F0FF
E03E
ENDCHAR
STARTCHAR 5141
ENCODING 20801
SWIDTH 1020 0
DWIDTH 17 0
BBX 16 16 0 -1
BITMAP
0400
0410
0410
0818
080C
11FE
FFFB
FE23
0420
0420
0420
0420
0821
1821
F03F
E01E
ENDCHAR
STARTCHAR 5143
ENCODING 20803
SWIDTH 1020 0
DWIDTH 17 0
BBX 16 15 0 -1
BITMAP
3FFC
3FFC
3FFC
0000
0000
FFFF
FFFF
04C0
04C0
04C0
04C0
08C1
18C1
F0FF
E03E
ENDCHAR
STARTCHAR 5144
ENCODING 20804
SWIDTH 1020 0
DWIDTH 17 0
BBX 16 15 0 -1
BITMAP
1FF8
1FF8
1FF8
1008
1008
1008
1008
1FF8
1FF8
04C0
04C0
08C1
18C1
F0FF
E03E
ENDCHAR
STARTCHAR 5145
ENCODING 20805
SWIDTH 1020 0
DWIDTH 17 0
BBX 16 16 0 -1
BITMAP
0180
0180
0180
FFFF
FFFF
0C10
0838
7FFC
7FCC
04C0
04C0
04C0
08C1
18C1
F0FF
E03E
ENDCHAR
STARTCHAR 5146
ENCODING 20806
SWIDTH 1020 0
DWIDTH 17 0
BBX 16 16 0 -1
BITMAP
04C0
04C0
04C0
44C4
64CC
24D8
24D0
0CC0
1CF0
F4FC
E4CE
04C2
08C1
18C1
F0FF
E03E
ENDCHAR
STARTCHAR 5147
ENCODING 20807
SWIDTH 1020 0
DWIDTH 17 0
BBX 16 16 0 -1
BITMAP
2024
2C24
2C24
2EC4
23C4
23A4
2E34
2C14
2004
3FFC
3FFC
04C0
08C1
18C1
F0FF
E03E
ENDCHAR
STARTCHAR 5148
ENCODING 20808
SWIDTH 1020 0
DWIDTH 17 0
BBX 16 16 0 -1
BITMAP
1180
1180
1180
1FFC
3FFC
6180
4180
FFFF
FFFF
04C0
04C0
04C0
08C1
18C1
F0FF
E03E
ENDCHAR
STARTCHAR 5149
ENCODING 20809
SWIDTH 1020 0
DWIDTH 17 0
BBX 16 16 0 -1
BITMAP
0180
218C
218C
318C
1998
0990
0180
FFFF
FFFF
04C0
04C0
04C0
08C1
18C1
F0FF
E03E
ENDCHAR
STARTCHAR 514B
ENCODING 20811
SWIDTH 1020 0
DWIDTH 17 0
BBX 16 16 0 -1
BITMAP
0180
0180
0180
FFFF
FFFF
0180
1FF8
1FF8
1008
1008
1FF8
1FF8
04C1
0CC1
F8FF
F03E
ENDCHAR
STARTCHAR 514C
ENCODING 20812
SWIDTH 1020 0
DWIDTH 17 0
BBX 16 16 0 -1
BITMAP
0810
0C30
0C30
0420
1FF8
1FF8
1008
1008
1008
1FF8
1FF8
04C0
08C1
18C1
F0FF
E03E
ENDCHAR
STARTCHAR 514D
ENCODING 20813
SWIDTH 1020 0
DWIDTH 17 0
BBX 16 16 0 -1
BITMAP
0200
07F0
07F0
0FF0
1820
7FFC
7FFC
1184
1184
1FFC
1FFC
02C0
06C1
1CC1
F8FF
E03E
ENDCHAR
STARTCHAR 514E
ENCODING 20814
SWIDTH 1020 0
DWIDTH 17 0
BBX 16 16 0 -1
BITMAP
000C
3FFC
3FFC
3FF0
0180
3FFC
3FFC
2184
2184
3FFC
3FFC
02D0
04D9
1CC9
F8FF
E03E
ENDCHAR
STARTCHAR 5150
ENCODING 20816
SWIDTH 1020 0
DWIDTH 17 0
BBX 16 16 0 -1
BITMAP
2000
23F8
23F8
23F8
2208
23F8
23F8
2208
23F8
23F8
0980
0980
0981
1981
F1FF
E0FE
ENDCHAR
STARTCHAR 5152
ENCODING 20818
SWIDTH 1020 0
DWIDTH 17 0
BBX 16 16 0 -1
BITMAP
0380
1FF8
1FF8
1CF8
1008
1EF8
1EF8
1008
1FF8
1FF8
04C0
04C0
08C1
18C1
F0FF
E03E
ENDCHAR
STARTCHAR 5154
ENCODING 20820
SWIDTH 1020 0
DWIDTH 17 0
BBX 16 16 0 -1
BITMAP
0400
07F0
07F0
0FF0
1820
3FFC
FFFC
E184
2184
3FFC
3FFC
04D0
0CD9
18C9
F0FF
E03E
ENDCHAR
STARTCHAR 515A
ENCODING 20826
SWIDTH 1020 0
DWIDTH 17 0
BBX 16 16 0 -1
BITMAP
1188
1998
1998
7FFE
7FFE
4002
4FF2
0FF0
0810
0810
0FF0
0FF0
04C1
0CC1
F8FF
F03E
ENDCHAR
STARTCHAR 515C
ENCODING 20828
SWIDTH 1020 0
DWIDTH 17 0
BBX 16 16 0 -1
BITMAP
0A00
7FEE
7FEE
77EE
4422
47E2
47E2
4422
77EE
77EE
0000
04C0
0CC1
18C1
F0FF
E03E
ENDCHAR
STARTCHAR 5162
ENCODING 20834
SWIDTH 1020 0
DWIDTH 17 0
BBX 16 16 0 -1
BITMAP
1010
1010
1010
FFFF
FFFF
1010
7CFC
7CFC
44C4
7CFC
7CFC
29A8
2BA9
4EC9
CDCF
8986
ENDCHAR
STARTCHAR 5165
ENCODING 20837
SWIDTH 1020 0
DWIDTH 17 0
BBX 16 15 0 -1
BITMAP
1F80
1F80
1F80
0180
0180
0180
02C0
02C0
0420
0420
0810
1818
300C
E007
C003
ENDCHAR
STARTCHAR 5168
ENCODING 20840
SWIDTH 1020 0
DWIDTH 17 0
BBX 16 16 0 -1
BITMAP
0180
03C0
03C0
06E0
0C30
381C
FFFF
CFF3
0180
0180
1FF8
1FF8
0180
0180
7FFE
7FFE
ENDCHAR
STARTCHAR 5169
ENCODING 20841
SWIDTH 1020 0
DWIDTH 17 0
BBX 16 15 0 -1
BITMAP
FFFF
FFFF
FFFF
0180
0180
7FFE
7FFE
59B2
4992
4992
5DBE
77EE
63C2
419E
419C
ENDCHAR
STARTCHAR 516A
ENCODING 20842
SWIDTH 1020 0
DWIDTH 17 0
BBX 16 16 0 -1
BITMAP
0180
03C0
03C0
06E0
1FF8
FBDF
E017
3E12
3E36
32EC
3AC8
2AEC
3224
3A36
2E12
2612
ENDCHAR
STARTCHAR 516B
ENCODING 20843
SWIDTH 1020 0
DWIDTH 17 0
BBX 16 16 0 -1
BITMAP
04C0
04C0
04C0
04C0
04C0
04C0
04C0
0420
0420
0820
0810
1818
1008
300C
E007
C003
ENDCHAR
STARTCHAR 516C
ENCODING 20844
SWIDTH 1020 0
DWIDTH 17 0
BBX 16 16 0 -1
BITMAP
0420
0420
0420
0420
0810
0810
1208
320C
E207
C203
0420
0430
0818
08FC
7FFE
7F86
ENDCHAR
STARTCHAR 516D
ENCODING 20845
SWIDTH 1020 0
DWIDTH 17 0
BBX 16 15 0 0
BITMAP
0180
0180
0180
0180
FFFF
FFFF
0000
0000
0810
0818
080C
1006
3002
E003
C001
ENDCHAR
STARTCHAR 516E
ENCODING 20846
SWIDTH 1020 0
DWIDTH 17 0
BBX 16 16 0 -1
BITMAP
0420
0420
0420
0810
1818
3FFC
EFF7
C403
0400
0FF0
0FF0
0010
0010
0020
03E0
03C0
ENDCHAR
STARTCHAR 5171
ENCODING 20849
SWIDTH 1020 0
DWIDTH 17 0
BBX 16 16 0 -1
BITMAP
0420
0420
0420
0420
7FFE
7FFE
0420
0420
0420
FFFF
FFFF
0000
0420
0C30
781E
700E
ENDCHAR
STARTCHAR 5175
ENCODING 20853
SWIDTH 1020 0
DWIDTH 17 0
BBX 16 16 0 -1
BITMAP
0030
0FF0
0FF0
0FC0
0800
0FFC
0FFC
0820
0820
0820
FFFF
FFFF
0420
1C38
F81F
E007
ENDCHAR
STARTCHAR 5176
ENCODING 20854
SWIDTH 1020 0
DWIDTH 17 0
BBX 16 16 0 -1
BITMAP
0810
7FFE
7FFE
7FFE
0810
0FF0
0FF0
0810
0FF0
0FF0
0810
FFFF
FFFF
0420
7C3E
781E
ENDCHAR
STARTCHAR 5177
ENCODING 20855
SWIDTH 1020 0
DWIDTH 17 0
BBX 16 15 0 -1
BITMAP
0FF0
0FF0
0FF0
0810
0FF0
0FF0
0810
0FF0
0FF0
0810
FFFF
FFFF
0420
7C3E
781E
ENDCHAR
STARTCHAR 5178
ENCODING 20856
SWIDTH 1020 0
DWIDTH 17 0
BBX 16 16 0 -1
BITMAP
04C0
04C0
04C0
3FF8
3FF8
24C8
3FF8
3FF8
24C8
24C8
FFFF
FFFF
0420
0C30
781E
700E
ENDCHAR
STARTCHAR 517C
ENCODING 20860
SWIDTH 1020 0
DWIDTH 17 0
BBX 16 16 0 -1
BITMAP
0820
FFFF
FFFF
FFFF
04C0
3FF8
3FF8
04C8
FFFF
FFFF
04C8
3FF8
3FF8
14D0
F4DF
E4CF
ENDCHAR
STARTCHAR 5180
ENCODING 20864
SWIDTH 1020 0
DWIDTH 17 0
BBX 16 16 0 -1
BITMAP
04C6
FCFE
FCFE
FCF9
04C1
FFFF
FFFE
1188
1FF8
1FF8
1188
FFFF
FFFF
0420
7C3E
781E
ENDCHAR
STARTCHAR 5182
ENCODING 20866
SWIDTH 1020 0
DWIDTH 17 0
BBX 14 15 1 -1
BITMAP
FFFC
FFFC
FFFC
8004
8004
8004
8004
8004
8004
8004
8004
8004
8004
803C
8038
ENDCHAR
STARTCHAR 5185
ENCODING 20869
SWIDTH 1020 0
DWIDTH 17 0
BBX 13 16 2 -1
BITMAP
0600
0600
0600
0600
FFF8
FFF8
8608
8608
8B08
9B88
F0E8
E068
8008
8008
8078
8070
ENDCHAR
STARTCHAR 5186
ENCODING 20870
SWIDTH 1020 0
DWIDTH 17 0
BBX 12 15 2 -1
BITMAP
FFF0
FFF0
FFF0
8610
8610
8610
8610
FFF0
FFF0
8010
8010
8010
8010
80F0
80E0
ENDCHAR
STARTCHAR 5189
ENCODING 20873
SWIDTH 1020 0
DWIDTH 17 0
BBX 16 16 0 -1
BITMAP
0180
0180
0180
1FF8
1FF8
1188
1FF8
1FF8
1188
1188
FFFF
FFFF
1008
1008
10F8
10F0
ENDCHAR
STARTCHAR 518A
ENCODING 20874
SWIDTH 1020 0
DWIDTH 17 0
BBX 16 15 0 -1
BITMAP
3FF8
3FF8
3FF8
24C8
24C8
24C8
24C8
FFFF
FFFF
24C8
24C8
24C8
24C8
24F8
2030
ENDCHAR
STARTCHAR 518C
ENCODING 20876
SWIDTH 1020 0
DWIDTH 17 0
BBX 16 15 0 -1
BITMAP
3CF8
3CF8
3CF8
24C8
24C8
24C8
FFFF
FFFF
24C8
24C8
24C8
24C8
4588
DFB8
9A30
ENDCHAR
STARTCHAR 518D
ENCODING 20877
SWIDTH 1020 0
DWIDTH 17 0
BBX 16 15 0 -1
BITMAP
FFFF
FFFF
FFFF
0180
1FF8
1FF8
1188
1FF8
1FF8
1188
FFFF
FFFF
1008
10F8
10F0
ENDCHAR
STARTCHAR 518F
ENCODING 20879
SWIDTH 1020 0
DWIDTH 17 0
BBX 14 15 1 -1
BITMAP
FFFC
FFFC
FFFC
8984
8984
99FC
F07C
EFC4
8FC4
8844
8844
8FC4
8FC4
803C
8038
ENDCHAR
STARTCHAR 5190
ENCODING 20880
SWIDTH 1020 0
DWIDTH 17 0
BBX 14 15 1 -1
BITMAP
FFFC
FFFC
FFFC
8004
BFF4
BFF4
0000
3FF0
3FF0
2010
3FF0
3FF0
2010
21F0
21E0
ENDCHAR
STARTCHAR 5191
ENCODING 20881
SWIDTH 1020 0
DWIDTH 17 0
BBX 12 16 2 -1
BITMAP
0600
FFF0
FFF0
FFF0
8610
FFF0
FFF0
8610
FFF0
FFF0
4020
5FA0
5FA0
4020
43E0
43C0
ENDCHAR
STARTCHAR 5192
ENCODING 20882
SWIDTH 1020 0
DWIDTH 17 0
BBX 11 15 3 -1
BITMAP
FFE0
FFE0
FFE0
8020
FFE0
FFE0
8020
FFE0
7FC0
4040
7FC0
7FC0
4040
7FC0
7FC0
ENDCHAR
STARTCHAR 5193
ENCODING 20883
SWIDTH 1020 0
DWIDTH 17 0
BBX 16 16 0 -1
BITMAP
0420
7FFE
7FFE
7FFE
0420
FFFF
FFFF
0180
1FF8
1FF8
1188
FFFF
FFFF
1008
10F8
10F0
ENDCHAR
STARTCHAR 5195
ENCODING 20885
SWIDTH 1020 0
DWIDTH 17 0
BBX 16 15 0 -1
BITMAP
3FFC
3FFC
3FFC
2004
2FF4
2FF4
08C0
3FFC
FFFC
F184
3FFC
3FFD
04C1
FCFF
F83E
ENDCHAR
STARTCHAR 5196
ENCODING 20886
SWIDTH 1020 0
DWIDTH 17 0
BBX 14 5 1 4
BITMAP
FFFC
FFFC
8004
8004
8004
ENDCHAR
STARTCHAR 5197
ENCODING 20887
SWIDTH 1020 0
DWIDTH 17 0
BBX 16 15 0 -1
BITMAP
7FFE
7FFE
7FFE
4002
4002
07E0
07E0
0420
0420
0420
0420
0821
1821
F03F
E01E
ENDCHAR
STARTCHAR 5199
ENCODING 20889
SWIDTH 1020 0
DWIDTH 17 0
BBX 16 15 0 -1
BITMAP
7FFE
7FFE
7FFE
4802
0FF8
0FF8
1000
1FF0
1FF0
0010
FFFF
FFFF
0020
03E0
03C0
ENDCHAR
STARTCHAR 51A0
ENCODING 20896
SWIDTH 1020 0
DWIDTH 17 0
BBX 16 15 0 -1
BITMAP
FFFF
FFFF
FFFF
8009
7E09
7FFE
01FE
FE08
FF88
29C8
28F8
2831
4801
CFFF
87FE
ENDCHAR
STARTCHAR 51A2
ENCODING 20898
SWIDTH 1020 0
DWIDTH 17 0
BBX 15 15 1 -1
BITMAP
FFFC
FFFC
FFFC
8004
7FF8
7FF8
1808
FF18
E7B0
1DE0
FBE0
E778
1C5E
FBC6
E380
ENDCHAR
STARTCHAR 51A4
ENCODING 20900
SWIDTH 1020 0
DWIDTH 17 0
BBX 16 15 0 -1
BITMAP
7FFE
7FFE
7FFE
4402
0FE0
1FE0
30C0
FFFC
FFFC
2184
3FFC
3FFD
04C9
FCFF
F83E
ENDCHAR
STARTCHAR 51A5
ENCODING 20901
SWIDTH 1020 0
DWIDTH 17 0
BBX 16 15 0 -1
BITMAP
7FFE
7FFE
7FFE
4002
0FF0
0FF0
0810
0FF0
0FF0
0180
FFFF
FFFF
0420
7C3E
781E
ENDCHAR
STARTCHAR 51A6
ENCODING 20902
SWIDTH 1020 0
DWIDTH 17 0
BBX 16 15 0 -1
BITMAP
7FFE
7FFE
7FFE
4022
3C3C
3C3C
0020
FFFE
FFFE
28C4
2838
283C
49E5
CFFF
87FE
ENDCHAR
STARTCHAR 51A8
ENCODING 20904
SWIDTH 1020 0
DWIDTH 17 0
BBX 14 15 1 -1
BITMAP
FFFC
FFFC
FFFC
8004
3FF0
3FF0
1020
1FE0
1FE0
0000
3FF0
3FF0
2310
3FF0
3FF0
ENDCHAR
STARTCHAR 51A9
ENCODING 20905
SWIDTH 1020 0
DWIDTH 17 0
BBX 15 15 0 -1
BITMAP
7FFE
7FFE
7FFE
4182
5FF2
1EF0
1010
1FF0
1FF0
1000
3FFE
FFFE
D5A2
37FE
22DC
ENDCHAR
STARTCHAR 51AA
ENCODING 20906
SWIDTH 1020 0
DWIDTH 17 0
BBX 16 15 0 -1
BITMAP
7FFE
7FFE
7FFE
4422
1FF8
1FF8
1008
FFFF
FFFF
0990
3FFC
FFFF
D18B
11B8
11B0
ENDCHAR
STARTCHAR 51AB
ENCODING 20907
SWIDTH 1020 0
DWIDTH 17 0
BBX 6 16 5 -1
BITMAP
40
70
70
30
30
00
04
04
18
18
30
30
70
40
C0
80
ENDCHAR
STARTCHAR 51AC
ENCODING 20908
SWIDTH 1020 0
DWIDTH 17 0
BBX 16 16 0 -1
BITMAP
0400
07F8
07F8
0FF8
1810
7430
66E0
03C0
07E0
1C38
FBDF
E3E7
0020
0FC0
0FF0
0030
ENDCHAR
STARTCHAR 51B0
ENCODING 20912
SWIDTH 1020 0
DWIDTH 17 0
BBX 16 16 0 -1
BITMAP
40C0
60C0
60C0
20C0
20C6
0EC6
1EEC
12E8
12D0
22D0
24C8
2CCC
78C7
50C3
C7C0
8780
ENDCHAR
STARTCHAR 51B1
ENCODING 20913
SWIDTH 1020 0
DWIDTH 17 0
BBX 16 16 0 -1
BITMAP
4000
6FFE
6FFE
2FFE
2180
0180
09F8
0BF8
1208
1208
23F8
23F8
6008
4008
DFFF
9FFF
ENDCHAR
STARTCHAR 51B2
ENCODING 20914
SWIDTH 1020 0
DWIDTH 17 0
BBX 15 16 0 -1
BITMAP
4020
6020
6020
2020
27FE
07FE
0422
1422
1422
17FE
27FE
2020
6020
4020
C020
8020
ENDCHAR
STARTCHAR 51B3
ENCODING 20915
SWIDTH 1020 0
DWIDTH 17 0
BBX 16 16 0 -1
BITMAP
40C0
60C0
60C0
27F8
27F8
00C8
00C8
10C8
1FFF
1FFF
21A0
21A0
6210
4618
DC0F
9807
ENDCHAR
STARTCHAR 51B4
ENCODING 20916
SWIDTH 1020 0
DWIDTH 17 0
BBX 16 16 0 -1
BITMAP
4000
67FE
67FE
27FE
2188
0188
0188
2FFF
2FFF
2028
60C8
41C8
4788
5E08
D8F8
80F0
ENDCHAR
STARTCHAR 51B5
ENCODING 20917
SWIDTH 1020 0
DWIDTH 17 0
BBX 16 16 0 -1
BITMAP
4000
63FC
63FC
23FC
2204
0204
0204
13FC
13FC
1190
2190
2190
6211
4611
DC1F
980E
ENDCHAR
STARTCHAR 51B6
ENCODING 20918
SWIDTH 1020 0
DWIDTH 17 0
BBX 15 16 0 -1
BITMAP
40C0
60C0
60C0
20C0
2188
018C
0FFE
1FF6
1000
1000
23F8
23F8
6208
4208
C3F8
83F8
ENDCHAR
STARTCHAR 51B7
ENCODING 20919
SWIDTH 1020 0
DWIDTH 17 0
BBX 16 16 0 -1
BITMAP
40C0
61E0
61E0
21B0
2398
060C
1DF7
19F3
2000
2FFC
2FFC
60C4
40C4
40DC
C0D8
80C0
ENDCHAR
STARTCHAR 51BD
ENCODING 20925
SWIDTH 1020 0
DWIDTH 17 0
BBX 15 16 0 -1
BITMAP
4002
6FF2
6FF2
2FFA
240A
07CA
07CA
24CA
2ECA
2BCA
398A
518A
4202
4602
DC1E
981C
ENDCHAR
STARTCHAR 51C4
ENCODING 20932
SWIDTH 1020 0
DWIDTH 17 0
BBX 16 16 0 -1
BITMAP
40C0
6FFE
6FFE
2FFE
20C0
07F8
07F8
00C8
5FFF
5FFF
4188
5FFF
5FFF
C398
9FFE
9F8E
ENDCHAR
STARTCHAR 51C5
ENCODING 20933
SWIDTH 1020 0
DWIDTH 17 0
BBX 15 16 0 -1
BITMAP
4000
67FE
67FE
27FE
2422
05FA
15FA
1422
15FA
25FA
258A
65FA
45FA
4402
C7FE
87FE
ENDCHAR
STARTCHAR 51C6
ENCODING 20934
SWIDTH 1020 0
DWIDTH 17 0
BBX 16 16 0 -1
BITMAP
4180
6190
6190
2210
23FE
07FE
0E20
0BFE
23FE
2220
23FE
63FE
4220
4220
C3FF
83FF
ENDCHAR
STARTCHAR 51C9
ENCODING 20937
SWIDTH 1020 0
DWIDTH 17 0
BBX 15 16 0 -1
BITMAP
40C0
60C0
60C0
2FFE
2FFE
0000
17F8
17F8
1408
27F8
27F8
60C0
44D8
5CDC
DBC6
8382
ENDCHAR
STARTCHAR 51CB
ENCODING 20939
SWIDTH 1020 0
DWIDTH 17 0
BBX 15 16 0 -1
BITMAP
4000
67FE
67FE
27FE
2422
05FA
05FA
1422
15FA
15FA
2402
25FA
65FA
4D8A
D9FE
91FE
ENDCHAR
STARTCHAR 51CC
ENCODING 20940
SWIDTH 1020 0
DWIDTH 17 0
BBX 16 16 0 -1
BITMAP
4020
67FE
67FE
27FE
2020
0FFF
0FFF
2190
2F9F
2ECF
21F8
67F8
4788
40F0
CFFF
8F8F
ENDCHAR
STARTCHAR 51CD
ENCODING 20941
SWIDTH 1020 0
DWIDTH 17 0
BBX 16 16 0 -1
BITMAP
00C0
9FFF
9FFF
DFFF
40C0
47FC
07FC
14C4
17FC
17FC
24C4
27FC
67FC
42D0
DEDF
9CCF
ENDCHAR
STARTCHAR 51D6
ENCODING 20950
SWIDTH 1020 0
DWIDTH 17 0
BBX 16 16 0 -1
BITMAP
4210
6210
6210
27FC
0FFC
1C20
17FC
37FC
2420
67FE
47FE
0180
FFFF
FFFF
0180
0180
ENDCHAR
STARTCHAR 51DB
ENCODING 20955
SWIDTH 1020 0
DWIDTH 17 0
BBX 16 16 0 -1
BITMAP
4020
6FFF
6FFF
2FFF
258A
05FA
05FA
1402
17FE
17FE
2000
2FFF
6FFF
4428
DDEF
99C7
ENDCHAR
STARTCHAR 51DC
ENCODING 20956
SWIDTH 1020 0
DWIDTH 17 0
BBX 16 16 0 -1
BITMAP
0020
8FFF
8FFF
CFFF
6000
27FE
07FE
158A
17FE
17FE
20F0
2FFF
6FFF
41A8
CFAF
8E27
ENDCHAR
STARTCHAR 51DD
ENCODING 20957
SWIDTH 1020 0
DWIDTH 17 0
BBX 16 16 0 -1
BITMAP
4B80
6FBF
6FBF
2C3F
2FD2
07CC
043F
27FF
2FEA
2A28
7FEF
5FEF
4228
C5B8
9DFF
99CF
ENDCHAR
STARTCHAR 51E0
ENCODING 20960
SWIDTH 1020 0
DWIDTH 17 0
BBX 16 15 0 -1
BITMAP
0FE0
0FE0
0FE0
0820
0820
0820
0820
0820
0820
0820
0820
1021
3021
E03F
C01E
ENDCHAR
STARTCHAR 51E1
ENCODING 20961
SWIDTH 1020 0
DWIDTH 17 0
BBX 16 15 0 -1
BITMAP
1FE0
1FE0
1FE0
1020
1820
1C20
1620
1220
1220
1020
1020
1021
2021
E03F
C01E
ENDCHAR
STARTCHAR 51E6
ENCODING 20966
SWIDTH 1020 0
DWIDTH 17 0
BBX 16 16 0 -1
BITMAP
2000
2000
2000
3CF8
3CF8
24C8
64C8
44C8
E8C8
A8CA
118A
1B8E
2E06
6780
C3FF
80FF
ENDCHAR
STARTCHAR 51E7
ENCODING 20967
SWIDTH 1020 0
DWIDTH 17 0
BBX 16 15 0 -1
BITMAP
3FFC
3FFC
3FFC
2184
2184
2FF4
2FF4
2994
2994
2994
2995
29B7
49B2
C183
8181
ENDCHAR
STARTCHAR 51E9
ENCODING 20969
SWIDTH 1020 0
DWIDTH 17 0
BBX 16 15 0 -1
BITMAP
3FFC
3FFC
3FFC
2184
2184
2FF4
2FF4
2184
23C4
23C4
25A4
2DB5
4995
C187
8183
ENDCHAR
STARTCHAR 51EA
ENCODING 20970
SWIDTH 1020 0
DWIDTH 17 0
BBX 16 15 0 -1
BITMAP
3FF8
3FF8
3FF8
2188
2188
2588
25E8
25E8
2588
2588
2589
5FF5
5FF5
C007
8003
ENDCHAR
STARTCHAR 51ED
ENCODING 20973
SWIDTH 1020 0
DWIDTH 17 0
BBX 16 16 0 -1
BITMAP
0806
0BFE
0BFE
13F8
3010
F7FF
D7FF
1010
11FE
0FFE
0FE0
0820
0821
1821
F03F
E01E
ENDCHAR
STARTCHAR 51F0
ENCODING 20976
SWIDTH 1020 0
DWIDTH 17 0
BBX 16 15 0 -1
BITMAP
3FFC
3FFC
3FFC
2184
27E4
27E4
2424
27E4
27E4
2184
2FF4
2FF5
4185
DFFF
9FFB
ENDCHAR
STARTCHAR 51F1
ENCODING 20977
SWIDTH 1020 0
DWIDTH 17 0
BBX 16 16 0 -1
BITMAP
5200
7EF8
7EF8
7EF8
00C8
FEC8
FEC8
00C8
7EC8
7EC8
42C8
7EC8
7EC9
25C9
FFCF
FF86
ENDCHAR
STARTCHAR 51F5
ENCODING 20981
SWIDTH 1020 0
DWIDTH 17 0
BBX 14 16 1 -1
BITMAP
8004
8004
8004
8004
8004
8004
8004
8004
8004
8004
8004
8004
8004
8004
FFFC
FFFC
ENDCHAR
STARTCHAR 51F6
ENCODING 20982
SWIDTH 1020 0
DWIDTH 17 0
BBX 14 16 1 -1
BITMAP
0020
8024
8024
8044
9844
9D84
8784
8384
8744
8C64
B834
B014
8004
8004
FFFC
FFFC
ENDCHAR
STARTCHAR 51F8
ENCODING 20984
SWIDTH 1020 0
DWIDTH 17 0
BBX 14 15 1 -1
BITMAP
0FC0
0FC0
0FC0
0840
0840
0840
F87C
F87C
8004
8004
8004
8004
8004
FFFC
FFFC
ENDCHAR
STARTCHAR 51F9
ENCODING 20985
SWIDTH 1020 0
DWIDTH 17 0
BBX 14 15 1 -1
BITMAP
F87C
F87C
F87C
8844
8844
8844
8844
8844
8FC4
8FC4
8004
8004
8004
FFFC
FFFC
ENDCHAR
STARTCHAR 51FA
ENCODING 20986
SWIDTH 1020 0
DWIDTH 17 0
BBX 14 16 1 -1
BITMAP
0300
4308
4308
4308
4308
4308
7FF8
7FF8
0300
0300
8304
8304
8304
8304
FFFC
FFFC
ENDCHAR
STARTCHAR 51FD
ENCODING 20989
SWIDTH 1020 0
DWIDTH 17 0
BBX 16 15 0 -1
BITMAP
FFFF
FFFF
FFFF
0200
47CA
57DA
58D2
4DE2
47F2
5EDA
58CA
43CA
4382
7FFE
7FFE
ENDCHAR
STARTCHAR 51FE
ENCODING 20990
SWIDTH 1020 0
DWIDTH 17 0
BBX 14 15 1 -1
BITMAP
7FF0
7FF0
7FF0
01C0
8384
BBF4
BBF4
AB94
AB64
BB74
BBDC
8F8C
8C04
FFFC
FFFC
ENDCHAR
STARTCHAR 5200
ENCODING 20992
SWIDTH 1020 0
DWIDTH 17 0
BBX 15 15 0 -1
BITMAP
FFFE
FFFE
FFFE
0202
0202
0202
0202
0202
0202
0402
0402
0806
1804
F03C
E038
ENDCHAR
STARTCHAR 5203
ENCODING 20995
SWIDTH 1020 0
DWIDTH 17 0
BBX 15 15 0 -1
BITMAP
FFFE
FFFE
FFFE
0182
1982
1D82
0782
0382
01C2
02E2
0622
0C04
380C
F0F8
C0F0
ENDCHAR
STARTCHAR 5204
ENCODING 20996
SWIDTH 1020 0
DWIDTH 17 0
BBX 16 13 0 -1
BITMAP
7FFC
7FFC
1184
1984
0D84
0604
0384
03C4
04F8
0C3F
1817
F1F0
E1E0
ENDCHAR
STARTCHAR 5206
ENCODING 20998
SWIDTH 1020 0
DWIDTH 17 0
BBX 16 16 0 -1
BITMAP
04C0
04C0
04C0
0420
0830
1818
300C
E007
DFFB
1FF8
0208
0208
0408
0C10
38F0
30E0
ENDCHAR
STARTCHAR 5207
ENCODING 20999
SWIDTH 1020 0
DWIDTH 17 0
BBX 15 16 0 -1
BITMAP
2000
2000
2000
23FE
23FE
3C22
FC22
E022
2022
24C2
24C2
3DC2
1D86
0384
0E3C
0C38
ENDCHAR
STARTCHAR 5208
ENCODING 21000
SWIDTH 1020 0
DWIDTH 17 0
BBX 15 16 0 -1
BITMAP
0202
0212
0212
0212
0212
6212
7412
1C12
0C12
0E12
1B92
1182
31C2
60C2
C01E
801C
ENDCHAR
STARTCHAR 520A
ENCODING 21002
SWIDTH 1020 0
DWIDTH 17 0
BBX 15 16 0 -1
BITMAP
0002
7F92
7F92
7F92
0812
0812
0812
FFD2
FFD2
0812
0812
0812
0802
0802
081E
081C
ENDCHAR
STARTCHAR 520B
ENCODING 21003
SWIDTH 1020 0
DWIDTH 17 0
BBX 15 16 0 -1
BITMAP
0182
0792
0792
7E12
7812
0812
0812
FFD2
FFD2
0812
0812
0812
1002
3002
E01E
C01C
ENDCHAR
STARTCHAR 520E
ENCODING 21006
SWIDTH 1020 0
DWIDTH 17 0
BBX 15 16 0 -1
BITMAP
1002
1012
1012
2012
3FD2
7FD2
D4D2
94D2
24D2
E4D2
C8D2
1992
7182
6202
1E1E
1C1C
ENDCHAR
STARTCHAR 5211
ENCODING 21009
SWIDTH 1020 0
DWIDTH 17 0
BBX 15 16 0 -1
BITMAP
0002
7FD2
7FD2
7FD2
1212
1212
1212
FFD2
FFD2
1212
1212
1212
1202
2202
E21E
C21C
ENDCHAR
STARTCHAR 5214
ENCODING 21012
SWIDTH 1020 0
DWIDTH 17 0
BBX 15 16 0 -1
BITMAP
0802
0812
0812
0812
7F92
7F92
0992
0992
FFD2
FFD2
0812
1412
1602
2382
E39E
C01C
ENDCHAR
STARTCHAR 5217
ENCODING 21015
SWIDTH 1020 0
DWIDTH 17 0
BBX 15 16 0 -1
BITMAP
0002
FFC2
FFC2
FFD2
1012
1012
1F92
3F92
2192
7A12
DE12
8402
0C02
3802
F01E
C01C
ENDCHAR
STARTCHAR 521D
ENCODING 21021
SWIDTH 1020 0
DWIDTH 17 0
BBX 15 16 0 -1
BITMAP
1000
1000
1000
13FE
FFFE
FC22
0822
0A22
1622
3C22
F822
DCC2
14C4
11C4
17BC
1638
ENDCHAR
STARTCHAR 5224
ENCODING 21028
SWIDTH 1020 0
DWIDTH 17 0
BBX 15 16 0 -1
BITMAP
0802
4992
4992
6B92
2A12
0812
7F92
7F92
0812
0812
FFD2
FFD2
0802
0802
081E
081C
ENDCHAR
STARTCHAR 5225
ENCODING 21029
SWIDTH 1020 0
DWIDTH 17 0
BBX 15 16 0 -1
BITMAP
0002
7F92
7F92
7F92
4192
4192
7F92
7F92
1012
1F92
1F92
1192
3182
2202
EE1E
CC1C
ENDCHAR
STARTCHAR 5227
ENCODING 21031
SWIDTH 1020 0
DWIDTH 17 0
BBX 15 16 0 -1
BITMAP
1000
1000
1000
7EFE
7EFE
1012
1012
FF92
FF92
1012
2422
2622
5E22
FAC4
E3DC
0398
ENDCHAR
STARTCHAR 5229
ENCODING 21033
SWIDTH 1020 0
DWIDTH 17 0
BBX 15 16 0 -1
BITMAP
0182
0792
0792
7E12
7812
0812
FFD2
FFD2
1C12
1E12
2B92
6992
C802
8802
081E
081C
ENDCHAR
STARTCHAR 522A
ENCODING 21034
SWIDTH 1020 0
DWIDTH 17 0
BBX 15 16 0 -1
BITMAP
0002
7F92
7F92
7F92
5592
5592
5592
FFD2
FFD2
5592
5592
5592
5582
5582
579E
461C
ENDCHAR
STARTCHAR 522E
ENCODING 21038
SWIDTH 1020 0
DWIDTH 17 0
BBX 15 16 0 -1
BITMAP
0182
0792
0792
7E12
7812
0812
FFD2
FFD2
0812
0812
7F92
7F92
4182
4182
7F9E
7F9C
ENDCHAR
STARTCHAR 5230
ENCODING 21040
SWIDTH 1020 0
DWIDTH 17 0
BBX 15 16 0 -1
BITMAP
0002
FFD2
FFD2
FFD2
2412
4612
FF92
F992
1012
FF92
FF92
1012
1002
1F82
FF9E
F01C
ENDCHAR
STARTCHAR 5233
ENCODING 21043
SWIDTH 1020 0
DWIDTH 17 0
BBX 15 16 0 -1
BITMAP
0802
FFD2
FFD2
FFD2
2212
7F92
DDD2
80D2
7F92
7F92
1012
3F92
3F82
0182
1F9E
1E1C
ENDCHAR
STARTCHAR 5236
ENCODING 21046
SWIDTH 1020 0
DWIDTH 17 0
BBX 15 16 0 -1
BITMAP
0802
4812
4812
7F92
7F92
C812
FFD2
FFD2
0812
7F92
7F92
4992
4982
4B82
4B9E
081C
ENDCHAR
STARTCHAR 5237
ENCODING 21047
SWIDTH 1020 0
DWIDTH 17 0
BBX 15 16 0 -1
BITMAP
0002
7FD2
7FD2
7FD2
40D2
7FD2
7FD2
4412
5FD2
5FD2
54D2
54D2
54C2
57C2
D79E
841C
ENDCHAR
STARTCHAR 5238
ENCODING 21048
SWIDTH 1020 0
DWIDTH 17 0
BBX 16 16 0 -1
BITMAP
0990
0DB0
0DB0
3FFC
3FFC
0180
FFFF
FFFF
0420
1818
FFFF
EFF7
0210
0610
3DF0
39E0
ENDCHAR
STARTCHAR 5239
ENCODING 21049
SWIDTH 1020 0
DWIDTH 17 0
BBX 15 16 0 -1
BITMAP
0202
6612
6612
7C12
1C12
3612
E392
C992
0812
FFD2
FFD2
1C12
2A02
EB82
C99E
081C
ENDCHAR
STARTCHAR 523A
ENCODING 21050
SWIDTH 1020 0
DWIDTH 17 0
BBX 15 16 0 -1
BITMAP
0802
0812
0812
FFD2
FFD2
0812
7F92
7F92
4992
4B92
4B92
1C12
3E02
EB82
C99E
081C
ENDCHAR
STARTCHAR 523B
ENCODING 21051
SWIDTH 1020 0
DWIDTH 17 0
BBX 15 16 0 -1
BITMAP
0802
0812
0812
FFD2
FFD2
1A12
5212
6412
3D92
1992
3212
E612
CE02
3B82
F1DE
C1DC
ENDCHAR
STARTCHAR 5243
ENCODING 21059
SWIDTH 1020 0
DWIDTH 17 0
BBX 15 16 0 -1
BITMAP
2202
3612
3612
FF92
FF92
0992
7F92
7F92
4812
FFD2
FFD2
18D2
28C2
EBC2
CB9E
081C
ENDCHAR
STARTCHAR 5244
ENCODING 21060
SWIDTH 1020 0
DWIDTH 17 0
BBX 15 16 0 -1
BITMAP
0002
FFD2
FFD2
FFD2
24D2
6DD2
DB92
6DD2
24D2
FFD2
FFD2
0812
0802
0FC2
FFDE
F81C
ENDCHAR
STARTCHAR 5247
ENCODING 21063
SWIDTH 1020 0
DWIDTH 17 0
BBX 14 16 1 -1
BITMAP
0004
7C24
7C24
7C24
4424
7C24
7C24
4424
7C24
7C24
4424
7C24
7C04
2804
EF3C
C738
ENDCHAR
STARTCHAR 524A
ENCODING 21066
SWIDTH 1020 0
DWIDTH 17 0
BBX 14 16 1 -1
BITMAP
9304
D724
D724
5424
1024
FF24
FF24
8324
FF24
FF24
8324
FF24
FF04
8304
9F3C
9C38
ENDCHAR
STARTCHAR 524B
ENCODING 21067
SWIDTH 1020 0
DWIDTH 17 0
BBX 16 16 0 -1
BITMAP
1004
1024
1024
FFA4
FFA4
1024
7E24
7E24
4224
7E24
7E04
283C
2839
4801
CFFF
87FE
ENDCHAR
STARTCHAR 524C
ENCODING 21068
SWIDTH 1020 0
DWIDTH 17 0
BBX 15 16 0 -1
BITMAP
0802
0812
0812
FFD2
FFD2
0812
7F92
7F92
4992
7F92
7F92
1C12
2A02
EB82
C99E
081C
ENDCHAR
STARTCHAR 524D
ENCODING 21069
SWIDTH 1020 0
DWIDTH 17 0
BBX 16 16 0 -1
BITMAP
0810
FFFF
FFFF
FFFF
0000
3E04
3E24
2224
3E24
3E24
2224
3E24
3E04
2204
2E3C
2C38
ENDCHAR
STARTCHAR 524F
ENCODING 21071
SWIDTH 1020 0
DWIDTH 17 0
BBX 16 16 0 -1
BITMAP
4400
6C00
6C00
29FC
FFFC
FF94
24D4
24D4
FFF4
FFA4
2434
24DC
24CF
458B
C7B8
8630
ENDCHAR
STARTCHAR 5254
ENCODING 21076
SWIDTH 1020 0
DWIDTH 17 0
BBX 15 16 0 -1
BITMAP
0002
3F92
3F92
3F92
2192
3F92
3F92
1012
3FD2
FFD2
DAD2
76D2
6CC2
1982
779E
661C
ENDCHAR
STARTCHAR 5256
ENCODING 21078
SWIDTH 1020 0
DWIDTH 17 0
BBX 15 16 0 -1
BITMAP
0802
0812
0812
7F92
7F92
2612
3412
FFD2
FFD2
0012
3E12
3E12
2202
2202
3E1E
3E1C
ENDCHAR
STARTCHAR 525B
ENCODING 21083
SWIDTH 1020 0
DWIDTH 17 0
BBX 15 16 0 -1
BITMAP
0002
FFC2
FFC2
FFD2
A2D2
94D2
FFD2
FFD2
88D2
AAD2
AAD2
AAD2
BEC2
BEC2
83DE
839C
ENDCHAR
STARTCHAR 525E
ENCODING 21086
SWIDTH 1020 0
DWIDTH 17 0
BBX 15 16 0 -1
BITMAP
0802
0812
0812
FFD2
FFD2
1412
2212
FFD2
FFD2
0192
7992
7992
4982
7982
7F9E
061C
ENDCHAR
STARTCHAR 5263
ENCODING 21091
SWIDTH 1020 0
DWIDTH 17 0
BBX 15 16 0 -1
BITMAP
0802
1C12
1C12
3612
FFD2
DDD2
0812
7F92
7F92
4992
7F92
7F92
1402
3602
E39E
C39C
ENDCHAR
STARTCHAR 5264
ENCODING 21092
SWIDTH 1020 0
DWIDTH 17 0
BBX 15 16 0 -1
BITMAP
0802
FFD2
FFD2
FFD2
2212
1C12
3E12
E3D2
FFD2
3E12
2212
3E12
3E02
2202
E21E
C21C
ENDCHAR
STARTCHAR 5265
ENCODING 21093
SWIDTH 1020 0
DWIDTH 17 0
BBX 15 16 0 -1
BITMAP
0002
7C12
7C12
7C12
0412
7C12
7C12
0412
FFD2
FFD2
4A12
7C12
3E02
EB82
D99E
181C
ENDCHAR
STARTCHAR 5269
ENCODING 21097
SWIDTH 1020 0
DWIDTH 17 0
BBX 15 16 0 -1
BITMAP
0382
7F92
7F92
7C12
0812
FFD2
FFD2
2AD2
EBD2
EB92
2AD2
EBD2
FDC2
3E02
EBDE
C9DC
ENDCHAR
STARTCHAR 526A
ENCODING 21098
SWIDTH 1020 0
DWIDTH 17 0
BBX 16 16 0 -1
BITMAP
0810
FFFF
FFFF
FFFF
0000
3E24
3E24
2224
3E24
3E1C
2218
FFFE
FFFE
0602
7C3E
783C
ENDCHAR
STARTCHAR 526F
ENCODING 21103
SWIDTH 1020 0
DWIDTH 17 0
BBX 15 16 0 -1
BITMAP
0002
FF92
FF92
FF92
0012
7E12
7E12
4212
FF92
FF92
8992
FF92
FF82
8982
FF9E
FF9C
ENDCHAR
STARTCHAR 5270
ENCODING 21104
SWIDTH 1020 0
DWIDTH 17 0
BBX 15 16 0 -1
BITMAP
7F82
7F92
7F92
0812
FFD2
FFD2
2A12
FFD2
FFD2
2A12
FFD2
FFD2
2A02
2B82
E99E
C99C
ENDCHAR
STARTCHAR 5271
ENCODING 21105
SWIDTH 1020 0
DWIDTH 17 0
BBX 16 16 0 -1
BITMAP
0800
1C00
1C00
36FE
FFFE
DDD2
08D2
7FD2
7FB2
49B2
7F9A
7FAE
1427
36E5
E3DC
C398
ENDCHAR
STARTCHAR 5272
ENCODING 21106
SWIDTH 1020 0
DWIDTH 17 0
BBX 15 16 0 -1
BITMAP
0802
FFD2
FFD2
FFD2
88D2
7F92
7F92
0812
FFD2
FFD2
0012
7F92
7F82
4182
7F9E
7F9C
ENDCHAR
STARTCHAR 5273
ENCODING 21107
SWIDTH 1020 0
DWIDTH 17 0
BBX 15 16 0 -1
BITMAP
1202
1212
1212
FFD2
FFD2
1212
1C12
1612
3F92
EDD2
C0D2
3F92
3F82
2182
3F9E
3F9C
ENDCHAR
STARTCHAR 5274
ENCODING 21108
SWIDTH 1020 0
DWIDTH 17 0
BBX 15 16 0 -1
BITMAP
4982
7F92
7F92
7F92
0012
FFD2
FFD2
0012
3E12
3E12
2212
3E12
3E02
15C2
FFDE
FE1C
ENDCHAR
STARTCHAR 5275
ENCODING 21109
SWIDTH 1020 0
DWIDTH 17 0
BBX 15 16 0 -1
BITMAP
1802
1C12
1C12
3612
6BD2
FFD2
BF92
2192
3F92
3F92
6012
7F92
FF82
A182
3F9E
3F9C
ENDCHAR
STARTCHAR 527D
ENCODING 21117
SWIDTH 1020 0
DWIDTH 17 0
BBX 15 16 0 -1
BITMAP
0002
FFD2
FFD2
FFD2
1412
7F92
7F92
5592
7F92
7F92
0012
FFD2
FFC2
4A02
DB9E
999C
ENDCHAR
STARTCHAR 527F
ENCODING 21119
SWIDTH 1020 0
DWIDTH 17 0
BBX 15 16 0 -1
BITMAP
9182
DB92
DB92
7F92
7F92
4992
7F92
7F92
0812
FFD2
FFD2
1C12
2E02
EB82
C99E
081C
ENDCHAR
STARTCHAR 5283
ENCODING 21123
SWIDTH 1020 0
DWIDTH 17 0
BBX 15 16 0 -1
BITMAP
0802
7F92
7F92
7F92
0992
FFD2
FFD2
0992
FFD2
FFD2
4992
7F92
7F82
0002
FFEE
FFEC
ENDCHAR
STARTCHAR 5287
ENCODING 21127
SWIDTH 1020 0
DWIDTH 17 0
BBX 15 16 0 -1
BITMAP
0F82
0F92
0F92
0812
7FD2
7FD2
49D2
7F92
7792
4012
7FD2
7FD2
5EC2
7B82
EFDE
8CDC
ENDCHAR
STARTCHAR 5288
ENCODING 21128
SWIDTH 1020 0
DWIDTH 17 0
BBX 16 16 0 -1
BITMAP
0010
3EFE
3EFE
3EFE
2224
3FFF
7FFF
E210
BEFE
3EFE
0010
7FFE
7FFE
0602
FC3E
F83C
ENDCHAR
STARTCHAR 5289
ENCODING 21129
SWIDTH 1020 0
DWIDTH 17 0
BBX 15 16 0 -1
BITMAP
1802
7FD2
7FD2
77D2
52D2
74D2
FDD2
DF92
3E12
6392
FFD2
FFD2
4A02
2FC2
FFDE
F81C
ENDCHAR
STARTCHAR 528D
ENCODING 21133
SWIDTH 1020 0
DWIDTH 17 0
BBX 15 16 0 -1
BITMAP
0802
1C12
1C12
3612
FFD2
DDD2
0012
7BD2
7BD2
4AD2
7BD2
7BD2
1182
3BC2
EEEE
CC2C
ENDCHAR
STARTCHAR 5291
ENCODING 21137
SWIDTH 1020 0
DWIDTH 17 0
BBX 15 16 0 -1
BITMAP
0402
7FEA
7FEA
7FEA
0A2A
F5EA
F5CA
55AA
D5FA
BFDA
3FCA
20CA
3FC2
3FC2
E0CE
C0CC
ENDCHAR
STARTCHAR 5292
ENCODING 21138
SWIDTH 1020 0
DWIDTH 17 0
BBX 15 16 0 -1
BITMAP
0800
1C00
1C00
36FE
FFFE
DD92
00D2
77F2
77B2
5592
779A
77AA
222A
77E4
DDDC
9998
ENDCHAR
STARTCHAR 5294
ENCODING 21140
SWIDTH 1020 0
DWIDTH 17 0
BBX 16 16 0 -1
BITMAP
0800
1C00
1C00
36FE
FFFE
DD92
00D2
77D2
77B2
55B2
779A
779E
2217
77A3
DDEE
99CC
ENDCHAR
STARTCHAR 529B
ENCODING 21147
SWIDTH 1020 0
DWIDTH 17 0
BBX 15 16 0 -1
BITMAP
0180
0180
0180
0180
0180
FFFE
FFFE
0182
0202
0202
0202
0402
0C02
1804
F03C
E038
ENDCHAR
STARTCHAR 529F
ENCODING 21151
SWIDTH 1020 0
DWIDTH 17 0
BBX 15 16 0 -1
BITMAP
0020
0020
0020
FE20
FE20
13FE
13FE
1022
1022
1622
1E22
F8C2
E0C2
01C4
07BC
0638
ENDCHAR
STARTCHAR 52A0
ENCODING 21152
SWIDTH 1020 0
DWIDTH 17 0
BBX 15 16 0 -1
BITMAP
1000
1000
1000
1000
FE3E
FE3E
1222
1222
1222
1222
1222
2222
2622
643E
DC3E
9800
ENDCHAR
STARTCHAR 52A3
ENCODING 21155
SWIDTH 1020 0
DWIDTH 17 0
BBX 16 16 0 -1
BITMAP
0180
0998
0998
199C
7196
63B3
03E1
FFC0
FD80
0180
7FFC
7FFC
0204
0E08
FCF8
F0F0
ENDCHAR
STARTCHAR 52A9
ENCODING 21161
SWIDTH 1020 0
DWIDTH 17 0
BBX 15 16 0 -1
BITMAP
0020
0020
0020
7C20
7C20
45FE
7DFE
7C22
4422
7C22
7C22
4422
5EC2
FEC4
E3DC
0398
ENDCHAR
STARTCHAR 52AA
ENCODING 21162
SWIDTH 1020 0
DWIDTH 17 0
BBX 16 16 0 -1
BITMAP
2000
21FE
21FE
FFFE
FEC4
442C
7C38
39FC
EDC7
C583
3FFC
3FFC
0204
0E04
7C3C
7038
ENDCHAR
STARTCHAR 52AB
ENCODING 21163
SWIDTH 1020 0
DWIDTH 17 0
BBX 15 16 0 -1
BITMAP
1010
1010
1010
7E10
7FFE
11FE
1012
FF92
FF92
1012
2012
2422
4E22
FEE4
F3DC
0398
ENDCHAR
STARTCHAR 52AC
ENCODING 21164
SWIDTH 1020 0
DWIDTH 17 0
BBX 15 16 0 -1
BITMAP
2010
2010
2010
3F90
7F90
C1FE
81FE
7992
7992
4992
4992
79A2
7BA2
02E4
1FDC
1D98
ENDCHAR
STARTCHAR 52AD
ENCODING 21165
SWIDTH 1020 0
DWIDTH 17 0
BBX 15 16 0 -1
BITMAP
0010
FE10
FE10
FE10
1210
12FE
22FE
EE12
CC12
0012
7C22
7C22
4422
44C4
7FDC
7F98
ENDCHAR
STARTCHAR 52B1
ENCODING 21169
SWIDTH 1020 0
DWIDTH 17 0
BBX 15 16 0 -1
BITMAP
0010
3FD0
3FD0
3FD0
2010
3FFE
3FFE
2812
2F92
2F92
2992
2992
4992
D224
BFFC
2DD8
ENDCHAR
STARTCHAR 52B4
ENCODING 21172
SWIDTH 1020 0
DWIDTH 17 0
BBX 15 16 0 -1
BITMAP
2208
3398
3398
7FFE
7FFE
4002
4202
0200
7FFC
7FFC
0204
0204
0404
1C08
F8F8
E0F0
ENDCHAR
STARTCHAR 52B5
ENCODING 21173
SWIDTH 1020 0
DWIDTH 17 0
BBX 16 16 0 -1
BITMAP
0990
0DB0
0DB0
3FFC
3FFC
0420
FFFF
FFFF
1A18
320C
FFFF
DFFB
0208
0408
3CF8
38F0
ENDCHAR
STARTCHAR 52B9
ENCODING 21177
SWIDTH 1020 0
DWIDTH 17 0
BBX 15 16 0 -1
BITMAP
1020
1020
1020
FE20
FE20
29FE
EFFE
C622
4822
2822
3022
18C2
2CC2
6DC4
C7BC
8638
ENDCHAR
STARTCHAR 52BC
ENCODING 21180
SWIDTH 1020 0
DWIDTH 17 0
BBX 15 16 0 -1
BITMAP
1010
1010
1010
FE10
FE10
11FE
11FE
7C12
7C12
0012
7C22
7C22
4422
44C4
7FDC
7F98
ENDCHAR
STARTCHAR 52BE
ENCODING 21182
SWIDTH 1020 0
DWIDTH 17 0
BBX 15 16 0 -1
BITMAP
1020
1020
1020
FE20
FE20
11FE
A5FE
E422
4822
3A22
3222
E422
CCC2
39C4
F7BC
C638
ENDCHAR
STARTCHAR 52C1
ENCODING 21185
SWIDTH 1020 0
DWIDTH 17 0
BBX 15 16 0 -1
BITMAP
0010
FF90
FF90
FF90
4990
DBFE
92FE
DB92
4992
FF92
FF92
0822
0822
0FE4
FFDC
F998
ENDCHAR
STARTCHAR 52C3
ENCODING 21187
SWIDTH 1020 0
DWIDTH 17 0
BBX 15 16 0 -1
BITMAP
0810
FF90
FF90
FF90
08FE
FFFE
FF92
8192
7E12
7E12
0592
FFA2
FE22
08E4
3BDC
3398
ENDCHAR
STARTCHAR 52C5
ENCODING 21189
SWIDTH 1020 0
DWIDTH 17 0
BBX 15 16 0 -1
BITMAP
0810
FFD0
FFD0
FFD0
08FE
7FFE
7F92
4992
7F92
7F92
1C12
1E22
2BA2
EBE4
C9DC
0998
ENDCHAR
STARTCHAR 52C7
ENCODING 21191
SWIDTH 1020 0
DWIDTH 17 0
BBX 14 15 0 -1
BITMAP
3FFC
3FFC
3FFC
0210
1FF8
1FF8
1188
1FF8
1FF8
1188
7FFC
7FFC
0604
FCFC
F8F8
ENDCHAR
STARTCHAR 52C9
ENCODING 21193
SWIDTH 1020 0
DWIDTH 17 0
BBX 16 16 0 -1
BITMAP
2020
3C20
3C20
7C20
C9FC
FFFC
FE24
9224
FE24
FE24
28C4
2BDC
2B99
4801
CFFF
87FE
ENDCHAR
STARTCHAR 52CD
ENCODING 21197
SWIDTH 1020 0
DWIDTH 17 0
BBX 15 16 0 -1
BITMAP
0810
0810
0810
FF90
FF90
00FE
7EFE
7E12
4212
7E12
7E12
2A22
6BA2
C9E4
B9DC
3198
ENDCHAR
STARTCHAR 52D2
ENCODING 21202
SWIDTH 1020 0
DWIDTH 17 0
BBX 15 16 0 -1
BITMAP
2810
FF90
FF90
FF90
2810
39FE
7DFE
7C12
5412
7C12
7C12
1022
FE22
FEE4
13DC
1398
ENDCHAR
STARTCHAR 52D5
ENCODING 21205
SWIDTH 1020 0
DWIDTH 17 0
BBX 15 16 0 -1
BITMAP
0390
7F90
7F90
7C10
0810
FFFE
FFFE
4992
7F92
7F92
4992
FFD2
FFE2
08E4
FFDC
FF98
ENDCHAR
STARTCHAR 52D7
ENCODING 21207
SWIDTH 1020 0
DWIDTH 17 0
BBX 15 15 0 -1
BITMAP
0FF8
0FF8
0FF8
0808
0FF8
0FF8
0000
3EFE
3EFE
2212
3E12
3E12
23A2
FFEE
FDCC
ENDCHAR
STARTCHAR 52D8
ENCODING 21208
SWIDTH 1020 0
DWIDTH 17 0
BBX 15 16 0 -1
BITMAP
2210
FFD0
FFD0
FFD0
2210
3EFE
3EFE
2212
FFD2
FFD2
5412
77D2
63D2
4032
7FEE
7FCC
ENDCHAR
STARTCHAR 52D9
ENCODING 21209
SWIDTH 1020 0
DWIDTH 17 0
BBX 16 16 0 -1
BITMAP
00C0
7EC0
7EC0
7EFF
15FF
1BC8
FE30
FEF8
1BCF
2FA7
2FFC
6BFC
C824
88C4
3BDC
3398
ENDCHAR
STARTCHAR 52DD
ENCODING 21213
SWIDTH 1020 0
DWIDTH 17 0
BBX 16 16 0 -1
BITMAP
01A4
79AC
79AC
7BFE
4BFE
4820
7FFF
7FFF
49CC
4BA7
7FFF
7DFC
48C4
49C4
FFBC
B638
ENDCHAR
STARTCHAR 52DE
ENCODING 21214
SWIDTH 1020 0
DWIDTH 17 0
BBX 14 16 1 -1
BITMAP
15A0
57A8
57A8
7B78
2850
FFFC
FFFC
8304
8304
7FF0
7FF0
0410
0410
0810
79F0
71E0
ENDCHAR
STARTCHAR 52DF
ENCODING 21215
SWIDTH 1020 0
DWIDTH 17 0
BBX 16 16 0 -1
BITMAP
0420
FFFF
FFFF
FFFF
0420
0FF0
0FF0
0810
FFFF
FFFF
0A10
3FFC
FFFF
C413
3DF0
39E0
ENDCHAR
STARTCHAR 52E0
ENCODING 21216
SWIDTH 1020 0
DWIDTH 17 0
BBX 15 16 0 -1
BITMAP
0010
F7D0
F7D0
F7D0
54D0
33FE
F7FE
DCD2
3E12
EBD2
D9D2
7222
6622
1CC4
7BDC
6398
ENDCHAR
STARTCHAR 52E2
ENCODING 21218
SWIDTH 1020 0
DWIDTH 17 0
BBX 16 16 0 -1
BITMAP
1020
FE20
FE20
FFFC
29FC
EFA4
FEE4
10F6
1FDB
FF8B
E181
3FFC
3FFC
0204
3E3C
3C38
ENDCHAR
STARTCHAR 52E3
ENCODING 21219
SWIDTH 1020 0
DWIDTH 17 0
BBX 15 16 0 -1
BITMAP
0810
7F90
7F90
7F90
0810
FFFE
FFFE
0012
7E12
7E12
4212
7E22
7E22
24E4
E7DC
C398
ENDCHAR
STARTCHAR 52E4
ENCODING 21220
SWIDTH 1020 0
DWIDTH 17 0
BBX 15 16 0 -1
BITMAP
2410
FF90
FF90
FF90
2410
7EFE
7EFE
5212
7E12
7E12
1012
FE22
FE22
10E4
FFDC
FF98
ENDCHAR
STARTCHAR 52E6
ENCODING 21222
SWIDTH 1020 0
DWIDTH 17 0
BBX 15 16 0 -1
BITMAP
9190
DB90
DB90
7F90
7F90
49FE
7FFE
7F92
0812
FFD2
FFD2
1E12
2BA2
E9A2
C9EE
09CC
ENDCHAR
STARTCHAR 52E7
ENCODING 21223
SWIDTH 1020 0
DWIDTH 17 0
BBX 15 16 0 -1
BITMAP
2010
3F90
3F90
7F90
50FE
FFFE
FF92
2412
7F92
FF92
C812
7FB2
7FA2
48E6
7FDC
7FD8
ENDCHAR
STARTCHAR 52F2
ENCODING 21234
SWIDTH 1020 0
DWIDTH 17 0
BBX 16 16 0 -1
BITMAP
0610
7E10
7E10
7810
08FE
FFFE
FFD2
4992
7F92
7F92
0832
FFEE
FFCC
2CE6
E633
C633
ENDCHAR
STARTCHAR 52F3
ENCODING 21235
SWIDTH 1020 0
DWIDTH 17 0
BBX 15 16 0 -1
BITMAP
0390
7F90
7F90
7C10
0810
FFFE
FFFE
4992
7F92
7F92
4992
7FA2
FFA2
FFE4
DBDC
9218
ENDCHAR
STARTCHAR 52F5
ENCODING 21237
SWIDTH 1020 0
DWIDTH 17 0
BBX 15 16 0 -1
BITMAP
0010
7FD0
7FD0
7FD0
4A10
7FFE
7FFE
4412
5F92
5F92
5592
7FD2
7FD2
E4F2
AFEE
2DCC
ENDCHAR
STARTCHAR 52F8
ENCODING 21240
SWIDTH 1020 0
DWIDTH 17 0
BBX 15 16 0 -1
BITMAP
2210
FFD0
FFD0
FFD0
2210
77FE
77FE
5592
7F92
FF92
C812
7E22
7E22
48E4
7FDC
7F98
ENDCHAR
STARTCHAR 52F9
ENCODING 21241
SWIDTH 1020 0
DWIDTH 17 0
BBX 15 16 0 -1
BITMAP
1000
1000
1000
1000
3FFE
3FFE
6002
C002
8002
0002
0002
0002
0004
000C
00F8
00F0
ENDCHAR
STARTCHAR 52FA
ENCODING 21242
SWIDTH 1020 0
DWIDTH 17 0
BBX 15 16 0 -1
BITMAP
0800
0800
0800
0FFE
1FFE
3002
E002
C802
0C02
0602
0202
0006
0004
000C
00F8
00F0
ENDCHAR
STARTCHAR 52FE
ENCODING 21246
SWIDTH 1020 0
DWIDTH 17 0
BBX 15 16 0 -1
BITMAP
0800
0800
0800
0FFE
1FFE
1002
3202
E202
C202
04C2
04E2
09F2
3FF2
3E04
003C
0038
ENDCHAR
STARTCHAR 52FF
ENCODING 21247
SWIDTH 1020 0
DWIDTH 17 0
BBX 15 16 0 -1
BITMAP
0800
0800
0800
1FFE
1FFE
3222
E222
C422
0CE2
18C2
71C2
6384
0E04
3C0C
30F8
00F0
ENDCHAR
STARTCHAR 5301
ENCODING 21249
SWIDTH 1020 0
DWIDTH 17 0
BBX 16 16 0 -1
BITMAP
0800
0800
0800
1FFC
1FFC
30C4
E984
CD84
0604
0788
0DE8
38F8
F01F
C037
03E0
03C0
ENDCHAR
STARTCHAR 5302
ENCODING 21250
SWIDTH 1020 0
DWIDTH 17 0
BBX 15 16 0 -1
BITMAP
1000
1000
1000
3FFE
3FFE
6002
D002
91C2
1FC2
1E02
1022
1022
1FE2
0FC4
003C
0038
ENDCHAR
STARTCHAR 5305
ENCODING 21253
SWIDTH 1020 0
DWIDTH 17 0
BBX 16 16 0 -1
BITMAP
1000
1000
1000
3FFC
3FFC
6004
FFC4
BFC4
00C4
1FC4
1FC8
10F8
10F1
1001
1FFF
0FFE
ENDCHAR
STARTCHAR 5306
ENCODING 21254
SWIDTH 1020 0
DWIDTH 17 0
BBX 15 16 0 -1
BITMAP
1000
1000
1000
3FFE
3FFE
6212
C212
BC22
3FA2
1BE2
71E2
63B2
0614
3C0C
38F8
00F0
ENDCHAR
STARTCHAR 5308
ENCODING 21256
SWIDTH 1020 0
DWIDTH 17 0
BBX 15 16 0 -1
BITMAP
1000
1000
1000
3FFE
3FFE
6182
E9A2
ADA2
2622
2FA2
39A2
31A4
3FE4
3FEC
0038
0030
ENDCHAR
STARTCHAR 530D
ENCODING 21261
SWIDTH 1020 0
DWIDTH 17 0
BBX 15 16 0 -1
BITMAP
2000
3FFE
3FFE
3FFE
6422
FFF2
BFF2
0402
3FE2
3FE2
2422
3FE2
3FE2
2424
25FC
25D8
ENDCHAR
STARTCHAR 530F
ENCODING 21263
SWIDTH 1020 0
DWIDTH 17 0
BBX 16 16 0 -1
BITMAP
10C0
FEFC
FEFC
FFFC
2984
7FF4
FFF4
8214
7DF4
7DF4
219C
7D98
7D81
0581
3DFF
38FE
ENDCHAR
STARTCHAR 5310
ENCODING 21264
SWIDTH 1020 0
DWIDTH 17 0
BBX 15 16 0 -1
BITMAP
1000
1FFE
1FFE
3FFE
E002
DFF2
1FF2
0002
0FC2
0FC2
08C2
3FF2
3FF2
2214
3FFC
3FF8
ENDCHAR
STARTCHAR 5315
ENCODING 21269
SWIDTH 1020 0
DWIDTH 17 0
BBX 13 16 1 -1
BITMAP
2000
2000
2000
2000
2010
2030
21E0
27C0
3F00
F800
E000
2000
2008
2008
3FF8
1FF0
ENDCHAR
STARTCHAR 5316
ENCODING 21270
SWIDTH 1020 0
DWIDTH 17 0
BBX 16 16 0 -1
BITMAP
0980
0980
0980
0980
1182
1186
319C
F1F8
D1E0
1180
1180
1180
1181
1181
11FF
10FE
ENDCHAR
STARTCHAR 5317
ENCODING 21271
SWIDTH 1020 0
DWIDTH 17 0
BBX 16 16 0 -1
BITMAP
04C0
04C0
04C0
04C0
04C0
FCC6
FCFE
04F8
04C0
04C0
0CC0
3CC0
F4C1
C4C1
04FF
043E
ENDCHAR
STARTCHAR 5319
ENCODING 21273
SWIDTH 1020 0
DWIDTH 17 0
BBX 16 15 0 -1
BITMAP
3E20
3E20
3E20
2222
3E26
3E3C
2238
FFA0
FFA2
4822
4FBE
6F9C
7800
DFFF
87FF
ENDCHAR
STARTCHAR 531A
ENCODING 21274
SWIDTH 1020 0
DWIDTH 17 0
BBX 15 15 1 -1
BITMAP
FFFC
FFFC
FFFC
8000
8000
8000
8000
8000
8000
8000
8000
8000
8000
FFFE
FFFE
ENDCHAR
STARTCHAR 531D
ENCODING 21277
SWIDTH 1020 0
DWIDTH 17 0
BBX 15 15 1 -1
BITMAP
FFFC
FFFC
FFFC
8300
8300
9FF0
9FF0
9310
9310
9370
9370
8300
8300
FFFE
FFFE
ENDCHAR
STARTCHAR 5320
ENCODING 21280
SWIDTH 1020 0
DWIDTH 17 0
BBX 15 15 1 -1
BITMAP
FFFC
FFFC
FFFC
8030
9FF0
9FC0
9000
9FFC
9FFC
9040
9040
B040
A040
FFFE
FFFE
ENDCHAR
STARTCHAR 5321
ENCODING 21281
SWIDTH 1020 0
DWIDTH 17 0
BBX 15 15 1 -1
BITMAP
FFFC
FFFC
FFFC
8000
9FF0
9FF0
8300
8FE0
8FE0
8300
BFF8
BFF8
8000
FFFE
FFFE
ENDCHAR
STARTCHAR 5323
ENCODING 21283
SWIDTH 1020 0
DWIDTH 17 0
BBX 15 15 1 -1
BITMAP
FFFC
FFFC
FFFC
8000
9FF0
9FF0
9190
9FF0
9FF0
9190
9FF0
9FF0
8180
FFFE
FFFE
ENDCHAR
STARTCHAR 532A
ENCODING 21290
SWIDTH 1020 0
DWIDTH 17 0
BBX 15 15 1 -1
BITMAP
FFFC
FFFC
FFFC
8440
BC7C
BC7C
8440
8C78
BC78
B440
8C7C
B87C
B040
FFFE
FFFE
ENDCHAR
STARTCHAR 532F
ENCODING 21295
SWIDTH 1020 0
DWIDTH 17 0
BBX 15 15 1 -1
BITMAP
FFFC
FFFC
FFFC
91A0
9BF8
AFF8
B720
93F8
8BF8
8B20
93FC
B3FC
A000
FFFE
FFFE
ENDCHAR
STARTCHAR 5331
ENCODING 21297
SWIDTH 1020 0
DWIDTH 17 0
BBX 15 15 1 -1
BITMAP
FFFC
FFFC
FFFC
8180
8FF0
8FF0
8990
FFFE
FFFE
8810
8FF0
8FF0
8420
FFFE
FFFE
ENDCHAR
STARTCHAR 5333
ENCODING 21299
SWIDTH 1020 0
DWIDTH 17 0
BBX 15 15 1 -1
BITMAP
FFFC
FFFC
FFFC
8760
8C30
BFFC
BFFC
9348
9F78
9F78
8820
9C70
9758
FFFE
FFFE
ENDCHAR
STARTCHAR 5338
ENCODING 21304
SWIDTH 1020 0
DWIDTH 17 0
BBX 16 13 0 -1
BITMAP
FFFF
FFFF
2000
2000
2000
2000
2000
2000
2000
2000
2000
3FFF
1FFF
ENDCHAR
STARTCHAR 5339
ENCODING 21305
SWIDTH 1020 0
DWIDTH 17 0
BBX 15 13 1 -1
BITMAP
FFFC
FFFC
8980
8980
8980
8988
9188
B1F8
E070
C000
8000
FFFE
FFFE
ENDCHAR
STARTCHAR 533A
ENCODING 21306
SWIDTH 1020 0
DWIDTH 17 0
BBX 15 15 1 -1
BITMAP
FFFC
FFFC
FFFC
8010
9810
9C20
8760
83C0
83C0
8760
BC30
B830
8000
FFFE
FFFE
ENDCHAR
STARTCHAR 533B
ENCODING 21307
SWIDTH 1020 0
DWIDTH 17 0
BBX 15 15 1 -1
BITMAP
FFFC
FFFC
FFFC
8800
8FF0
9FF0
B180
BFF8
BFF8
8760
BC3C
B81C
8000
FFFE
FFFE
ENDCHAR
STARTCHAR 533F
ENCODING 21311
SWIDTH 1020 0
DWIDTH 17 0
BBX 15 15 1 -1
BITMAP
FFFC
FFFC
FFFC
8440
BFF8
BFF8
8440
FFFC
FFFC
9820
FFE0
EFE0
8000
FFFE
FFFE
ENDCHAR
STARTCHAR 5340
ENCODING 21312
SWIDTH 1020 0
DWIDTH 17 0
BBX 15 15 1 -1
BITMAP
FFFC
FFFC
FFFC
8420
87E0
87E0
8000
BF7C
BF7C
A344
BF7C
BF7C
8000
FFFE
FFFE
ENDCHAR
STARTCHAR 5341
ENCODING 21313
SWIDTH 1020 0
DWIDTH 17 0
BBX 16 16 0 -1
BITMAP
0180
0180
0180
0180
0180
0180
0180
FFFF
FFFF
0180
0180
0180
0180
0180
0180
0180
ENDCHAR
STARTCHAR 5343
ENCODING 21315
SWIDTH 1020 0
DWIDTH 17 0
BBX 16 16 0 -1
BITMAP
000C
00FC
00FC
3FF0
3F80
0180
0180
0180
FFFF
FFFF
0180
0180
0180
0180
0180
0180
ENDCHAR
STARTCHAR 5345
ENCODING 21317
SWIDTH 1020 0
DWIDTH 17 0
BBX 16 16 0 -1
BITMAP
1188
1188
1188
1188
1188
1188
FFFF
FFFF
1188
1188
1188
1188
1188
2188
E188
C188
ENDCHAR
STARTCHAR 5346
ENCODING 21318
SWIDTH 1020 0
DWIDTH 17 0
BBX 16 16 0 -1
BITMAP
0200
0200
0200
7FE0
7FE0
0420
0C22
1822
F03E
E19C
0180
FFFF
FFFF
0180
0180
0180
ENDCHAR
STARTCHAR 5347
ENCODING 21319
SWIDTH 1020 0
DWIDTH 17 0
BBX 16 16 0 -1
BITMAP
01D0
07D0
07D0
7E10
7C10
0410
0410
FFFF
FFFF
0410
0410
0410
0810
1810
7010
6010
ENDCHAR
STARTCHAR 5348
ENCODING 21320
SWIDTH 1020 0
DWIDTH 17 0
BBX 16 16 0 -1
BITMAP
0800
0800
0800
0FFC
1FFC
7180
6180
0180
FFFF
FFFF
0180
0180
0180
0180
0180
0180
ENDCHAR
STARTCHAR 5349
ENCODING 21321
SWIDTH 1020 0
DWIDTH 17 0
BBX 16 16 0 -1
BITMAP
0180
0180
0180
7FFE
7FFE
0180
0990
0990
0810
FFFF
FFFF
0810
0810
1010
7010
6010
ENDCHAR
STARTCHAR 534A
ENCODING 21322
SWIDTH 1020 0
DWIDTH 17 0
BBX 16 16 0 -1
BITMAP
1188
1988
1988
0998
0990
0180
3FFC
3FFC
0180
0180
FFFF
FFFF
0180
0180
0180
0180
ENDCHAR
STARTCHAR 534D
ENCODING 21325
SWIDTH 1020 0
DWIDTH 17 0
BBX 16 15 0 -1
BITMAP
FF82
FF82
FF82
0182
0182
0182
0182
7FFE
7FFE
4180
4180
4180
4180
41FF
41FF
ENDCHAR
STARTCHAR 5351
ENCODING 21329
SWIDTH 1020 0
DWIDTH 17 0
BBX 16 16 0 -1
BITMAP
0200
1FF8
1FF8
1FF8
1188
1FF8
1FF8
1188
1FF8
1FF8
08C0
10C0
FFFF
FFFF
00C0
00C0
ENDCHAR
STARTCHAR 5352
ENCODING 21330
SWIDTH 1020 0
DWIDTH 17 0
BBX 16 16 0 -1
BITMAP
0180
7FFE
7FFE
7FFE
0810
0810
1428
36EC
22C4
FFFF
FFFF
0180
0180
0180
0180
0180
ENDCHAR
STARTCHAR 5353
ENCODING 21331
SWIDTH 1020 0
DWIDTH 17 0
BBX 16 16 0 -1
BITMAP
0180
01FE
01FE
01FE
0180
1FF8
1FF8
1008
1FF8
1FF8
1008
1FF8
FFFF
FFFF
0180
0180
ENDCHAR
STARTCHAR 5354
ENCODING 21332
SWIDTH 1020 0
DWIDTH 17 0
BBX 15 16 0 -1
BITMAP
20C0
20C0
20C0
27F8
FFF8
F8C8
2188
27B8
2630
3FFE
3FFE
24D2
24D2
2CD2
3BFE
33AC
ENDCHAR
STARTCHAR 5357
ENCODING 21335
SWIDTH 1020 0
DWIDTH 17 0
BBX 16 16 0 -1
BITMAP
0180
FFFF
FFFF
FFFF
0180
3FFC
3FFC
2424
2FF4
2FF4
2184
2FF4
2FF4
2184
219C
2198
ENDCHAR
STARTCHAR 5358
ENCODING 21336
SWIDTH 1020 0
DWIDTH 17 0
BBX 16 16 0 -1
BITMAP
2208
3398
3398
1FF8
1FF8
1188
1FF8
1FF8
1188
1FF8
1FF8
0180
FFFF
FFFF
0180
0180
ENDCHAR
STARTCHAR 535A
ENCODING 21338
SWIDTH 1020 0
DWIDTH 17 0
BBX 16 16 0 -1
BITMAP
2024
27FF
27FF
27FF
2020
FBFC
FBFC
2224
23FC
23FC
2008
2FFF
2FFF
2208
23B8
21B0
ENDCHAR
STARTCHAR 535C
ENCODING 21340
SWIDTH 1020 0
DWIDTH 17 0
BBX 7 16 7 -1
BITMAP
C0
C0
C0
C0
C0
C0
F0
FC
CE
C2
C0
C0
C0
C0
C0
C0
ENDCHAR
STARTCHAR 535E
ENCODING 21342
SWIDTH 1020 0
DWIDTH 17 0
BBX 16 16 0 -1
BITMAP
0180
0180
0180
0180
FFFF
FFFF
0180
0180
01E0
01F8
019C
0184
0180
0180
0180
0180
ENDCHAR
STARTCHAR 5360
ENCODING 21344
SWIDTH 1020 0
DWIDTH 17 0
BBX 12 16 3 -1
BITMAP
0C00
0C00
0C00
0C00
0FF0
0FF0
0C00
0C00
0C00
FFC0
FFC0
8040
8040
8040
FFC0
FFC0
ENDCHAR
STARTCHAR 5366
ENCODING 21350
SWIDTH 1020 0
DWIDTH 17 0
BBX 16 16 0 -1
BITMAP
0810
0810
0810
7F90
7F90
0810
FFDC
FFDE
0813
0811
7F90
7F90
0810
0FD0
FFD0
F810
ENDCHAR
STARTCHAR 5369
ENCODING 21353
SWIDTH 1020 0
DWIDTH 17 0
BBX 7 13 5 -1
BITMAP
FE
FE
82
82
82
82
82
82
BE
BC
80
80
80
ENDCHAR
STARTCHAR 536E
ENCODING 21358
SWIDTH 1020 0
DWIDTH 17 0
BBX 16 16 0 -1
BITMAP
001C
3FFC
3FFC
3FE0
2000
3FFF
3FFF
2000
27F8
27F8
2408
24F8
44F2
C402
87FE
03FC
ENDCHAR
STARTCHAR 536F
ENCODING 21359
SWIDTH 1020 0
DWIDTH 17 0
BBX 15 16 0 -1
BITMAP
0380
3FBE
3FBE
3C3E
2222
2222
2222
2222
2222
2E22
FE22
F23E
043C
0C20
7820
7020
ENDCHAR
STARTCHAR 5370
ENCODING 21360
SWIDTH 1020 0
DWIDTH 17 0
BBX 14 16 1 -1
BITMAP
0300
0F00
0F00
FDFC
F1FC
8184
8184
FD84
FD84
8184
8184
8184
FDBC
FDB8
8180
0180
ENDCHAR
STARTCHAR 5371
ENCODING 21361
SWIDTH 1020 0
DWIDTH 17 0
BBX 15 16 0 -1
BITMAP
0800
0FE0
0FE0
1FE0
10C0
3FFE
FFFE
E000
27F0
27F0
2410
24F0
64F2
4402
C7FE
83FC
ENDCHAR
STARTCHAR 5373
ENCODING 21363
SWIDTH 1020 0
DWIDTH 17 0
BBX 15 15 0 -1
BITMAP
3E3E
3E3E
3E3E
2222
3E22
3E22
2222
3E22
3E22
2822
242E
262C
2FA0
FFA0
F1A0
ENDCHAR
STARTCHAR 5374
ENCODING 21364
SWIDTH 1020 0
DWIDTH 17 0
BBX 15 16 0 -1
BITMAP
0800
083E
083E
7FBE
7FA2
0822
0822
FFE2
FFE2
1422
1622
222E
2FAC
FFA0
F1A0
0020
ENDCHAR
STARTCHAR 5375
ENCODING 21365
SWIDTH 1020 0
DWIDTH 17 0
BBX 15 16 0 -1
BITMAP
00C0
03C0
03C0
3FBE
3E3E
2222
3232
3A3A
2A2A
222A
2E22
FE22
F22E
042C
3C20
3820
ENDCHAR
STARTCHAR 5377
ENCODING 21367
SWIDTH 1020 0
DWIDTH 17 0
BBX 16 16 0 -1
BITMAP
0990
0DB0
0DB0
3FFC
3FFC
02C0
FFFF
FFFF
1818
3FEC
EFE7
C823
09E8
09C8
0FF8
07F0
ENDCHAR
STARTCHAR 5378
ENCODING 21368
SWIDTH 1020 0
DWIDTH 17 0
BBX 15 16 0 -1
BITMAP
4000
7F80
7F80
7FBE
483E
8822
FFE2
FFE2
0822
4FA2
4FA2
4822
482E
4FAC
FFA0
F020
ENDCHAR
STARTCHAR 537B
ENCODING 21371
SWIDTH 1020 0
DWIDTH 17 0
BBX 15 16 0 -1
BITMAP
2600
67BE
67BE
C1BE
9822
1C22
3622
63A2
C1A2
BE22
3E22
222E
222C
3E20
3E20
0020
ENDCHAR
STARTCHAR 537F
ENCODING 21375
SWIDTH 1020 0
DWIDTH 17 0
BBX 16 16 0 -1
BITMAP
0C00
7FEF
7FEF
73EF
4A29
4BE9
4BE9
4A29
4BE9
5BE9
FAC9
EAEB
122B
32E8
E7E8
C788
ENDCHAR
STARTCHAR 5382
ENCODING 21378
SWIDTH 1020 0
DWIDTH 17 0
BBX 16 15 0 -1
BITMAP
3FFF
3FFF
3FFF
2000
2000
2000
2000
2000
2000
2000
2000
2000
4000
C000
8000
ENDCHAR
STARTCHAR 5384
ENCODING 21380
SWIDTH 1020 0
DWIDTH 17 0
BBX 16 15 0 -1
BITMAP
3FFF
3FFF
3FFF
2000
27F8
27F8
2408
2408
2408
24F8
24F0
4401
C401
87FF
03FE
ENDCHAR
STARTCHAR 5396
ENCODING 21398
SWIDTH 1020 0
DWIDTH 17 0
BBX 16 15 0 -1
BITMAP
3FFF
3FFF
3FFF
22C0
22E0
3FE4
3FEC
223A
23B6
258C
25BA
45B6
C98D
B9FF
30FE
ENDCHAR
STARTCHAR 5398
ENCODING 21400
SWIDTH 1020 0
DWIDTH 17 0
BBX 16 15 0 -1
BITMAP
3FFE
3FFE
3FFE
2000
27F8
27F8
24C8
27F8
27F8
20C0
2FFC
4FFC
C0C0
BFFF
3FFF
ENDCHAR
STARTCHAR 539A
ENCODING 21402
SWIDTH 1020 0
DWIDTH 17 0
BBX 16 15 0 -1
BITMAP
3FFE
3FFE
3FFE
2410
27F0
27F0
2410
2FF8
2FF8
2010
3FFF
5FFF
C0C0
87C0
0780
ENDCHAR
STARTCHAR 539F
ENCODING 21407
SWIDTH 1020 0
DWIDTH 17 0
BBX 16 15 0 -1
BITMAP
3FFE
3FFE
3FFE
2180
27F8
27F8
2408
27F8
27F8
2408
27F8
47F8
C8C8
BBCF
3387
ENDCHAR
STARTCHAR 53A0
ENCODING 21408
SWIDTH 1020 0
DWIDTH 17 0
BBX 16 15 0 -1
BITMAP
3FFF
3FFF
3FFF
2000
2F82
2F92
2992
2F92
2F92
2992
2F92
4F92
C582
9DCE
18CC
ENDCHAR
STARTCHAR 53A5
ENCODING 21413
SWIDTH 1020 0
DWIDTH 17 0
BBX 16 15 0 -1
BITMAP
3FFF
3FFF
3FFF
28D0
2DD0
3FDF
3FFF
2222
2AC8
2AC8
2FC8
4FD4
C214
9EF7
1CE3
ENDCHAR
STARTCHAR 53A6
ENCODING 21414
SWIDTH 1020 0
DWIDTH 17 0
BBX 16 15 0 -1
BITMAP
3FFF
3FFF
3FFF
2180
27F8
27F8
2408
27F8
27F8
2200
27F8
5FF8
D990
8FFF
0F8F
ENDCHAR
STARTCHAR 53A8
ENCODING 21416
SWIDTH 1020 0
DWIDTH 17 0
BBX 16 15 0 -1
BITMAP
3FFF
3FFF
3FFF
2004
3FC4
3FFF
203F
2FA4
2FB4
2994
2F94
6F84
4A04
DFDC
9FD8
ENDCHAR
STARTCHAR 53A9
ENCODING 21417
SWIDTH 1020 0
DWIDTH 17 0
BBX 16 15 0 -1
BITMAP
3FFF
3FFF
3FFF
2400
2FBE
2FBE
29A8
29A8
2FFF
2FFF
2A08
2999
4BB9
DFEF
9DC6
ENDCHAR
STARTCHAR 53AD
ENCODING 21421
SWIDTH 1020 0
DWIDTH 17 0
BBX 16 16 0 -1
BITMAP
3FFF
3FFF
3FFF
2990
2F94
2F96
2012
2FFF
2FFF
2990
2F90
2F98
69A8
49A4
CBE7
8BC3
ENDCHAR
STARTCHAR 53AE
ENCODING 21422
SWIDTH 1020 0
DWIDTH 17 0
BBX 16 15 0 -1
BITMAP
3FFF
3FFF
3FFF
2982
3FDE
3FDC
2990
2F9F
2F9F
2994
3FD4
5FD4
CA24
BBE4
31C4
ENDCHAR
STARTCHAR 53B0
ENCODING 21424
SWIDTH 1020 0
DWIDTH 17 0
BBX 16 15 0 -1
BITMAP
3FFF
3FFF
3FFF
3230
2AD0
2FDF
2FFF
28E4
2ED4
2ED4
2AC8
4EC8
CED4
8BF7
0BA3
ENDCHAR
STARTCHAR 53B3
ENCODING 21427
SWIDTH 1020 0
DWIDTH 17 0
BBX 16 16 0 -1
BITMAP
0984
3FFF
3FFF
3FFF
2010
2FD0
2FDF
223F
3FE4
3FD4
2994
2F88
4F88
C99C
BFF7
3FE3
ENDCHAR
STARTCHAR 53B6
ENCODING 21430
SWIDTH 1020 0
DWIDTH 17 0
BBX 16 16 0 -1
BITMAP
0180
0180
0180
0180
0180
0200
0200
0200
0400
0410
0418
080C
0806
11FE
FFFF
FE03
ENDCHAR
STARTCHAR 53BB
ENCODING 21435
SWIDTH 1020 0
DWIDTH 17 0
BBX 16 16 0 -1
BITMAP
0180
0180
0180
3FFC
3FFC
0180
0180
FFFF
FFFF
0200
0220
0430
0418
09FC
7FFE
7E06
ENDCHAR
STARTCHAR 53C2
ENCODING 21442
SWIDTH 1020 0
DWIDTH 17 0
BBX 16 16 0 -1
BITMAP
0200
0610
0610
3FFC
3FEC
0180
FFFF
FFFF
0DB0
3FBC
F1EF
CFCB
0E18
00F0
1FE0
1F80
ENDCHAR
STARTCHAR 53C3
ENCODING 21443
SWIDTH 1020 0
DWIDTH 17 0
BBX 16 16 0 -1
BITMAP
0420
0430
0430
7FF8
7FD8
2812
FDBF
F7FB
06E0
1CF8
F9DF
E797
1E30
19E0
0FC0
0E00
ENDCHAR
STARTCHAR 53C8
ENCODING 21448
SWIDTH 1020 0
DWIDTH 17 0
BBX 16 13 0 -1
BITMAP
3FFC
3FFC
0808
0810
0410
0420
02E0
03C0
03C0
06E0
1C38
F81F
E007
ENDCHAR
STARTCHAR 53C9
ENCODING 21449
SWIDTH 1020 0
DWIDTH 17 0
BBX 16 13 0 -1
BITMAP
7FF8
7FF8
1208
0B90
0990
0420
06E0
03C0
03C0
06E0
1C38
F81F
E007
ENDCHAR
STARTCHAR 53CA
ENCODING 21450
SWIDTH 1020 0
DWIDTH 17 0
BBX 16 15 0 -1
BITMAP
7FF0
7FF0
7FF0
0420
04C0
04F8
04F8
0608
0A08
0990
09D0
10E0
33F8
EF9F
CC07
ENDCHAR
STARTCHAR 53CB
ENCODING 21451
SWIDTH 1020 0
DWIDTH 17 0
BBX 16 16 0 -1
BITMAP
0200
0200
0200
FFFF
FFFF
0200
0200
07F8
07F8
0E10
1A30
31E0
E1E0
C7B8
3E1F
3807
ENDCHAR
STARTCHAR 53CC
ENCODING 21452
SWIDTH 1020 0
DWIDTH 17 0
BBX 16 15 0 -1
BITMAP
FDFC
FDFC
FDFC
0584
0588
64C8
74C8
18D0
0C30
0C20
1AF0
12C8
31CC
E787
C603
ENDCHAR
STARTCHAR 53CD
ENCODING 21453
SWIDTH 1020 0
DWIDTH 17 0
BBX 16 15 0 -1
BITMAP
3FFF
3FFF
3FFF
2000
2000
3FF8
3FF8
2410
2210
2220
41E0
41E0
C7B8
BE1F
3807
ENDCHAR
STARTCHAR 53CE
ENCODING 21454
SWIDTH 1020 0
DWIDTH 17 0
BBX 16 16 0 -1
BITMAP
0800
4800
4800
4BFC
4BFC
4988
4988
4988
48D0
48D0
5820
F830
E8D8
09CC
0F87
0E03
ENDCHAR
STARTCHAR 53D4
ENCODING 21460
SWIDTH 1020 0
DWIDTH 17 0
BBX 16 16 0 -1
BITMAP
1000
1000
1000
1EFC
1EFC
10C4
FFA4
FFA8
1028
5418
5610
D238
9228
10EC
73C7
6383
ENDCHAR
STARTCHAR 53D6
ENCODING 21462
SWIDTH 1020 0
DWIDTH 17 0
BBX 16 15 0 -1
BITMAP
FFC0
FFC0
FFC0
25FE
3DFE
3CC4
24C4
3C28
3C28
2410
2C18
3C28
F4EC
C7C7
0783
ENDCHAR
STARTCHAR 53D7
ENCODING 21463
SWIDTH 1020 0
DWIDTH 17 0
BBX 16 16 0 -1
BITMAP
001E
7FFE
7FFE
7FE8
1B98
0990
7FFE
7FFE
4002
5FFA
1FF8
0420
03C0
0FF0
FC3F
F00F
ENDCHAR
STARTCHAR 53D9
ENCODING 21465
SWIDTH 1020 0
DWIDTH 17 0
BBX 16 16 0 -1
BITMAP
1000
3800
3800
2DFE
67FE
FEC4
BCC4
1024
FE28
FE28
1010
5418
5628
D2EC
B3C7
3383
ENDCHAR
STARTCHAR 53DB
ENCODING 21467
SWIDTH 1020 0
DWIDTH 17 0
BBX 16 16 0 -1
BITMAP
1000
95FF
95FF
DDFF
5980
FF80
FFFE
11FE
11A4
1DA4
FDA8
F198
1218
2E2C
EDE7
C1C3
ENDCHAR
STARTCHAR 53DF
ENCODING 21471
SWIDTH 1020 0
DWIDTH 17 0
BBX 16 16 0 -1
BITMAP
0380
3FBC
3FBC
3DBC
2184
3DBC
3DBC
2184
3FFC
3FFC
0180
7FFC
7FFC
0420
FFFF
FC3F
ENDCHAR
STARTCHAR 53E1
ENCODING 21473
SWIDTH 1020 0
DWIDTH 17 0
BBX 16 16 0 -1
BITMAP
0800
FFBE
FFBE
FFBE
81A2
7E22
FFD4
94D4
7F94
FFDC
A2C8
3E14
3E14
2236
3EE3
3EC1
ENDCHAR
STARTCHAR 53E2
ENCODING 21474
SWIDTH 1020 0
DWIDTH 17 0
BBX 16 16 0 -1
BITMAP
12C8
FFFF
FFFF
FFFF
0420
3FFC
3FFC
0180
FFFF
FFFF
2200
3EFE
3EFE
2224
FFFF
FFE7
ENDCHAR
STARTCHAR 53E3
ENCODING 21475
SWIDTH 1020 0
DWIDTH 17 0
BBX 12 12 2 0
BITMAP
FFF0
FFF0
8010
8010
8010
8010
8010
8010
8010
8010
FFF0
FFF0
ENDCHAR
STARTCHAR 53E4
ENCODING 21476
SWIDTH 1020 0
DWIDTH 17 0
BBX 16 16 0 -1
BITMAP
0180
0180
0180
0180
FFFF
FFFF
0180
0180
0180
1FF8
1FF8
1008
1008
1008
1FF8
1FF8
ENDCHAR
STARTCHAR 53E5
ENCODING 21477
SWIDTH 1020 0
DWIDTH 17 0
BBX 15 16 0 -1
BITMAP
1000
1000
1000
1FFE
3FFE
2002
6002
DFC2
9FC2
10C2
10C2
1FC2
1FC2
0004
003C
0038
ENDCHAR
STARTCHAR 53E8
ENCODING 21480
SWIDTH 1020 0
DWIDTH 17 0
BBX 14 13 1 -1
BITMAP
F7FC
F7FC
9044
9044
9044
9044
9184
F184
F184
0308
0718
1DF0
19E0
ENDCHAR
STARTCHAR 53E9
ENCODING 21481
SWIDTH 1020 0
DWIDTH 17 0
BBX 14 13 1 -1
BITMAP
F9FC
F9FC
8984
8984
8984
8984
8984
F984
F9BC
01B8
0180
0180
0180
ENDCHAR
STARTCHAR 53EA
ENCODING 21482
SWIDTH 1020 0
DWIDTH 17 0
BBX 16 15 0 -1
BITMAP
1FF8
1FF8
1FF8
1008
1008
1008
1008
1FF8
1FF8
0000
0420
0C30
381C
F00F
C003
ENDCHAR
STARTCHAR 53EB
ENCODING 21483
SWIDTH 1020 0
DWIDTH 17 0
BBX 15 16 1 -1
BITMAP
0010
0190
0190
F190
F190
9190
9190
9190
9190
919E
F1FE
F7F0
0790
0010
0010
0010
ENDCHAR
STARTCHAR 53EC
ENCODING 21484
SWIDTH 1020 0
DWIDTH 17 0
BBX 15 15 0 -1
BITMAP
FFFE
FFFE
FFFE
0202
0202
0404
1C3C
F838
E000
1FF8
1FF8
1008
1008
1FF8
1FF8
ENDCHAR
STARTCHAR 53ED
ENCODING 21485
SWIDTH 1020 0
DWIDTH 17 0
BBX 15 16 1 -1
BITMAP
0320
0320
0320
0320
F320
F320
9320
9320
9320
9310
F410
F410
0418
0808
380E
3006
ENDCHAR
STARTCHAR 53EE
ENCODING 21486
SWIDTH 1020 0
DWIDTH 17 0
BBX 15 15 1 -1
BITMAP
0FFE
0FFE
FFFE
F020
9020
9020
9020
9020
9020
F020
F020
0020
0020
03E0
03C0
ENDCHAR
STARTCHAR 53EF
ENCODING 21487
SWIDTH 1020 0
DWIDTH 17 0
BBX 16 15 0 -1
BITMAP
FFFF
FFFF
FFFF
0008
0008
3F88
3F88
2188
2188
3F88
3F88
0008
0008
01F8
01F0
ENDCHAR
STARTCHAR 53F0
ENCODING 21488
SWIDTH 1020 0
DWIDTH 17 0
BBX 16 16 0 -1
BITMAP
0200
0200
0200
0608
040C
0C3E
FFFF
FFC3
0000
0000
1FF8
1FF8
1008
1008
1FF8
1FF8
ENDCHAR
STARTCHAR 53F1
ENCODING 21489
SWIDTH 1020 0
DWIDTH 17 0
BBX 15 16 1 -1
BITMAP
0300
0300
0300
0300
F300
F300
9306
937E
9FF8
9F80
9300
F300
F304
0304
03FC
01F8
ENDCHAR
STARTCHAR 53F2
ENCODING 21490
SWIDTH 1020 0
DWIDTH 17 0
BBX 16 16 0 -1
BITMAP
0180
0180
0180
3FFC
3FFC
2184
2184
2184
3FFC
3FFC
0980
0600
0780
1DE0
F8FF
E01F
ENDCHAR
STARTCHAR 53F3
ENCODING 21491
SWIDTH 1020 0
DWIDTH 17 0
BBX 16 16 0 -1
BITMAP
0200
0200
0200
0200
FFFF
FFFF
0C00
1800
3800
EFF8
CFF8
0808
0808
0808
0FF8
0FF8
ENDCHAR
STARTCHAR 53F6
ENCODING 21494
SWIDTH 1020 0
DWIDTH 17 0
BBX 15 16 1 -1
BITMAP
0040
0040
0040
0040
F040
F040
9040
9FFE
9FFE
9040
9040
F040
F040
0040
0040
0040
ENDCHAR
STARTCHAR 53F7
ENCODING 21495
SWIDTH 1020 0
DWIDTH 17 0
BBX 16 15 0 -1
BITMAP
0FF0
0FF0
0FF0
0810
0FF0
0FF0
0000
FFFF
FFFF
0800
0FF8
0FF8
0008
03F8
03F0
ENDCHAR
STARTCHAR 53F8
ENCODING 21496
SWIDTH 1020 0
DWIDTH 17 0
BBX 15 15 0 -1
BITMAP
FFFE
FFFE
FFFE
0002
3FE2
3FE2
0002
1FC2
1FC2
10C2
1FC2
1FC2
0002
001E
001C
ENDCHAR
STARTCHAR 53FA
ENCODING 21498
SWIDTH 1020 0
DWIDTH 17 0
BBX 15 15 1 -1
BITMAP
0F80
0F80
0F80
F180
F180
9180
9180
9340
9340
F320
F420
0410
0C18
380E
3006
ENDCHAR
STARTCHAR 5401
ENCODING 21505
SWIDTH 1020 0
DWIDTH 17 0
BBX 15 15 1 -1
BITMAP
07FC
07FC
F7FC
F040
9040
9040
9FFE
9FFE
9040
F040
F040
0040
0040
07C0
0780
ENDCHAR
STARTCHAR 5403
ENCODING 21507
SWIDTH 1020 0
DWIDTH 17 0
BBX 15 16 0 -1
BITMAP
0200
0200
0200
07FE
F7FE
FC00
9BF8
93F8
9018
9030
F0E0
F1C0
0382
0602
07FE
03FC
ENDCHAR
STARTCHAR 5404
ENCODING 21508
SWIDTH 1020 0
DWIDTH 17 0
BBX 16 16 0 -1
BITMAP
0400
07F8
07F8
07F8
0C30
1AE0
73C0
63C0
06E0
1C38
FFFF
EFF7
0810
0810
0FF0
0FF0
ENDCHAR
STARTCHAR 5408
ENCODING 21512
SWIDTH 1020 0
DWIDTH 17 0
BBX 16 16 0 -1
BITMAP
0180
03C0
03C0
06E0
0C30
381C
FFFF
CFF3
0000
0000
1FF8
1FF8
1008
1008
1FF8
1FF8
ENDCHAR
STARTCHAR 5409
ENCODING 21513
SWIDTH 1020 0
DWIDTH 17 0
BBX 16 16 0 -1
BITMAP
0180
0180
0180
FFFF
FFFF
0180
0180
7FFE
7FFE
0000
1FF8
1FF8
1008
1008
1FF8
1FF8
ENDCHAR
STARTCHAR 540A
ENCODING 21514
SWIDTH 1020 0
DWIDTH 17 0
BBX 12 15 2 -1
BITMAP
3FC0
3FC0
3FC0
2040
2040
3FC0
3FC0
0600
FFF0
FFF0
8610
8610
86F0
86E0
0600
ENDCHAR
STARTCHAR 540B
ENCODING 21515
SWIDTH 1020 0
DWIDTH 17 0
BBX 16 16 0 -1
BITMAP
0008
0008
0008
F808
F808
8BFF
8BFF
8808
8A08
8B88
F9C8
F8C8
0008
0008
00F8
00F0
ENDCHAR
STARTCHAR 540C
ENCODING 21516
SWIDTH 1020 0
DWIDTH 17 0
BBX 14 15 1 -1
BITMAP
FFFC
FFFC
FFFC
8004
9FE4
9FE4
8004
8FC4
8FC4
8844
8FC4
8FC4
8004
803C
8038
ENDCHAR
STARTCHAR 540D
ENCODING 21517
SWIDTH 1020 0
DWIDTH 17 0
BBX 14 16 0 -1
BITMAP
0200
0200
0200
07FC
0FFC
1C18
7630
62E0
03C0
07FC
1FFC
FC04
E404
0404
07FC
07FC
ENDCHAR
STARTCHAR 540E
ENCODING 21518
SWIDTH 1020 0
DWIDTH 17 0
BBX 16 16 0 -1
BITMAP
001C
3FFC
3FFC
3FE0
2000
3FFF
3FFF
2000
2000
27F8
27F8
2408
4408
C408
87F8
07F8
ENDCHAR
STARTCHAR 540F
ENCODING 21519
SWIDTH 1020 0
DWIDTH 17 0
BBX 16 16 0 -1
BITMAP
0180
0180
0180
FFFF
FFFF
0180
1FF8
1FF8
1188
1FF8
1FF8
0980
0780
0FE0
FCFF
F01F
ENDCHAR
STARTCHAR 5410
ENCODING 21520
SWIDTH 1020 0
DWIDTH 17 0
BBX 15 16 1 -1
BITMAP
0040
0040
0040
0040
F040
F040
97FC
97FC
9040
9040
9040
F040
F040
0040
1FFE
1FFE
ENDCHAR
STARTCHAR 5411
ENCODING 21521
SWIDTH 1020 0
DWIDTH 17 0
BBX 14 16 1 -1
BITMAP
0400
0400
0400
0800
FFFC
FFFC
8004
8FC4
8FC4
8844
8844
8FC4
8FC4
8004
803C
8038
ENDCHAR
STARTCHAR 541B
ENCODING 21531
SWIDTH 1020 0
DWIDTH 17 0
BBX 16 15 0 -1
BITMAP
3FF0
3FF0
3FF0
0210
FFFF
FFFF
0210
3FF0
3FF0
0800
1FF8
FFF8
E808
0FF8
0FF8
ENDCHAR
STARTCHAR 541D
ENCODING 21533
SWIDTH 1020 0
DWIDTH 17 0
BBX 16 16 0 -1
BITMAP
0180
0180
0180
FFFF
FFFF
0810
07E0
1FF8
FC3F
E007
1FF8
1FF8
1008
1008
1FF8
1FF8
ENDCHAR
STARTCHAR 541F
ENCODING 21535
SWIDTH 1020 0
DWIDTH 17 0
BBX 15 16 1 -1
BITMAP
0040
0040
0040
01A0
F1A0
F310
97F8
9DEE
9806
97F8
F7F8
F008
0010
0030
01E0
01C0
ENDCHAR
STARTCHAR 5420
ENCODING 21536
SWIDTH 1020 0
DWIDTH 17 0
BBX 15 16 1 -1
BITMAP
0040
0050
0050
0058
F048
FFFE
9FFE
9040
9040
91A0
91A0
F1A0
F310
0718
1C0E
1806
ENDCHAR
STARTCHAR 5426
ENCODING 21542
SWIDTH 1020 0
DWIDTH 17 0
BBX 16 15 0 -1
BITMAP
FFFF
FFFF
FFFF
0380
07B0
1DBC
F98E
E183
0181
1FF8
1FF8
1008
1008
1FF8
1FF8
ENDCHAR
STARTCHAR 5429
ENCODING 21545
SWIDTH 1020 0
DWIDTH 17 0
BBX 15 16 1 -1
BITMAP
0320
0320
0320
F310
F310
9408
940C
9FFE
9BFA
9188
F188
F188
0308
0710
1DF0
19E0
ENDCHAR
STARTCHAR 542B
ENCODING 21547
SWIDTH 1020 0
DWIDTH 17 0
BBX 16 16 0 -1
BITMAP
0180
03C0
03C0
06E0
0C30
3FFC
F7EF
C003
0FF0
0FF0
00C0
1FF8
1FF8
1008
1FF8
1FF8
ENDCHAR
STARTCHAR 542C
ENCODING 21548
SWIDTH 1020 0
DWIDTH 17 0
BBX 15 16 1 -1
BITMAP
0004
001C
001C
F3F8
F3E0
9300
9300
93FE
93FE
9310
F310
F310
0410
1C10
1810
0010
ENDCHAR
STARTCHAR 542D
ENCODING 21549
SWIDTH 1020 0
DWIDTH 17 0
BBX 15 16 1 -1
BITMAP
0040
0040
0040
F7FC
F7FC
9000
9000
93E0
93E0
9320
F320
F320
0322
0422
1C3E
181C
ENDCHAR
STARTCHAR 542E
ENCODING 21550
SWIDTH 1020 0
DWIDTH 17 0
BBX 15 16 1 -1
BITMAP
0180
0180
0180
F180
F310
9338
9FFC
9FEC
9320
9320
F320
F320
0422
0C22
383E
301C
ENDCHAR
STARTCHAR 5436
ENCODING 21558
SWIDTH 1020 0
DWIDTH 17 0
BBX 14 16 1 -1
BITMAP
0040
0040
0040
F040
F7FC
97FC
9444
9444
95A4
95B4
F79C
F70C
0404
0404
041C
0418
ENDCHAR
STARTCHAR 5438
ENCODING 21560
SWIDTH 1020 0
DWIDTH 17 0
BBX 15 15 1 -1
BITMAP
0FF0
0FF0
0FF0
F310
F320
9378
9378
9588
F588
F590
0850
1860
73F8
6F9E
0C06
ENDCHAR
STARTCHAR 5439
ENCODING 21561
SWIDTH 1020 0
DWIDTH 17 0
BBX 15 16 1 -1
BITMAP
0300
0300
0300
03FE
F7FE
F40C
9C48
9840
9040
9040
F1A0
F1A0
0310
0718
1C0E
1806
ENDCHAR
STARTCHAR 543B
ENCODING 21563
SWIDTH 1020 0
DWIDTH 17 0
BBX 15 16 0 -1
BITMAP
0180
0180
0180
0180
F3FE
F7FE
9CD2
98D2
9192
97A2
9622
F0C4
F1C4
078C
06F8
00F0
ENDCHAR
STARTCHAR 543C
ENCODING 21564
SWIDTH 1020 0
DWIDTH 17 0
BBX 16 16 0 -1
BITMAP
0010
0FD0
0FD0
FFD0
F0D0
93D0
9390
9230
93F0
9FD0
FE10
F210
0211
0211
0E1F
0C0E
ENDCHAR
STARTCHAR 543D
ENCODING 21565
SWIDTH 1020 0
DWIDTH 17 0
BBX 15 16 1 -1
BITMAP
0020
0320
0320
0320
F3FC
F7FC
9C20
9820
9020
9FFE
9FFE
F020
F020
0020
0020
0020
ENDCHAR
STARTCHAR 543E
ENCODING 21566
SWIDTH 1020 0
DWIDTH 17 0
BBX 16 15 0 -1
BITMAP
7FFE
7FFE
7FFE
0200
3FF0
3FF0
0410
FFFF
FFFF
0000
1FF8
1FF8
1008
1FF8
1FF8
ENDCHAR
STARTCHAR 5440
ENCODING 21568
SWIDTH 1020 0
DWIDTH 17 0
BBX 15 15 1 -1
BITMAP
07FC
07FC
07FC
F190
F190
9190
9FFE
9FFE
9050
F190
F390
0710
1C10
19F0
01E0
ENDCHAR
STARTCHAR 5442
ENCODING 21570
SWIDTH 1020 0
DWIDTH 17 0
BBX 12 15 2 -1
BITMAP
7FE0
7FE0
7FE0
4020
4020
7FE0
7FE0
0600
0800
FFF0
FFF0
8010
8010
FFF0
FFF0
ENDCHAR
STARTCHAR 5446
ENCODING 21574
SWIDTH 1020 0
DWIDTH 17 0
BBX 16 15 0 -1
BITMAP
0FF0
0FF0
0FF0
0810
0810
0FF0
0FF0
0180
FFFF
FFFF
05A0
0990
1998
F18F
E187
ENDCHAR
STARTCHAR 5448
ENCODING 21576
SWIDTH 1020 0
DWIDTH 17 0
BBX 16 15 0 -1
BITMAP
0FF0
0FF0
0FF0
0810
0FF0
0FF0
0000
7FFE
7FFE
0180
3FFC
3FFC
0180
FFFF
FFFF
ENDCHAR
STARTCHAR 5449
ENCODING 21577
SWIDTH 1020 0
DWIDTH 17 0
BBX 16 15 0 -1
BITMAP
07F0
07F0
17F0
1410
17F0
17F0
1000
1FF8
1FF8
0008
FFFF
FFFF
0420
7C3E
781E
ENDCHAR
STARTCHAR 544A
ENCODING 21578
SWIDTH 1020 0
DWIDTH 17 0
BBX 16 16 0 -1
BITMAP
1180
1180
1180
3FFC
7FFC
6180
0180
FFFF
FFFF
0000
1FF8
1FF8
1008
1008
1FF8
1FF8
ENDCHAR
STARTCHAR 544E
ENCODING 21582
SWIDTH 1020 0
DWIDTH 17 0
BBX 15 15 1 -1
BITMAP
07F8
07F8
F7F8
F408
9408
9408
97F8
97F8
F440
F420
0420
0410
0818
380E
3006
ENDCHAR
STARTCHAR 5451
ENCODING 21585
SWIDTH 1020 0
DWIDTH 17 0
BBX 16 16 0 -1
BITMAP
000C
3FFC
3FFC
3FF0
0180
FFFF
FFFF
0420
0C30
381C
FFFF
CFF3
0810
0810
0FF0
0FF0
ENDCHAR
STARTCHAR 545F
ENCODING 21599
SWIDTH 1020 0
DWIDTH 17 0
BBX 15 16 1 -1
BITMAP
0040
0040
0040
F040
FFFE
9FFE
9180
9590
9730
93A0
F1C0
F1C0
0190
0338
1FFC
1FCC
ENDCHAR
STARTCHAR 5468
ENCODING 21608
SWIDTH 1020 0
DWIDTH 17 0
BBX 14 15 0 -1
BITMAP
3FFC
3FFC
3FFC
2184
27E4
27E4
2184
2FF4
2FF4
2004
27E4
27E4
4424
C7FC
87D8
ENDCHAR
STARTCHAR 546A
ENCODING 21610
SWIDTH 1020 0
DWIDTH 17 0
BBX 15 15 1 -1
BITMAP
07F8
07F8
F7F8
F408
9408
9408
97F8
97F8
F1A0
F1A0
01A0
0322
0722
1C3E
181C
ENDCHAR
STARTCHAR 5470
ENCODING 21616
SWIDTH 1020 0
DWIDTH 17 0
BBX 16 16 0 -1
BITMAP
0820
2826
2826
2FBE
2FB8
2821
2FA1
FFBF
F81E
0000
0FF0
0FF0
0810
0810
0FF0
0FF0
ENDCHAR
STARTCHAR 5471
ENCODING 21617
SWIDTH 1020 0
DWIDTH 17 0
BBX 15 16 1 -1
BITMAP
000C
003C
003C
F7F8
F7C8
9408
9448
9448
9448
F448
F448
086C
0854
1874
37FE
279A
ENDCHAR
STARTCHAR 5473
ENCODING 21619
SWIDTH 1020 0
DWIDTH 17 0
BBX 15 16 1 -1
BITMAP
0040
0040
0040
07FC
F7FC
F040
9040
9FFE
9FFE
91E0
F1D0
F350
0748
1C4E
1846
0040
ENDCHAR
STARTCHAR 5475
ENCODING 21621
SWIDTH 1020 0
DWIDTH 17 0
BBX 15 15 1 -1
BITMAP
0FFE
0FFE
FFFE
F008
9008
97C8
97C8
9448
9448
F7C8
F7C8
0008
0008
0078
0070
ENDCHAR
STARTCHAR 5476
ENCODING 21622
SWIDTH 1020 0
DWIDTH 17 0
BBX 16 16 0 -1
BITMAP
0200
0200
0200
F23E
FFFE
9FE2
92D2
92D4
94D4
9CD4
FF88
F388
01D4
02F4
0EE7
0CC3
ENDCHAR
STARTCHAR 5477
ENCODING 21623
SWIDTH 1020 0
DWIDTH 17 0
BBX 14 15 1 -1
BITMAP
07FC
07FC
F7FC
F444
9444
97FC
97FC
9444
9444
F7FC
F7FC
0040
0040
0040
0040
ENDCHAR
STARTCHAR 547B
ENCODING 21627
SWIDTH 1020 0
DWIDTH 17 0
BBX 14 16 1 -1
BITMAP
0040
0040
0040
07FC
F7FC
F444
9444
97FC
97FC
9444
F444
F7FC
07FC
0040
0040
0040
ENDCHAR
STARTCHAR 547C
ENCODING 21628
SWIDTH 1020 0
DWIDTH 17 0
BBX 16 16 0 -1
BITMAP
000E
07FE
07FE
07F2
F226
F3A4
91AC
91A8
9FFF
9FFF
F020
F020
0020
0020
03E0
03C0
ENDCHAR
STARTCHAR 547D
ENCODING 21629
SWIDTH 1020 0
DWIDTH 17 0
BBX 16 16 0 -1
BITMAP
0180
03C0
03C0
06E0
0C30
3FFC
F7EF
C003
3CFC
3CFC
24C4
24C4
3CC4
3CDC
00D8
00C0
ENDCHAR
STARTCHAR 5480
ENCODING 21632
SWIDTH 1020 0
DWIDTH 17 0
BBX 15 15 1 -1
BITMAP
03F0
03F0
F3F0
F310
9310
93F0
93F0
9310
9310
F3F0
F3F0
0310
0310
1FFE
1FFE
ENDCHAR
STARTCHAR 5484
ENCODING 21636
SWIDTH 1020 0
DWIDTH 17 0
BBX 15 16 0 -1
BITMAP
0020
0020
0020
F224
F224
9224
9224
93FC
93FC
9020
F422
F422
0422
0422
07FE
07FE
ENDCHAR
STARTCHAR 5486
ENCODING 21638
SWIDTH 1020 0
DWIDTH 17 0
BBX 16 16 0 -1
BITMAP
0200
0200
0200
F3FC
F7FC
9404
9FE4
9BE4
9024
97E4
F7E8
F438
0431
0401
07FF
03FE
ENDCHAR
STARTCHAR 548B
ENCODING 21643
SWIDTH 1020 0
DWIDTH 17 0
BBX 15 16 1 -1
BITMAP
0180
0180
0180
0180
F3FE
F3FE
9F40
9C78
9078
9040
9040
F07C
F07C
0040
0040
0040
ENDCHAR
STARTCHAR 548C
ENCODING 21644
SWIDTH 1020 0
DWIDTH 17 0
BBX 15 16 0 -1
BITMAP
0200
0E00
0E00
FC00
F0FE
10FE
FEC2
FEC2
38C2
3CC2
56C2
D2C2
90FE
10FE
1000
1000
ENDCHAR
STARTCHAR 548E
ENCODING 21646
SWIDTH 1020 0
DWIDTH 17 0
BBX 16 16 0 -1
BITMAP
2010
3E10
3E10
3E10
6210
F428
9CEC
0FC6
3BFF
F0FF
C000
1FF8
1FF8
1008
1FF8
1FF8
ENDCHAR
STARTCHAR 548F
ENCODING 21647
SWIDTH 1020 0
DWIDTH 17 0
BBX 15 16 1 -1
BITMAP
03C0
03F0
03F0
F030
F7C0
97C6
9046
9F6C
9F68
9350
F350
F448
1C4E
1846
03C0
0380
ENDCHAR
STARTCHAR 5490
ENCODING 21648
SWIDTH 1020 0
DWIDTH 17 0
BBX 15 16 1 -1
BITMAP
0188
0188
0188
F308
F308
97FE
9FFE
9D88
95C8
9448
F448
F408
0408
0408
0478
0470
ENDCHAR
STARTCHAR 5492
ENCODING 21650
SWIDTH 1020 0
DWIDTH 17 0
BBX 16 15 0 -1
BITMAP
7C3E
7C3E
7C3E
4422
4422
7C3E
7C3E
0000
0FE0
0FE0
0820
0821
1821
F03F
E01E
ENDCHAR
STARTCHAR 54A2
ENCODING 21666
SWIDTH 1020 0
DWIDTH 17 0
BBX 16 15 0 -1
BITMAP
3EFC
3EFC
3EFC
22C4
3EFC
3EFC
0000
FFFF
FFFF
0800
1FF8
1FF8
0008
01F8
01F0
ENDCHAR
STARTCHAR 54A4
ENCODING 21668
SWIDTH 1020 0
DWIDTH 17 0
BBX 15 16 0 -1
BITMAP
0020
0020
0020
07FE
F7FE
F40A
93F8
93F0
90C0
97FE
97FE
F0C0
F0C2
00C2
00FE
003C
ENDCHAR
STARTCHAR 54A5
ENCODING 21669
SWIDTH 1020 0
DWIDTH 17 0
BBX 15 15 1 -1
BITMAP
0FFE
0FFE
FFFE
F190
9318
97FC
97EC
9040
9040
F7FC
F7FC
0040
0040
1FFE
1FFE
ENDCHAR
STARTCHAR 54A8
ENCODING 21672
SWIDTH 1020 0
DWIDTH 17 0
BBX 16 16 0 -1
BITMAP
0180
7980
7980
7BFE
07FE
1CC4
F9A0
E3B0
1E18
1C0F
0007
1FF8
1FF8
1008
1FF8
1FF8
ENDCHAR
STARTCHAR 54AB
ENCODING 21675
SWIDTH 1020 0
DWIDTH 17 0
BBX 16 15 0 -1
BITMAP
3EFE
3EFE
3EFE
22C2
22C2
22C2
3EFE
3EFE
2824
2824
29E7
25C3
4600
C3FF
81FF
ENDCHAR
STARTCHAR 54AC
ENCODING 21676
SWIDTH 1020 0
DWIDTH 17 0
BBX 15 16 1 -1
BITMAP
0020
0020
0020
F7FE
F7FE
9050
91D8
978E
978E
9050
F050
F020
0070
01D8
0F8E
0F06
ENDCHAR
STARTCHAR 54AF
ENCODING 21679
SWIDTH 1020 0
DWIDTH 17 0
BBX 16 16 0 -1
BITMAP
0180
0180
0180
01F8
F3F8
F788
94F0
90F0
93DC
9F8F
FC03
F3FC
03FC
0204
03FC
03FC
ENDCHAR
STARTCHAR 54B2
ENCODING 21682
SWIDTH 1020 0
DWIDTH 17 0
BBX 15 16 1 -1
BITMAP
0308
0398
0398
0190
F7FC
F7FC
9040
9040
9FFE
9FFE
F040
F1A0
01A0
0310
1F1E
1C0E
ENDCHAR
STARTCHAR 54B3
ENCODING 21683
SWIDTH 1020 0
DWIDTH 17 0
BBX 16 16 0 -1
BITMAP
0020
0020
0020
F7FF
F7FF
90C0
92D0
9394
91A4
90E8
F1C8
F790
0638
01EC
07C6
0606
ENDCHAR
STARTCHAR 54B8
ENCODING 21688
SWIDTH 1020 0
DWIDTH 17 0
BBX 16 16 0 -1
BITMAP
0024
0026
0026
3FFF
3FFF
2020
3FE4
3FE4
2024
2FA8
2F98
2990
4FB1
CFE9
83CF
0386
ENDCHAR
STARTCHAR 54BC
ENCODING 21692
SWIDTH 1020 0
DWIDTH 17 0
BBX 14 15 1 -1
BITMAP
1FE0
1FE0
1FE0
1020
13E0
13E0
1320
FFFC
FFFC
8004
9FE4
9FE4
9024
9FFC
9FF8
ENDCHAR
STARTCHAR 54BD
ENCODING 21693
SWIDTH 1020 0
DWIDTH 17 0
BBX 15 15 0 -1
BITMAP
07FE
07FE
07FE
F422
F422
97FE
97FE
9422
94D2
F5DA
F78E
0606
0402
07FE
07FE
ENDCHAR
STARTCHAR 54BE
ENCODING 21694
SWIDTH 1020 0
DWIDTH 17 0
BBX 16 16 0 -1
BITMAP
00C0
00C4
00C4
07FC
F7FC
F0C8
9FFF
9FFF
90E0
91CC
F3FC
FFF0
0D82
0182
01FE
00FC
ENDCHAR
STARTCHAR 54C0
ENCODING 21696
SWIDTH 1020 0
DWIDTH 17 0
BBX 16 16 0 -1
BITMAP
0180
FFFF
FFFF
FFFF
0000
1FF8
1FF8
1008
1008
1FF8
1FFA
38C6
F824
C9F8
3FDF
3E07
ENDCHAR
STARTCHAR 54C1
ENCODING 21697
SWIDTH 1020 0
DWIDTH 17 0
BBX 14 15 1 -1
BITMAP
1FE0
1FE0
1FE0
1020
1020
1FE0
1FE0
0000
0000
F9FC
F9FC
8984
8984
F9FC
F9FC
ENDCHAR
STARTCHAR 54C2
ENCODING 21698
SWIDTH 1020 0
DWIDTH 17 0
BBX 16 15 0 -1
BITMAP
0FFF
0FFF
0FFF
F0D0
F0D0
97FE
97FE
94D2
94D2
F59E
F78E
0602
0402
07FE
07FE
ENDCHAR
STARTCHAR 54C4
ENCODING 21700
SWIDTH 1020 0
DWIDTH 17 0
BBX 15 16 1 -1
BITMAP
0190
0190
0190
F190
F7FC
97FC
9190
9190
9190
9FFE
FFFE
F000
0310
0718
1C0E
1806
ENDCHAR
STARTCHAR 54C7
ENCODING 21703
SWIDTH 1020 0
DWIDTH 17 0
BBX 15 16 1 -1
BITMAP
0040
0040
0040
07F8
F7F8
F040
9FFC
9FFC
9040
9040
F7FC
F7FC
0040
0040
1FFE
1FFE
ENDCHAR
STARTCHAR 54C8
ENCODING 21704
SWIDTH 1020 0
DWIDTH 17 0
BBX 15 16 1 -1
BITMAP
0040
01E0
01E0
01A0
F3B0
F718
9C0E
9BF6
93F0
9000
97F8
F7F8
F408
0408
07F8
07F8
ENDCHAR
STARTCHAR 54C9
ENCODING 21705
SWIDTH 1020 0
DWIDTH 17 0
BBX 16 16 0 -1
BITMAP
0820
0828
0828
7FAC
7FA4
0820
FFFF
FFFF
0020
3E14
3E14
2208
3E19
3E3D
03E7
03C3
ENDCHAR
STARTCHAR 54D8
ENCODING 21720
SWIDTH 1020 0
DWIDTH 17 0
BBX 16 16 0 -1
BITMAP
0200
023E
023E
043E
FD80
F980
93FF
92FF
9604
9E04
FA04
F204
0204
0204
021C
0218
ENDCHAR
STARTCHAR 54E1
ENCODING 21729
SWIDTH 1020 0
DWIDTH 17 0
BBX 14 15 1 -1
BITMAP
3FF0
3FF0
3FF0
2010
7FF8
7FF8
4008
7FF8
7FF8
4008
7FF8
7FF8
0840
F87C
F03C
ENDCHAR
STARTCHAR 54E2
ENCODING 21730
SWIDTH 1020 0
DWIDTH 17 0
BBX 16 15 0 -1
BITMAP
07FE
07FE
07FE
F020
F3FC
93FC
9020
97FF
97FF
F188
FFFF
0FFF
0188
0F88
0E08
ENDCHAR
STARTCHAR 54E5
ENCODING 21733
SWIDTH 1020 0
DWIDTH 17 0
BBX 16 15 0 -1
BITMAP
7FFE
7FFE
7FFE
0988
0F88
0FB8
0030
FFFF
FFFF
0008
1F88
1F88
1188
1FB8
1FB0
ENDCHAR
STARTCHAR 54E6
ENCODING 21734
SWIDTH 1020 0
DWIDTH 17 0
BBX 16 16 0 -1
BITMAP
0030
0FF4
0FF4
0FD6
F192
F190
9FFF
9FFF
9192
91B2
93F4
FFCC
FD89
019D
0FF7
0EE3
ENDCHAR
STARTCHAR 54E8
ENCODING 21736
SWIDTH 1020 0
DWIDTH 17 0
BBX 14 16 1 -1
BITMAP
0324
03AC
03AC
01A8
F3FC
F3FC
9304
93FC
93FC
9304
93FC
F3FC
F304
0304
033C
0338
ENDCHAR
STARTCHAR 54E9
ENCODING 21737
SWIDTH 1020 0
DWIDTH 17 0
BBX 16 15 0 -1
BITMAP
03FC
03FC
03FC
F224
F3FC
93FC
9224
93FC
93FC
F020
F7FE
07FE
0020
0FFF
0FFF
ENDCHAR
STARTCHAR 54ED
ENCODING 21741
SWIDTH 1020 0
DWIDTH 17 0
BBX 16 15 0 -1
BITMAP
7C3E
7C3E
7C3E
4422
4422
7C3E
7DBE
0188
FFFF
FFFF
02C0
04E0
1C38
F81F
E007
ENDCHAR
STARTCHAR 54EE
ENCODING 21742
SWIDTH 1020 0
DWIDTH 17 0
BBX 16 16 0 -1
BITMAP
00C4
07FC
07FC
07FC
F0C8
FFFF
9FFF
90C0
91FC
93FC
F608
FFFF
1BFF
0020
01E0
01C0
ENDCHAR
ENDFONT
